<?xml version="1.0" encoding="UTF-8"?>
<svg version="1.1" xmlns="http://www.w3.org/2000/svg" width="1254" height="1254">
<path d="M0 0 C0.84320801 0.31420898 1.68641602 0.62841797 2.55517578 0.95214844 C21.12203292 7.89246449 39.45168661 16.56134929 55 29 C56.17037857 29.8977875 57.34237126 30.79347314 58.515625 31.6875 C64.73353694 36.45540758 70.64935292 41.25187628 76 47 C77.2065625 48.175625 77.2065625 48.175625 78.4375 49.375 C111.52230197 83.26674836 123.64629364 126.18650417 129 172 C129.70962891 170.74509766 129.70962891 170.74509766 130.43359375 169.46484375 C140.25211605 152.15668021 150.04053728 135.2303285 163.21875 120.2265625 C165.49719486 117.61978946 167.59923411 114.93525367 169.625 112.125 C170.40875 111.09375 171.1925 110.0625 172 109 C172.66 109 173.32 109 174 109 C174.25136719 108.41476562 174.50273438 107.82953125 174.76171875 107.2265625 C177.15354208 102.92580762 181.26011282 100.10944905 185 97 C185.96421875 96.18789062 186.9284375 95.37578125 187.921875 94.5390625 C202.32855973 82.73956191 217.57964937 75.40927853 236.5 77.2421875 C252.09149097 79.69085115 264.52153315 89.95674472 273.70996094 102.26733398 C276.64625291 106.34385813 279.15541807 110.33005842 281 115 C281.35707031 115.88558594 281.71414063 116.77117187 282.08203125 117.68359375 C286.35246209 128.80482177 288.41628456 141.68769952 283.8984375 153.0859375 C278.56706386 164.44408134 268.5498038 170.03497093 257.9921875 175.78515625 C244.49188848 183.17665013 232.31224319 192.74180586 221.0625 203.1875 C220.44785889 203.75742676 219.83321777 204.32735352 219.19995117 204.91455078 C215.16830742 208.72346698 211.5481012 212.73686161 208 217 C215.15762359 216.42277229 222.16175018 215.36014509 229.22607422 214.10424805 C258.13861334 209.06418409 288.43281713 210.95702251 317 217 C318.03753418 217.21350098 319.07506836 217.42700195 320.14404297 217.64697266 C330.83156448 219.88193902 340.93827304 222.70636739 351 227 C352.4117129 227.5599399 353.82455755 228.1170315 355.23828125 228.671875 C364.3044767 232.28570669 372.98384286 236.40489022 381.5625 241.0625 C382.45380615 241.54468994 383.3451123 242.02687988 384.26342773 242.52368164 C411.41512358 257.56571607 435.06322299 279.85740752 452.74462891 305.20947266 C453.92461455 306.89247824 455.12379442 308.56197981 456.32421875 310.23046875 C505.15116679 378.82679192 513.39398457 471.3749629 500.45776367 552.56030273 C498.35491602 564.74660001 495.48069612 576.75416382 492.5 588.75 C492.31467712 589.49627655 492.12935425 590.2425531 491.93841553 591.01144409 C478.63324394 644.19168695 456.192881 694.8933302 425 740 C424.525625 740.68690918 424.05125 741.37381836 423.5625 742.08154297 C411.71842207 759.1729484 399.03463989 775.36394506 385.03515625 790.74609375 C383.21581284 792.76099039 381.44809804 794.80894881 379.6875 796.875 C372.34124602 805.27314254 364.41757068 812.88160116 355.6796875 819.8125 C353.02304268 821.98118965 350.5519229 824.26741569 348.0625 826.625 C335.04253229 838.55225349 320.32142609 848.51317166 305.24658203 857.63867188 C303.10219008 858.93807739 300.9706985 860.25668043 298.83984375 861.578125 C272.0856734 877.97305499 242.26906461 890.07717141 211 894 C210.22035889 894.09804932 209.44071777 894.19609863 208.63745117 894.29711914 C179.81007564 897.54793373 150.69036423 893.68753892 122.625 887.05078125 C104.56599567 882.84095196 87.8494553 885.2140915 70.03125 889.32421875 C65.08571454 890.42676725 60.11018054 891.34670817 55.125 892.25 C54.25246582 892.41274414 53.37993164 892.57548828 52.48095703 892.74316406 C24.68515662 897.78526766 -3.92789435 895.723024 -31 888 C-31.64743164 887.81711426 -32.29486328 887.63422852 -32.96191406 887.44580078 C-74.49659474 875.57436694 -112.32213039 851.3191882 -145.04638672 823.64501953 C-146.84314327 822.13207957 -148.6545093 820.63944234 -150.47265625 819.15234375 C-157.98630631 812.94270657 -164.96054576 806.24382432 -171.875 799.375 C-172.77452393 798.48474121 -173.67404785 797.59448242 -174.60083008 796.67724609 C-175.43122803 795.84273926 -176.26162598 795.00823242 -177.1171875 794.1484375 C-177.86597168 793.39739746 -178.61475586 792.64635742 -179.38623047 791.87255859 C-181 790 -181 790 -181 788 C-181.84691406 787.67128906 -181.84691406 787.67128906 -182.7109375 787.3359375 C-185.73434263 785.57142461 -187.43990141 783.35089222 -189.625 780.625 C-190.40101563 779.66851563 -191.17703125 778.71203125 -191.9765625 777.7265625 C-193.62137448 775.51019423 -194.8929156 773.51177212 -196 771 C-196.66 771 -197.32 771 -198 771 C-199.73254597 769.01689183 -201.34264044 767.02782043 -202.9375 764.9375 C-203.42621582 764.30481201 -203.91493164 763.67212402 -204.41845703 763.02026367 C-205.95546099 761.02077872 -207.48007331 759.01249097 -209 757 C-209.45616699 756.39639648 -209.91233398 755.79279297 -210.38232422 755.17089844 C-224.10111486 736.92274525 -236.8777563 718.01933437 -247.89013672 698.015625 C-248.60228532 696.72229046 -249.31721395 695.43048056 -250.03564453 694.140625 C-256.01860169 683.38474696 -261.09448081 672.28269415 -266 661 C-266.51046875 659.83210937 -266.51046875 659.83210937 -267.03125 658.640625 C-275.72191868 638.67924537 -283.26348892 618.65712563 -288.38867188 597.47558594 C-289.20994446 594.14982554 -290.1369365 590.86073819 -291.0625 587.5625 C-310.95629464 513.04366089 -309.98277184 428.11373154 -278 357 C-277.65501465 356.21947266 -277.3100293 355.43894531 -276.95458984 354.63476562 C-266.03112787 330.08070112 -251.87562729 307.09925137 -234 287 C-233.37738281 286.2678125 -232.75476563 285.535625 -232.11328125 284.78125 C-224.24782587 275.54071501 -215.528734 267.49146746 -206 260 C-205.03707031 259.22011719 -204.07414062 258.44023437 -203.08203125 257.63671875 C-172.28116252 233.15998276 -129.27155043 212.44418186 -89 213 C-89 212.34 -89 211.68 -89 211 C-89.69996094 210.77054688 -90.39992188 210.54109375 -91.12109375 210.3046875 C-94.57748554 208.73829013 -97.22379713 206.58963363 -100.0625 204.125 C-100.6196167 203.64683838 -101.1767334 203.16867676 -101.75073242 202.67602539 C-105.902952 199.06410308 -109.89933022 195.30636975 -113.8125 191.4375 C-114.33400635 190.92525879 -114.8555127 190.41301758 -115.39282227 189.88525391 C-119 186.24686904 -119 186.24686904 -119 184 C-119.58265625 183.76023437 -120.1653125 183.52046875 -120.765625 183.2734375 C-139.73495298 172.46224708 -153.58265857 135.71177411 -160 116 C-160.28665527 115.13101074 -160.57331055 114.26202148 -160.86865234 113.36669922 C-167.7172174 92.31176136 -172.38066681 70.5236004 -172.5 48.3125 C-172.50636475 47.32838135 -172.51272949 46.3442627 -172.51928711 45.33032227 C-172.33895869 35.18924436 -170.17664818 23.70532714 -163.1640625 15.9765625 C-147.20050731 0.93508992 -124.1219482 -5.10170732 -103 -9 C-101.79214844 -9.22429687 -100.58429688 -9.44859375 -99.33984375 -9.6796875 C-67.16113544 -14.4590277 -30.39745731 -11.84930022 0 0 Z " fill="#F81F0F" transform="translate(537,158)"/>
<path d="M0 0 C0.84320801 0.31420898 1.68641602 0.62841797 2.55517578 0.95214844 C21.12203292 7.89246449 39.45168661 16.56134929 55 29 C56.17037857 29.8977875 57.34237126 30.79347314 58.515625 31.6875 C64.73353694 36.45540758 70.64935292 41.25187628 76 47 C77.2065625 48.175625 77.2065625 48.175625 78.4375 49.375 C111.52230197 83.26674836 123.64629364 126.18650417 129 172 C129.70962891 170.74509766 129.70962891 170.74509766 130.43359375 169.46484375 C140.25211605 152.15668021 150.04053728 135.2303285 163.21875 120.2265625 C165.49719486 117.61978946 167.59923411 114.93525367 169.625 112.125 C170.40875 111.09375 171.1925 110.0625 172 109 C172.66 109 173.32 109 174 109 C174.25136719 108.41476562 174.50273438 107.82953125 174.76171875 107.2265625 C177.15354208 102.92580762 181.26011282 100.10944905 185 97 C185.96421875 96.18789062 186.9284375 95.37578125 187.921875 94.5390625 C202.32855973 82.73956191 217.57964937 75.40927853 236.5 77.2421875 C252.09149097 79.69085115 264.52153315 89.95674472 273.70996094 102.26733398 C276.64625291 106.34385813 279.15541807 110.33005842 281 115 C281.35707031 115.88558594 281.71414063 116.77117187 282.08203125 117.68359375 C286.35246209 128.80482177 288.41628456 141.68769952 283.8984375 153.0859375 C278.56706386 164.44408134 268.5498038 170.03497093 257.9921875 175.78515625 C244.49188848 183.17665013 232.31224319 192.74180586 221.0625 203.1875 C220.44785889 203.75742676 219.83321777 204.32735352 219.19995117 204.91455078 C215.16830742 208.72346698 211.5481012 212.73686161 208 217 C215.15762359 216.42277229 222.16175018 215.36014509 229.22607422 214.10424805 C258.13861334 209.06418409 288.43281713 210.95702251 317 217 C318.03753418 217.21350098 319.07506836 217.42700195 320.14404297 217.64697266 C330.83156448 219.88193902 340.93827304 222.70636739 351 227 C352.4117129 227.5599399 353.82455755 228.1170315 355.23828125 228.671875 C364.3044767 232.28570669 372.98384286 236.40489022 381.5625 241.0625 C382.45380615 241.54468994 383.3451123 242.02687988 384.26342773 242.52368164 C411.41512358 257.56571607 435.06322299 279.85740752 452.74462891 305.20947266 C453.92461455 306.89247824 455.12379442 308.56197981 456.32421875 310.23046875 C505.15116679 378.82679192 513.39398457 471.3749629 500.45776367 552.56030273 C498.35491602 564.74660001 495.48069612 576.75416382 492.5 588.75 C492.31467712 589.49627655 492.12935425 590.2425531 491.93841553 591.01144409 C478.63324394 644.19168695 456.192881 694.8933302 425 740 C424.525625 740.68690918 424.05125 741.37381836 423.5625 742.08154297 C411.71842207 759.1729484 399.03463989 775.36394506 385.03515625 790.74609375 C383.21581284 792.76099039 381.44809804 794.80894881 379.6875 796.875 C372.34124602 805.27314254 364.41757068 812.88160116 355.6796875 819.8125 C353.02304268 821.98118965 350.5519229 824.26741569 348.0625 826.625 C335.04253229 838.55225349 320.32142609 848.51317166 305.24658203 857.63867188 C303.10219008 858.93807739 300.9706985 860.25668043 298.83984375 861.578125 C272.0856734 877.97305499 242.26906461 890.07717141 211 894 C210.22035889 894.09804932 209.44071777 894.19609863 208.63745117 894.29711914 C179.81007564 897.54793373 150.69036423 893.68753892 122.625 887.05078125 C104.56599567 882.84095196 87.8494553 885.2140915 70.03125 889.32421875 C65.08571454 890.42676725 60.11018054 891.34670817 55.125 892.25 C54.25246582 892.41274414 53.37993164 892.57548828 52.48095703 892.74316406 C24.68515662 897.78526766 -3.92789435 895.723024 -31 888 C-31.64743164 887.81711426 -32.29486328 887.63422852 -32.96191406 887.44580078 C-74.49659474 875.57436694 -112.32213039 851.3191882 -145.04638672 823.64501953 C-146.84314327 822.13207957 -148.6545093 820.63944234 -150.47265625 819.15234375 C-157.98630631 812.94270657 -164.96054576 806.24382432 -171.875 799.375 C-172.77452393 798.48474121 -173.67404785 797.59448242 -174.60083008 796.67724609 C-175.43122803 795.84273926 -176.26162598 795.00823242 -177.1171875 794.1484375 C-177.86597168 793.39739746 -178.61475586 792.64635742 -179.38623047 791.87255859 C-181 790 -181 790 -181 788 C-181.84691406 787.67128906 -181.84691406 787.67128906 -182.7109375 787.3359375 C-185.73434263 785.57142461 -187.43990141 783.35089222 -189.625 780.625 C-190.40101563 779.66851563 -191.17703125 778.71203125 -191.9765625 777.7265625 C-193.62137448 775.51019423 -194.8929156 773.51177212 -196 771 C-196.66 771 -197.32 771 -198 771 C-199.73254597 769.01689183 -201.34264044 767.02782043 -202.9375 764.9375 C-203.42621582 764.30481201 -203.91493164 763.67212402 -204.41845703 763.02026367 C-205.95546099 761.02077872 -207.48007331 759.01249097 -209 757 C-209.45616699 756.39639648 -209.91233398 755.79279297 -210.38232422 755.17089844 C-224.10111486 736.92274525 -236.8777563 718.01933437 -247.89013672 698.015625 C-248.60228532 696.72229046 -249.31721395 695.43048056 -250.03564453 694.140625 C-256.01860169 683.38474696 -261.09448081 672.28269415 -266 661 C-266.51046875 659.83210937 -266.51046875 659.83210937 -267.03125 658.640625 C-275.72191868 638.67924537 -283.26348892 618.65712563 -288.38867188 597.47558594 C-289.20994446 594.14982554 -290.1369365 590.86073819 -291.0625 587.5625 C-310.95629464 513.04366089 -309.98277184 428.11373154 -278 357 C-277.65501465 356.21947266 -277.3100293 355.43894531 -276.95458984 354.63476562 C-266.03112787 330.08070112 -251.87562729 307.09925137 -234 287 C-233.37738281 286.2678125 -232.75476563 285.535625 -232.11328125 284.78125 C-224.24782587 275.54071501 -215.528734 267.49146746 -206 260 C-205.03707031 259.22011719 -204.07414062 258.44023437 -203.08203125 257.63671875 C-172.28116252 233.15998276 -129.27155043 212.44418186 -89 213 C-89 212.34 -89 211.68 -89 211 C-89.69996094 210.77054688 -90.39992188 210.54109375 -91.12109375 210.3046875 C-94.57748554 208.73829013 -97.22379713 206.58963363 -100.0625 204.125 C-100.6196167 203.64683838 -101.1767334 203.16867676 -101.75073242 202.67602539 C-105.902952 199.06410308 -109.89933022 195.30636975 -113.8125 191.4375 C-114.33400635 190.92525879 -114.8555127 190.41301758 -115.39282227 189.88525391 C-119 186.24686904 -119 186.24686904 -119 184 C-119.58265625 183.76023437 -120.1653125 183.52046875 -120.765625 183.2734375 C-139.73495298 172.46224708 -153.58265857 135.71177411 -160 116 C-160.28665527 115.13101074 -160.57331055 114.26202148 -160.86865234 113.36669922 C-167.7172174 92.31176136 -172.38066681 70.5236004 -172.5 48.3125 C-172.50636475 47.32838135 -172.51272949 46.3442627 -172.51928711 45.33032227 C-172.33895869 35.18924436 -170.17664818 23.70532714 -163.1640625 15.9765625 C-147.20050731 0.93508992 -124.1219482 -5.10170732 -103 -9 C-101.79214844 -9.22429687 -100.58429688 -9.44859375 -99.33984375 -9.6796875 C-67.16113544 -14.4590277 -30.39745731 -11.84930022 0 0 Z M-72.93359375 238.05078125 C-102.0526167 238.79418762 -131.56278842 246.86486702 -157 261 C-157.98484375 261.51175781 -158.9696875 262.02351563 -159.984375 262.55078125 C-185.50802181 275.92546058 -208.33789347 296.55827784 -225 320 C-225.41652832 320.58281738 -225.83305664 321.16563477 -226.26220703 321.76611328 C-252.15650898 358.38762892 -266.99172506 400.75031511 -273 445 C-273.17950195 446.29236572 -273.35900391 447.58473145 -273.54394531 448.91625977 C-275.02964452 460.34255855 -275.30931833 471.6615698 -275.26074219 483.17504883 C-275.25007296 486.16703847 -275.26067961 489.15841962 -275.2734375 492.15039062 C-275.28745523 510.27717826 -274.09851466 528.30061845 -271.0625 546.1875 C-270.90587891 547.17556641 -270.74925781 548.16363281 -270.58789062 549.18164062 C-269.57977886 555.32268797 -268.22370663 561.30760726 -266.66723633 567.33178711 C-265.89247121 570.42999714 -265.33804207 573.53819902 -264.8125 576.6875 C-263.00518637 586.03334105 -259.9232242 594.95994671 -256.9375 603.984375 C-255.63817934 607.92971798 -254.46391789 611.87982013 -253.3984375 615.89453125 C-252.38170892 619.71103671 -251.21163946 623.31165612 -249.625 626.9375 C-247.95873102 630.78578789 -246.32261796 634.64165534 -244.7265625 638.51953125 C-241.88976879 645.33593527 -238.85315697 652.05121652 -235.75 658.75 C-235.46753418 659.36017975 -235.18506836 659.9703595 -234.89404297 660.59902954 C-230.36627556 670.35270144 -225.45784492 679.73658743 -220 689 C-219.25832966 690.37327429 -218.51751124 691.74700887 -217.77734375 693.12109375 C-214.37977774 699.25677439 -210.46541291 705.05326198 -206.5625 710.875 C-206.1673822 711.46582367 -205.7722644 712.05664734 -205.36517334 712.66537476 C-194.76346812 728.49753542 -183.70307804 743.77629568 -171 758 C-170.23300781 758.86625 -169.46601563 759.7325 -168.67578125 760.625 C-166.46734193 763.09908642 -164.23495277 765.54985752 -162 768 C-161.13375 768.97066406 -160.2675 769.94132813 -159.375 770.94140625 C-118.1510219 816.80531262 -56.4187751 863.10254517 7 868 C29.1158965 869.10319906 50.0713101 865.76063322 71.6171875 861.140625 C91.34730491 856.92880719 110.06160425 857.10595437 129.86425781 860.62402344 C132.71538223 861.12593606 135.57671355 861.55699107 138.4375 862 C142.4434651 862.67327145 146.36478 863.54413559 150.3125 864.5 C198.36746533 875.61130067 246.29463663 861.72379455 287.4609375 836.27734375 C291.69757981 833.60124678 295.86188882 830.82557342 300 828 C300.60650391 827.58782227 301.21300781 827.17564453 301.83789062 826.75097656 C315.15484102 817.64053806 327.60728447 807.42966821 339.39453125 796.421875 C341.62023159 794.35300812 343.88018383 792.35140442 346.1875 790.375 C352.67124921 784.73871179 358.61722614 778.59537132 364.203125 772.07421875 C366.1746243 769.79842282 368.21134395 767.59077333 370.25 765.375 C375.34943853 759.72146288 380.00829093 753.7628393 384.65332031 747.73632812 C385.8983024 746.13112279 387.16315465 744.54138163 388.4296875 742.953125 C399.8243778 728.53230383 409.91492152 712.97045305 419 697 C419.45052734 696.21109375 419.90105469 695.4221875 420.36523438 694.609375 C437.92448093 663.66384036 450.70647797 631.0104912 461 597 C461.29390625 596.0311084 461.5878125 595.0622168 461.890625 594.06396484 C466.11758376 579.92010224 468.98980148 565.62062409 471.47265625 551.07666016 C471.93401343 548.38498274 472.41608285 545.69825423 472.90625 543.01171875 C485.45992775 472.16227899 475.64914424 391.59914943 436 330.5625 C434.68684429 328.69398886 433.35152153 326.84095121 432 325 C431.54625 324.37013184 431.0925 323.74026367 430.625 323.09130859 C425.42344342 315.87990577 420.29062379 308.8195638 413.78515625 302.71484375 C411.92292378 300.92595961 410.28551361 299.03893499 408.625 297.0625 C386.69481878 271.78870371 352.95131956 255.22603129 321.3125 246.25 C320.27939697 245.95601318 319.24629395 245.66202637 318.18188477 245.35913086 C311.17288792 243.43247925 304.18682918 242.06923305 297 241 C295.69933594 240.79117188 294.39867187 240.58234375 293.05859375 240.3671875 C273.16369083 237.66302594 252.86129112 238.32163696 233 241 C232.30310059 241.08588379 231.60620117 241.17176758 230.88818359 241.26025391 C220.12481287 242.61235938 209.67226167 245.21712096 199.1875 247.9375 C198.52139709 248.10662903 197.85529419 248.27575806 197.16900635 248.45001221 C195.24840197 248.94111726 193.33306531 249.45268117 191.41796875 249.96484375 C190.30188232 250.2599585 189.1857959 250.55507324 188.03588867 250.85913086 C183.91266497 252.40861412 180.8073509 254.30343395 178.8828125 258.34765625 C178.59148437 259.22292969 178.30015625 260.09820312 178 261 C176.96361847 263.1483909 175.92125253 265.29389888 174.875 267.4375 C164.65084556 287.92916815 164.65084556 287.92916815 161 310 C167.96676652 310.63605286 173.69369342 308.34158523 180.1875 306 C181.33138184 305.59789307 182.47526367 305.19578613 183.65380859 304.78149414 C191.71319211 301.91677106 199.67644313 298.83895689 207.50463867 295.38867188 C212.59406719 293.23135858 216.46301208 292.56222033 222 293 C223 294 223 294 223.4375 296.5625 C222.80166 301.5583857 220.2545438 304.28258774 217 308 C216.48179687 308.60070312 215.96359375 309.20140625 215.4296875 309.8203125 C202.60809235 323.63294882 181.55634648 331.95326458 163.4375 335.6875 C162.46103516 335.89955078 161.48457031 336.11160156 160.47851562 336.33007812 C149.17486663 338.72690537 138.20991194 339.24076027 126.6875 339.25 C125.93122314 339.25067474 125.17494629 339.25134949 124.39575195 339.25204468 C90.07087796 339.20347859 55.26798167 330.51233321 29.75 306.1875 C18.51439773 294.55703631 18.51439773 294.55703631 17.6953125 287.30078125 C18 285 18 285 20 283 C27.76936457 281.85978609 32.56565567 285.10026031 39.0625 289.0625 C41.11227166 290.26566572 43.16435777 291.4648972 45.21875 292.66015625 C46.21003906 293.23910645 47.20132812 293.81805664 48.22265625 294.41455078 C60.43166371 301.38407385 73.93914454 307.5617841 88 309 C88.05534912 308.41508789 88.11069824 307.83017578 88.16772461 307.22753906 C88.42117265 304.56804892 88.67928825 301.90903168 88.9375 299.25 C89.02451172 298.32960938 89.11152344 297.40921875 89.20117188 296.4609375 C89.28818359 295.57148438 89.37519531 294.68203125 89.46484375 293.765625 C89.543396 292.94868164 89.62194824 292.13173828 89.70288086 291.29003906 C89.98361614 289.12627824 90.46655085 287.11218852 91 285 C91.41324183 279.52454578 90.76076178 275.78021431 88 271 C85.2595968 270.03120152 83.45271101 269.65125145 80.6328125 269.43359375 C79.52555817 269.30672432 79.52555817 269.30672432 78.39593506 269.17729187 C76.8053018 268.99749729 75.21301345 268.83189325 73.61956787 268.67901611 C69.38923537 268.2694488 65.1724651 267.7471105 60.953125 267.23828125 C60.10342133 267.13847961 59.25371765 267.03867798 58.37826538 266.93585205 C46.08527805 265.46234163 34.04952996 262.81224711 22 260 C20.30423828 259.60989746 20.30423828 259.60989746 18.57421875 259.21191406 C-0.40577797 254.78144054 -19.17671586 249.04735654 -36.85546875 240.74609375 C-40.50756537 239.09629377 -43.64750947 238.42543988 -47.6875 238.25 C-48.89277344 238.19585937 -50.09804688 238.14171875 -51.33984375 238.0859375 C-52.54769531 238.05757812 -53.75554687 238.02921875 -55 238 C-56.11503906 237.97164062 -57.23007812 237.94328125 -58.37890625 237.9140625 C-63.2328244 237.85781779 -68.08023607 237.98812619 -72.93359375 238.05078125 Z " fill="#240E00" transform="translate(537,158)"/>
<path d="M0 0 C22.28069556 7.47938543 42.0569158 20.90266044 59 37 C60.36931218 38.17333723 61.74391787 39.34053966 63.125 40.5 C107.00533685 78.86191721 127.35065167 141.89523333 133 198 C133.0942627 198.89340088 133.18852539 199.78680176 133.28564453 200.70727539 C134.14056504 209.65029449 134.24331815 218.58684612 134.25 227.5625 C134.25101212 228.79646515 134.25101212 228.79646515 134.25204468 230.05535889 C134.17312788 291.43787639 119.75097577 352.3164323 94 408 C93.56042969 408.96131836 93.12085938 409.92263672 92.66796875 410.91308594 C86.48537197 424.38740528 79.72882648 437.34945257 72 450 C71.5138623 450.79921875 71.02772461 451.5984375 70.52685547 452.421875 C63.85096731 463.3432889 56.74666047 473.81340105 49 484 C48.15865451 485.11964166 47.31750531 486.23943086 46.4765625 487.359375 C37.88662267 498.72876067 28.61037192 509.48359975 19 520 C18.0805861 521.01289099 17.16132221 522.02591816 16.2421875 523.0390625 C8.85548357 531.16330216 1.3341108 538.84486097 -7 546 C-8.02006008 546.89523112 -9.03954808 547.79111434 -10.05859375 548.6875 C-54.89046406 587.90725773 -110.07749504 617.50702564 -171 614 C-182.08267029 612.88435436 -193.05609287 610.94689147 -203.91137695 608.46875 C-207.2602694 607.71715754 -210.62734937 607.0723914 -214 606.4375 C-214.64710938 606.31181641 -215.29421875 606.18613281 -215.9609375 606.05664062 C-239.80934715 601.55560679 -262.42450044 605.00569609 -285.875 610.125 C-314.95736321 616.42952569 -343.75930015 615.46615638 -372 606 C-373.85044922 605.38898438 -373.85044922 605.38898438 -375.73828125 604.765625 C-403.08731622 595.10968327 -427.91056697 580.35665019 -451 563 C-451.59361328 562.55946289 -452.18722656 562.11892578 -452.79882812 561.66503906 C-495.55997817 529.92863512 -529.94417076 489.07947785 -557.74829102 443.9284668 C-559.07863694 441.87884666 -560.51373687 439.93875668 -562 438 C-561.67 437.34 -561.34 436.68 -561 436 C-556.52458858 439.77534706 -552.27933632 443.6849596 -548.1875 447.875 C-543.95794691 452.14975442 -539.52720286 455.98301979 -534.828125 459.73046875 C-531.95759026 462.03403323 -529.17014786 464.41829548 -526.375 466.8125 C-518.91786886 473.02197728 -511.03888346 478.57231846 -503 484 C-502.27989746 484.48726562 -501.55979492 484.97453125 -500.81787109 485.4765625 C-459.15803272 513.38035395 -411.53869315 530.97599665 -362 538 C-360.80576416 538.17950195 -359.61152832 538.35900391 -358.38110352 538.54394531 C-345.39498134 540.37130771 -332.40634904 540.39781781 -319.3125 540.375 C-318.1398056 540.37445618 -316.96711121 540.37391235 -315.75888062 540.37335205 C-297.524266 540.33449647 -279.92371089 539.60950538 -262 536 C-260.85096191 535.76974121 -259.70192383 535.53948242 -258.51806641 535.30224609 C-246.20626074 532.76290424 -234.01453159 529.78824215 -222.11328125 525.71582031 C-219.72901713 524.90821144 -217.33361758 524.13889402 -214.9375 523.3671875 C-191.59216722 515.70312788 -169.17649942 505.44979479 -148 493 C-147.24219238 492.55978516 -146.48438477 492.11957031 -145.70361328 491.66601562 C-112.04043451 472.0285641 -79.07547531 445.73782056 -53.7265625 416.00390625 C-51.78258954 413.74766614 -49.76676482 411.56636107 -47.75 409.375 C-42.16410192 403.17474764 -37.06889342 396.62362387 -32 390 C-31.49500977 389.34128906 -30.99001953 388.68257812 -30.46972656 388.00390625 C-23.99462168 379.53302203 -17.76575065 370.9748883 -12 362 C-11.57283691 361.34789551 -11.14567383 360.69579102 -10.70556641 360.02392578 C9.90827307 328.54787544 26.52747558 294.46920257 39 259 C39.40976074 257.84483887 39.81952148 256.68967773 40.24169922 255.49951172 C52.83621851 219.74716574 61.46894763 181.90032608 61.26074219 143.82275391 C61.25000028 141.50006033 61.2607373 139.17813964 61.2734375 136.85546875 C61.28762261 122.56373149 60.009091 108.43676567 57.0625 94.4375 C56.90587891 93.64021484 56.74925781 92.84292969 56.58789062 92.02148438 C55.46339009 86.51546381 53.84370472 81.30238161 52 76 C51.59051181 74.71456874 51.18414623 73.42813761 50.78125 72.140625 C41.66432848 43.97185996 24.87012434 18.58008289 0 2 C0 1.34 0 0.68 0 0 Z " fill="#D31107" transform="translate(880,412)"/>
<path d="M0 0 C1.28608154 0.22598877 1.28608154 0.22598877 2.59814453 0.45654297 C46.20853379 8.42816987 87.44928548 30.60299429 113.29736328 67.38208008 C122.77689765 81.32666706 129.61107128 96.04398921 135 112 C135.43916748 113.28777344 135.43916748 113.28777344 135.88720703 114.6015625 C138.47106212 122.59928112 138.4344165 128.84672858 136 136.9375 C135.78287354 137.6682373 135.56574707 138.39897461 135.34204102 139.15185547 C132.00896253 149.77982296 126.54366337 159.39427595 121 169 C118.76182887 166.92318539 117.26930169 164.95186361 115.8359375 162.26171875 C115.24341187 161.16597534 115.24341187 161.16597534 114.63891602 160.0480957 C114.22182373 159.26909912 113.80473145 158.49010254 113.375 157.6875 C92.21103518 118.96745984 63.41966677 87.09375239 25 65 C24.36916504 64.63036133 23.73833008 64.26072266 23.08837891 63.87988281 C2.18009392 51.69975438 -21.26764046 44.97694853 -45 41 C-45 41.66 -45 42.32 -45 43 C-44.35804688 43.23589844 -43.71609375 43.47179687 -43.0546875 43.71484375 C-18.56529262 54.01792676 4.92812806 69.74418174 25 87 C26.0796535 87.89712942 27.16045356 88.7928802 28.2421875 89.6875 C34.74767244 95.10980567 40.94448369 100.76447122 46.9375 106.75 C47.53981445 107.35150879 48.14212891 107.95301758 48.76269531 108.57275391 C68.97425396 129.03597833 89.59535828 153.89349913 102 180 C90.09356602 183.56067115 78.32187678 186.3403313 66 188 C65.02546875 188.13277344 64.0509375 188.26554688 63.046875 188.40234375 C45.37964754 190.28788118 27.46851293 189.34945863 9.97998047 186.47851562 C7.93558417 186.15023308 5.88731905 185.84543713 3.83642578 185.56054688 C-11.92806023 183.36449907 -23.01946944 179.58993326 -35 169 C-35.62390625 168.45762695 -36.2478125 167.91525391 -36.890625 167.35644531 C-41.642955 163.19066865 -46.16726259 158.8354566 -50.6328125 154.36328125 C-52.01632489 152.98205188 -53.41574205 151.6158333 -54.8515625 150.2890625 C-85.78866884 121.25997153 -100.39515309 74.46221542 -102.30078125 33.23828125 C-102.35324043 31.34653258 -102.39897341 29.45458369 -102.4375 27.5625 C-102.47182129 26.66885742 -102.50614258 25.77521484 -102.54150391 24.85449219 C-102.58313808 18.67122204 -102.58313808 18.67122204 -99.95703125 15.6484375 C-69.39364196 -1.38954174 -34.44699718 -6.0701195 0 0 Z " fill="#9BBD25" transform="translate(495,176)"/>
<path d="M0 0 C1.17889637 1.02569178 2.32604407 2.08908933 3.4375 3.1875 C4.35402344 4.04794922 4.35402344 4.04794922 5.2890625 4.92578125 C11.73351664 11.54848625 15.65246111 19.76775358 15.9375 29.0625 C14.69517094 54.78206924 0.65514973 76.02869257 -16.5625 94.1875 C-17.00432617 94.661875 -17.44615234 95.13625 -17.90136719 95.625 C-33.18014728 111.95638916 -53.94835483 127.28758624 -76.98046875 128.5625 C-78.92411846 128.61852141 -80.86823514 128.66017326 -82.8125 128.6875 C-83.72330322 128.70619141 -84.63410645 128.72488281 -85.57250977 128.74414062 C-95.87694437 128.64699067 -104.33902508 124.75804055 -112.0625 118 C-122.90173 105.80586626 -124.61707638 93.43139927 -123.76513672 77.56591797 C-122.03748121 57.28782161 -108.17795725 37.39925464 -94.5625 23.1875 C-93.71945312 22.26710938 -93.71945312 22.26710938 -92.859375 21.328125 C-71.18852833 -1.60510109 -29.09401237 -20.46110697 0 0 Z " fill="#FDE9E3" transform="translate(472.5625,454.8125)"/>
<path d="M0 0 C41.47500714 1.04638779 84.07825806 26.96164566 113 55 C113.55929199 55.53351074 114.11858398 56.06702148 114.69482422 56.61669922 C123.29335089 64.83570472 130.97221547 73.40318842 138 83 C138.74507812 84.01191406 139.49015625 85.02382813 140.2578125 86.06640625 C149.49034517 99.02173435 157.63033723 112.9071361 165 127 C173.13366138 114.75822031 178.59658333 102.36002998 182 88 C182.66 88 183.32 88 184 88 C187.08600945 102.5438266 187.43624058 116.67017818 187.3125 131.5 C187.30317854 133.82104442 187.29398321 136.14208935 187.28491211 138.46313477 C187.05836964 175.80217065 187.05836964 175.80217065 184 189 C183.02804687 188.74605469 182.05609375 188.49210938 181.0546875 188.23046875 C172.95121504 186.18309673 164.9189122 184.60866735 156.625 183.5625 C120.08920942 178.84025227 85.2177085 169.728312 51.875 153.9375 C50.85543213 153.45498779 49.83586426 152.97247559 48.78540039 152.4753418 C41.89880797 149.12990977 35.24025192 145.456119 29 141 C29 140.67 29 140.34 29 140 C35.4535433 140.63167881 41.70964343 141.65639091 48.0625 142.9375 C80.25952362 149.16137628 114.85926867 149.61879559 146 138 C129.93755011 111.59645958 111.2625229 87.41490193 90 65 C89.21753906 64.175 88.43507813 63.35 87.62890625 62.5 C83.03083454 57.7789852 78.17300363 53.54280517 73.01977539 49.43701172 C70.11852588 47.09565246 67.28479846 44.68969351 64.44921875 42.26953125 C58.30358948 37.10449162 51.82360316 32.5510204 45.125 28.125 C44.54816467 27.74147369 43.97132935 27.35794739 43.37701416 26.96279907 C33.03418282 20.10004924 22.38632129 13.97335427 11.37011719 8.24755859 C7.54250286 6.23281723 3.77054861 4.11915958 0 2 C0 1.34 0 0.68 0 0 Z " fill="#406709" transform="translate(450,217)"/>
<path d="M0 0 C9.810302 5.75778461 17.30186902 15.84310705 20.875 26.5625 C21.04298795 28.39109013 21.14062078 30.22680827 21.1875 32.0625 C21.24357422 33.50109375 21.24357422 33.50109375 21.30078125 34.96875 C20.875 37.5625 20.875 37.5625 19.30859375 39.1875 C16.80216311 40.60365342 14.25273839 41.88718199 11.6472168 43.11108398 C-41.31496866 68.02882354 -75.48508484 121.0432342 -94.96337891 174.27734375 C-98.50374726 184.28978522 -101.5494092 194.39835999 -103.67553711 204.8059082 C-104.125 206.5625 -104.125 206.5625 -105.125 207.5625 C-106.46767413 207.64881874 -107.81474322 207.66956473 -109.16015625 207.66015625 C-109.96904297 207.65693359 -110.77792969 207.65371094 -111.61132812 207.65039062 C-112.46146484 207.64201172 -113.31160156 207.63363281 -114.1875 207.625 C-115.04150391 207.62048828 -115.89550781 207.61597656 -116.77539062 207.61132812 C-118.89195663 207.59950373 -121.00848685 207.58156769 -123.125 207.5625 C-123.44175124 198.56614358 -122.53833679 190.10679435 -121 181.25 C-120.88862701 180.59909393 -120.77725403 179.94818787 -120.6625061 179.27755737 C-109.59930017 114.98056572 -77.13416332 41.63401332 -22.375 2.7421875 C-15.39126259 -1.94161716 -8.07009414 -3.54889682 0 0 Z " fill="#8B4316" transform="translate(774.125,264.4375)"/>
<path d="M0 0 C6.33655327 11.22597034 12.42396069 22.50454791 17.75 34.25 C18.17974121 35.19568848 18.60948242 36.14137695 19.05224609 37.11572266 C22 43.72351301 22 43.72351301 22 46 C-18.872944 42.90921675 -59.10414316 32.47025054 -96.125 14.9375 C-97.14456787 14.45498779 -98.16413574 13.97247559 -99.21459961 13.4753418 C-106.10119203 10.12990977 -112.75974808 6.456119 -119 2 C-119 1.67 -119 1.34 -119 1 C-112.5464567 1.63167881 -106.29035657 2.65639091 -99.9375 3.9375 C-70.48393338 9.63104971 -35.48401332 11.90505621 -6.89453125 0.55078125 C-4.54899465 -0.13111702 -2.4318708 -0.03515057 0 0 Z " fill="#679013" transform="translate(598,356)"/>
<path d="M0 0 C0.99 0.99 0.99 0.99 2 2 C1.25878906 2.36609375 0.51757812 2.7321875 -0.24609375 3.109375 C-14.15953386 10.26193907 -26.62985091 19.26035825 -38 30 C-39.28810702 31.08756342 -40.57969534 32.17101913 -41.875 33.25 C-78.29686933 65.21055602 -102.9958338 116.47245194 -112.55053711 163.2434082 C-113 165 -113 165 -114 166 C-115.34267413 166.08631874 -116.68974322 166.10706473 -118.03515625 166.09765625 C-118.84404297 166.09443359 -119.65292969 166.09121094 -120.48632812 166.08789062 C-121.33646484 166.07951172 -122.18660156 166.07113281 -123.0625 166.0625 C-123.91650391 166.05798828 -124.77050781 166.05347656 -125.65039062 166.04882812 C-127.76695663 166.03700373 -129.88348685 166.01906769 -132 166 C-132.31676113 157.00336277 -131.41219947 148.54466957 -129.875 139.6875 C-129.76495636 139.04024963 -129.65491272 138.39299927 -129.54153442 137.72613525 C-126.71305422 121.16639248 -122.77488941 104.79602103 -117 89 C-114.59425724 91.40574276 -114.54303718 92.63564003 -114 95.9375 C-113.42540289 99.42099497 -113.00936183 100.98595726 -111 104 C-107.84826987 104 -105.71224466 103.64656336 -103.33740234 101.49072266 C-98.95847529 96.43071357 -95.49899766 91.17826761 -92.1875 85.375 C-87.21601221 76.8882164 -81.91250582 68.85389 -76 61 C-75.60103516 60.46358887 -75.20207031 59.92717773 -74.79101562 59.37451172 C-71.92696107 55.52925329 -68.99572572 51.74354762 -66 48 C-65.55462891 47.44344727 -65.10925781 46.88689453 -64.65039062 46.31347656 C-51.05623625 29.50772718 -24.03170739 -3.10086547 0 0 Z " fill="#6D320E" transform="translate(783,306)"/>
<path d="M0 0 C6.22942693 3.16654682 9.44971724 7.30761903 12.01953125 13.75 C15.00947196 23.28933465 13.60542225 31.21898212 9.58203125 40.3125 C4.3882258 48.41615416 -2.18210629 52.80743046 -11.41796875 55.3125 C-18.17667693 56.52195304 -24.98505455 54.60921074 -30.625 50.8359375 C-35.79584938 46.63402279 -39.59053843 41.84730759 -40.81420898 35.14086914 C-40.98864383 32.89023417 -41.02471942 30.69428398 -40.98046875 28.4375 C-40.97023682 27.64883545 -40.96000488 26.8601709 -40.94946289 26.04760742 C-40.63926286 17.51051595 -37.84559953 11.71741372 -32.10546875 5.4375 C-22.68171378 -3.305765 -11.7346816 -4.72669692 0 0 Z " fill="#FDE7E2" transform="translate(384.41796875,607.6875)"/>
<path d="M0 0 C1.73636719 0.11794922 1.73636719 0.11794922 3.5078125 0.23828125 C6.88746587 0.68916308 9.73584909 1.35797726 12.875 2.6875 C16.07067801 8.93359793 14.98805117 15.79027535 13.9375 22.5 C13.07483607 28.22050193 12.37955053 33.92500186 11.875 39.6875 C-8.83695218 37.7873209 -31.06642533 25.05988312 -48.125 13.6875 C-46.46275439 9.73863551 -44.46621475 8.41177863 -40.5546875 6.60693359 C-36.02850908 4.89415346 -31.35897257 3.95477657 -26.625 3 C-25.63113281 2.78794922 -24.63726563 2.57589844 -23.61328125 2.35742188 C-15.65638765 0.69141443 -8.16740137 -0.61209831 0 0 Z " fill="#CE1106" transform="translate(613.125,427.3125)"/>
<path d="M0 0 C0.66 0 1.32 0 2 0 C4.92497487 13.65541615 5.43840795 26.92109557 5.33618164 40.8605957 C5.31241688 44.32461601 5.31566737 47.78787083 5.32226562 51.25195312 C5.29303544 72.56649188 5.29303544 72.56649188 3 83 C0.66400888 80.66400888 -0.09603432 78.69622814 -1.35546875 75.64453125 C-2.03863159 74.00967773 -2.03863159 74.00967773 -2.7355957 72.34179688 C-3.71179339 69.96885022 -4.68290496 67.59380545 -5.64916992 65.21679688 C-8.72029073 57.68508601 -8.72029073 57.68508601 -12.6328125 50.57421875 C-14.80722102 47.08243417 -16.37996823 44.14418296 -17 40 C-15.57005506 35.07295758 -12.65594008 30.91138151 -9.8671875 26.66015625 C-6.86864157 22.04074818 -5.06817306 17.36458337 -3.4375 12.125 C-3.19942627 11.36985107 -2.96135254 10.61470215 -2.71606445 9.83666992 C-1.71597726 6.57942343 -0.81137963 3.30852941 0 0 Z " fill="#679112" transform="translate(632,305)"/>
<path d="M0 0 C0.33 1.32 0.66 2.64 1 4 C1.76554199 4.10546143 2.53108398 4.21092285 3.31982422 4.31958008 C6.8393949 4.80913244 10.3571509 5.3107321 13.875 5.8125 C15.07898438 5.97814453 16.28296875 6.14378906 17.5234375 6.31445312 C27.52425521 7.75478828 36.39449245 9.57478872 45 15 C42.42117577 17.57882423 39.95799313 18.32928533 36.55078125 19.64453125 C35.57627266 20.02202766 35.57627266 20.02202766 34.58207703 20.40715027 C33.1985251 20.94171404 31.81395544 21.47364992 30.4284668 22.00317383 C28.36314258 22.79312996 26.30148774 23.59206968 24.24023438 24.39257812 C17.50508471 26.99533554 10.73807956 29.51492754 3.91796875 31.88671875 C2.75418701 32.29494873 1.59040527 32.70317871 0.39135742 33.1237793 C-3.20421868 34.05276372 -6.30234019 34.15920684 -10 34 C-9.43333696 27.37858121 -7.73592716 21.57604262 -5.5625 15.3125 C-5.09360352 13.92708008 -5.09360352 13.92708008 -4.61523438 12.51367188 C-3.17853234 8.29468852 -1.67871735 4.12965384 0 0 Z " fill="#CC1107" transform="translate(708,434)"/>
<path d="M0 0 C8.4542781 2.20731814 16.95693162 4.08181757 25.50830078 5.87133789 C27.92199119 6.37729296 30.33405991 6.89050968 32.74609375 7.40429688 C43.47236505 9.67025535 54.22740685 11.59929377 65.0546875 13.31640625 C65.0546875 13.64640625 65.0546875 13.97640625 65.0546875 14.31640625 C64.07371094 14.49816406 63.09273437 14.67992187 62.08203125 14.8671875 C59.24749724 15.39353017 56.41448182 15.92740918 53.58203125 16.46484375 C50.70238586 17.01082402 47.82040631 17.5363635 44.93359375 18.04296875 C36.48743379 19.59100612 30.2215954 21.53846765 23.0546875 26.31640625 C22.36503906 25.61128906 21.67539062 24.90617187 20.96484375 24.1796875 C17.92703076 21.1461426 14.74276402 18.30667386 11.4921875 15.50390625 C10.88737549 14.98199707 10.28256348 14.46008789 9.65942383 13.92236328 C4.77959245 9.78332865 -0.28773287 6.23806113 -5.71484375 2.83984375 C-7.9453125 1.31640625 -7.9453125 1.31640625 -8.9453125 -0.68359375 C-5.86757897 -2.22246052 -3.17255399 -0.86396354 0 0 Z " fill="#E6180B" transform="translate(540.9453125,413.68359375)"/>
<path d="M0 0 C4.89240609 0.44476419 9.62764409 1.11462734 14.44384766 2.09350586 C39.00468285 6.94909724 63.49381452 4.79960256 88 1 C88.495 2.485 88.495 2.485 89 4 C86.20901043 4.48340669 83.41730344 4.96179062 80.625 5.4375 C79.85027344 5.57220703 79.07554687 5.70691406 78.27734375 5.84570312 C67.78011152 7.62415983 57.52286908 8.19305626 46.875 8.1875 C45.59923096 8.18814453 44.32346191 8.18878906 43.0090332 8.18945312 C33.85838859 8.13827047 25.01501268 7.59004948 16 6 C16 5.34 16 4.68 16 4 C10.72 3.01 5.44 2.02 0 1 C0 0.67 0 0.34 0 0 Z " fill="#1A0600" transform="translate(511,1045)"/>
<path d="M0 0 C0.99 0.495 0.99 0.495 2 1 C2 1.66 2 2.32 2 3 C-19.79253603 11.13445925 -41.38627681 19.12644969 -65 18 C-65 17.34 -65 16.68 -65 16 C-64.43716309 15.92483154 -63.87432617 15.84966309 -63.29443359 15.7722168 C-42.31954093 12.94464568 -21.10703815 9.38130735 -1.6796875 0.56640625 C-1.12539063 0.37949219 -0.57109375 0.19257812 0 0 Z " fill="#1A0500" transform="translate(800,1034)"/>
<path d="M0 0 C0.84304688 0.08378906 1.68609375 0.16757813 2.5546875 0.25390625 C3.65039062 0.35574219 4.74609375 0.45757812 5.875 0.5625 C6.96554687 0.66691406 8.05609375 0.77132812 9.1796875 0.87890625 C11.95152023 1.22639404 11.95152023 1.22639404 14 0 C16.80383046 0.70401856 19.50311327 1.48794717 22.25 2.375 C23.07669189 2.63812988 23.90338379 2.90125977 24.75512695 3.17236328 C35.05738115 6.544777 45.03114472 10.75859703 55 15 C53.31298828 16.09985352 53.31298828 16.09985352 51 17 C48.62841797 16.48022461 48.62841797 16.48022461 45.9921875 15.40234375 C45.01386963 15.01506104 44.03555176 14.62777832 43.02758789 14.22875977 C41.98723389 13.80264404 40.94687988 13.37652832 39.875 12.9375 C32.34572204 9.97809044 24.8778507 7.17039919 17.0625 5.0625 C16.37333496 4.8761499 15.68416992 4.6897998 14.97412109 4.49780273 C10.01339101 3.19620107 5.01187893 2.08543517 0 1 C0 0.67 0 0.34 0 0 Z " fill="#160802" transform="translate(504,152)"/>
<path d="M0 0 C0.99 0 1.98 0 3 0 C5.83710511 7.05050802 8.45529462 14.13124682 10.75 21.375 C10.96035889 22.02791016 11.17071777 22.68082031 11.38745117 23.35351562 C12.69147638 27.54773003 13.67984151 31.61382864 14 36 C13.34 36.99 12.68 37.98 12 39 C11.77860352 38.26475098 11.55720703 37.52950195 11.32910156 36.77197266 C10.3073364 33.38823942 9.27871488 30.00662658 8.25 26.625 C7.90195312 25.46871094 7.55390625 24.31242187 7.1953125 23.12109375 C5.31024735 16.94226908 3.28919333 10.93399482 0.72558594 5.00146484 C0 3 0 3 0 0 Z " fill="#190903" transform="translate(646,258)"/>
<path d="M0 0 C0.495 1.485 0.495 1.485 1 3 C0.21238281 3.38929688 -0.57523438 3.77859375 -1.38671875 4.1796875 C-12.98369099 10.13600224 -23.05958473 17.43583483 -32 27 C-32.66 26.67 -33.32 26.34 -34 26 C-33.52949219 25.55269531 -33.05898438 25.10539062 -32.57421875 24.64453125 C-31.95160156 24.03996094 -31.32898438 23.43539063 -30.6875 22.8125 C-30.07261719 22.22082031 -29.45773437 21.62914062 -28.82421875 21.01953125 C-26.90086368 19.03163967 -26.90086368 19.03163967 -25.5390625 16.47265625 C-20.38656695 8.19466212 -8.56070883 4.05831874 0 0 Z " fill="#180600" transform="translate(751,237)"/>
<path d="M0 0 C0.99 0 1.98 0 3 0 C3 11.55 3 23.1 3 35 C2.67 35 2.34 35 2 35 C2 31.37 2 27.74 2 24 C1.34 24 0.68 24 0 24 C0 25.98 0 27.96 0 30 C-0.33 30 -0.66 30 -1 30 C-1.02909769 25.93751511 -1.04683174 21.87505714 -1.0625 17.8125 C-1.07087891 16.66201172 -1.07925781 15.51152344 -1.08789062 14.32617188 C-1.09111328 13.21435547 -1.09433594 12.10253906 -1.09765625 10.95703125 C-1.10289307 9.93585205 -1.10812988 8.91467285 -1.11352539 7.86254883 C-1.00519467 5.13098384 -0.61706868 2.65830626 0 0 Z " fill="#1A0700" transform="translate(366,190)"/>
<path d="M0 0 C2.44074254 2.06174525 4.65975307 4.30492417 6.88671875 6.59375 C4.38979429 5.60034995 1.90341005 4.60105578 -0.55859375 3.5234375 C-10.01565021 -0.19872758 -19.12893278 0.21777035 -29.11328125 0.59375 C-29.11328125 -0.39625 -29.11328125 -1.38625 -29.11328125 -2.40625 C-20.39706926 -4.29083638 -7.76098071 -5.16442339 0 0 Z " fill="#1A0600" transform="translate(783.11328125,238.40625)"/>
<path d="M0 0 C0.66 1.32 1.32 2.64 2 4 C-0.42526722 6.51212252 -2.86712007 9.00746398 -5.3125 11.5 C-6.00279297 12.21542969 -6.69308594 12.93085937 -7.40429688 13.66796875 C-8.40493164 14.68310547 -8.40493164 14.68310547 -9.42578125 15.71875 C-10.34484253 16.66137695 -10.34484253 16.66137695 -11.2824707 17.62304688 C-13 19 -13 19 -16 19 C-18.18777466 20.9375006 -18.18777466 20.9375006 -20 23 C-20.66 22.67 -21.32 22.34 -22 22 C-14.74 14.74 -7.48 7.48 0 0 Z " fill="#170701" transform="translate(917,949)"/>
<path d="M0 0 C0.99 0.33 1.98 0.66 3 1 C3 8.92 3 16.84 3 25 C1.02 25.99 1.02 25.99 -1 27 C-1.02932572 23.81251971 -1.04690739 20.62507472 -1.0625 17.4375 C-1.07087891 16.54224609 -1.07925781 15.64699219 -1.08789062 14.72460938 C-1.10629571 9.70002057 -0.86266398 4.95182709 0 0 Z " fill="#120300" transform="translate(234,633)"/>
<path d="M0 0 C0.99 0.33 1.98 0.66 3 1 C-5.56199436 9.52253817 -15.57000316 17.86282113 -28 19 C-22.81011963 14.48150046 -16.8432037 11.39521343 -10.86132812 8.06640625 C-6.74546401 5.73569731 -3.11019084 3.65296652 0 0 Z " fill="#190300" transform="translate(814,317)"/>
<path d="M0 0 C1.11503906 0.00966797 2.23007812 0.01933594 3.37890625 0.02929688 C5.11720703 0.06700195 5.11720703 0.06700195 6.890625 0.10546875 C8.65212891 0.12577148 8.65212891 0.12577148 10.44921875 0.14648438 C13.34681798 0.18182095 16.24348927 0.23115896 19.140625 0.29296875 C19.140625 0.62296875 19.140625 0.95296875 19.140625 1.29296875 C23.430625 1.95296875 27.720625 2.61296875 32.140625 3.29296875 C32.140625 3.62296875 32.140625 3.95296875 32.140625 4.29296875 C18.280625 3.96296875 4.420625 3.63296875 -9.859375 3.29296875 C-5.6262624 0.1181343 -4.95348812 -0.0758187 0 0 Z " fill="#8FB017" transform="translate(458.859375,173.70703125)"/>
<path d="M0 0 C13.45822516 4.85378612 31.02691683 18.04037524 39 30 C35.44059993 28.48034746 33.14091653 26.37 30.375 23.6875 C25.40388783 19.08536376 20.17779085 15.02820592 14.6875 11.0625 C13.9229248 10.50715576 13.15834961 9.95181152 12.37060547 9.37963867 C8.37389903 6.52690755 4.46930622 4.03925419 0 2 C0 1.34 0 0.68 0 0 Z " fill="#395C06" transform="translate(525,244)"/>
<path d="M0 0 C3.36504328 0.75056335 6.73013826 0.75781656 10.1628418 0.8371582 C10.91184753 0.8579393 11.66085327 0.8787204 12.43255615 0.90013123 C14.81651967 0.96532283 17.20058992 1.02436979 19.5847168 1.08325195 C21.20451934 1.12646611 22.82431123 1.17008132 24.4440918 1.21411133 C28.40752512 1.32097291 32.3710654 1.42232529 36.3347168 1.52075195 C36.3347168 1.85075195 36.3347168 2.18075195 36.3347168 2.52075195 C11.0897168 3.01575195 11.0897168 3.01575195 -14.6652832 3.52075195 C-11.45463562 0.31010437 -10.96346809 0.1019634 -6.7277832 -0.22924805 C-5.87313477 -0.3065918 -5.01848633 -0.38393555 -4.13793945 -0.46362305 C-1.6652832 -0.47924805 -1.6652832 -0.47924805 0 0 Z " fill="#120200" transform="translate(452.665283203125,147.479248046875)"/>
<path d="M0 0 C0.66 0.33 1.32 0.66 2 1 C1.67 3.64 1.34 6.28 1 9 C0.34 9 -0.32 9 -1 9 C-1.13277344 9.69867188 -1.26554688 10.39734375 -1.40234375 11.1171875 C-1.57894531 12.02726562 -1.75554688 12.93734375 -1.9375 13.875 C-2.11152344 14.77992188 -2.28554688 15.68484375 -2.46484375 16.6171875 C-3 19 -3 19 -4 21 C-4.04022391 23.3329866 -4.04320247 25.66706666 -4 28 C-5.32 28 -6.64 28 -8 28 C-7.37869771 21.69071903 -5.50010374 16.03792431 -3.4375 10.0625 C-2.9434668 8.6074707 -2.9434668 8.6074707 -2.43945312 7.12304688 C-1.6317552 4.74677616 -0.81849052 2.37257031 0 0 Z " fill="#C00D04" transform="translate(706,439)"/>
<path d="M0 0 C2.89215541 1.31848841 5.04619975 2.76401818 7.35546875 4.94140625 C7.97381592 5.52092041 8.59216309 6.10043457 9.22924805 6.69750977 C9.87547119 7.31295654 10.52169434 7.92840332 11.1875 8.5625 C11.85370361 9.19148193 12.51990723 9.82046387 13.20629883 10.46850586 C27.68690361 24.18669617 27.68690361 24.18669617 32 30 C31.67 30.66 31.34 31.32 31 32 C27.48482946 28.58098914 24.07977631 25.14252516 20.9375 21.375 C17.46769531 17.3414513 13.64392676 13.74103769 9.75 10.125 C9.13503662 9.55313965 8.52007324 8.9812793 7.88647461 8.39208984 C5.31857065 6.03056366 2.91487801 3.94325201 0 2 C0 1.34 0 0.68 0 0 Z " fill="#ABC930" transform="translate(521,265)"/>
<path d="M0 0 C4.52720835 0.47822623 6.41660558 1.97117918 9.5 5.25 C10.28117188 6.06855469 11.06234375 6.88710937 11.8671875 7.73046875 C12.57101562 8.47941406 13.27484375 9.22835937 14 10 C14.86625 10.845625 15.7325 11.69125 16.625 12.5625 C19.89395575 15.9174809 22.94429379 19.45115388 26 23 C25.34 23.66 24.68 24.32 24 25 C22.32722165 23.21371169 20.66175557 21.4214925 19 19.625 C18.52304687 19.11710937 18.04609375 18.60921875 17.5546875 18.0859375 C14 14.2265625 14 14.2265625 14 12 C13.34 12 12.68 12 12 12 C10.81919103 10.85292843 9.64433457 9.69877874 8.5078125 8.5078125 C6.25749394 6.25749394 3.80600425 4.26168368 1.35546875 2.234375 C0.90816406 1.82703125 0.46085938 1.4196875 0 1 C0 0.67 0 0.34 0 0 Z " fill="#2D170A" transform="translate(599,195)"/>
<path d="M0 0 C4.43852357 0.27726842 8.87550967 0.57426317 13.3125 0.875 C14.57513672 0.95363281 15.83777344 1.03226563 17.13867188 1.11328125 C18.34716797 1.19707031 19.55566406 1.28085938 20.80078125 1.3671875 C21.91622314 1.44050293 23.03166504 1.51381836 24.1809082 1.58935547 C27 2 27 2 30 4 C20.04974625 5.41872597 10.86096749 4.4137169 1 3 C0.67 2.01 0.34 1.02 0 0 Z " fill="#140300" transform="translate(691,1048)"/>
<path d="M0 0 C0.66 0 1.32 0 2 0 C3.69724014 4.98298553 1.48275673 8.17772908 -0.6875 12.6875 C-1.04005859 13.47189453 -1.39261719 14.25628906 -1.75585938 15.06445312 C-2.28469727 16.18303711 -2.28469727 16.18303711 -2.82421875 17.32421875 C-3.14479248 18.00572998 -3.46536621 18.68724121 -3.7956543 19.3894043 C-5.33441297 21.44721719 -6.51000411 21.63897506 -9 22 C-7.45173401 17.04242102 -5.48219062 12.36189599 -3.375 7.625 C-2.88773438 6.52091797 -2.88773438 6.52091797 -2.390625 5.39453125 C-1.59615497 3.59529031 -0.79841229 1.79749504 0 0 Z " fill="#1A0500" transform="translate(1000,821)"/>
<path d="M0 0 C0.33 0.66 0.66 1.32 1 2 C1.66 2.33 2.32 2.66 3 3 C-0.60036137 4.03459685 -4.20578768 5.0502864 -7.8125 6.0625 C-9.34874023 6.50432617 -9.34874023 6.50432617 -10.91601562 6.95507812 C-11.89892578 7.22900391 -12.88183594 7.50292969 -13.89453125 7.78515625 C-14.80050049 8.04176025 -15.70646973 8.29836426 -16.63989258 8.56274414 C-19 9 -19 9 -22 8 C-22 7.34 -22 6.68 -22 6 C-14.74 4.02 -7.48 2.04 0 0 Z " fill="#170601" transform="translate(422,374)"/>
<path d="M0 0 C0 0.66 0 1.32 0 2 C-3.09329429 3.56423027 -6.201006 5.09733507 -9.3125 6.625 C-10.19357422 7.07101562 -11.07464844 7.51703125 -11.98242188 7.9765625 C-13.25375977 8.5953125 -13.25375977 8.5953125 -14.55078125 9.2265625 C-15.33106689 9.61408691 -16.11135254 10.00161133 -16.9152832 10.40087891 C-17.60323975 10.59858887 -18.29119629 10.79629883 -19 11 C-19.99 10.34 -20.98 9.68 -22 9 C-18.90454428 7.29614072 -15.79740166 5.61482602 -12.6875 3.9375 C-11.80642578 3.45216797 -10.92535156 2.96683594 -10.01757812 2.46679688 C-9.17001953 2.01240234 -8.32246094 1.55800781 -7.44921875 1.08984375 C-6.66893311 0.66566162 -5.88864746 0.24147949 -5.0847168 -0.19555664 C-3 -1 -3 -1 0 0 Z " fill="#1B0600" transform="translate(827,1023)"/>
<path d="M0 0 C2 1 2 1 2.88549805 3.08544922 C3.82872116 6.01262087 4.76871511 8.94004386 5.6875 11.875 C6.02072266 12.89464844 6.35394531 13.91429687 6.69726562 14.96484375 C7.00728516 15.94324219 7.31730469 16.92164063 7.63671875 17.9296875 C7.92248779 18.82929199 8.20825684 19.72889648 8.50268555 20.65576172 C9 23 9 23 8 26 C7.74605469 25.31292969 7.49210937 24.62585938 7.23046875 23.91796875 C6.88628906 23.01691406 6.54210937 22.11585938 6.1875 21.1875 C5.85105469 20.29417969 5.51460938 19.40085937 5.16796875 18.48046875 C4.18402882 15.9960588 4.18402882 15.9960588 2.46875 14.5625 C0.30169995 12.25712761 0.00184223 9.86530131 -0.6875 6.8125 C-0.93886719 5.72582031 -1.19023437 4.63914062 -1.44921875 3.51953125 C-1.63097656 2.68808594 -1.81273437 1.85664062 -2 1 C-1.34 0.67 -0.68 0.34 0 0 Z " fill="#1B0701" transform="translate(253,763)"/>
<path d="M0 0 C2.375 0.25 2.375 0.25 5 1 C6.3125 3.0625 6.3125 3.0625 7 5 C5.0269375 6.9730625 1.45450809 6.7187066 -1.25 7.0625 C-1.91902344 7.15337891 -2.58804687 7.24425781 -3.27734375 7.33789062 C-6.8749612 7.80791334 -10.37207529 8.10546293 -14 8 C-12.94921875 6.54296875 -12.94921875 6.54296875 -11 5 C-7.64453125 4.48828125 -7.64453125 4.48828125 -3.8125 4.3125 C-1.90404297 4.21388672 -1.90404297 4.21388672 0.04296875 4.11328125 C1.01878906 4.07589844 1.99460937 4.03851563 3 4 C3 3.34 3 2.68 3 2 C2.01 1.67 1.02 1.34 0 1 C0 0.67 0 0.34 0 0 Z " fill="#160300" transform="translate(445,367)"/>
<path d="M0 0 C0 0.66 0 1.32 0 2 C-7.11131264 2.1391722 -14.05382537 1.73492545 -21.125 1 C-22.55972656 0.85691406 -22.55972656 0.85691406 -24.0234375 0.7109375 C-26.34943754 0.4783375 -28.67488959 0.24130321 -31 0 C-31 -0.33 -31 -0.66 -31 -1 C-20.27790555 -1.96057505 -10.63554628 -2.03946292 0 0 Z " fill="#150200" transform="translate(842,373)"/>
<path d="M0 0 C3.08476111 1.32460868 4.68095907 2.52651045 6.5078125 5.3359375 C6.93707031 5.98820313 7.36632812 6.64046875 7.80859375 7.3125 C8.24300781 7.993125 8.67742188 8.67375 9.125 9.375 C9.56714844 10.04789063 10.00929688 10.72078125 10.46484375 11.4140625 C14.82240085 18.10179363 14.82240085 18.10179363 16 21 C15.67 21.99 15.34 22.98 15 24 C14.5875 23.33355469 14.175 22.66710937 13.75 21.98046875 C9.9114295 15.85417878 5.86443091 9.98198927 1.50390625 4.21484375 C0 2 0 2 0 0 Z " fill="#24120A" transform="translate(625,221)"/>
<path d="M0 0 C6.25107435 0.42954941 12.04204521 1.01401507 18 3 C18 3.33 18 3.66 18 4 C14.04 3.67 10.08 3.34 6 3 C9.63 4.98 13.26 6.96 17 9 C16.01 9.495 16.01 9.495 15 10 C12.38838269 8.75874818 9.89498214 7.4689476 7.375 6.0625 C6.66859375 5.67642578 5.9621875 5.29035156 5.234375 4.89257812 C3.48566349 3.93551304 1.74231568 2.96865969 0 2 C0 1.34 0 0.68 0 0 Z " fill="#365B04" transform="translate(450,217)"/>
<path d="M0 0 C0.33 0.66 0.66 1.32 1 2 C-0.15562763 4.21569949 -1.35136769 6.27238624 -2.6875 8.375 C-3.04005859 8.9525 -3.39261719 9.53 -3.75585938 10.125 C-5.85889238 13.49292854 -8.0733472 16.31778547 -11 19 C-12 16 -12 16 -10.671875 13.1171875 C-10.03765625 12.04726563 -9.4034375 10.97734375 -8.75 9.875 C-8.12609375 8.79992187 -7.5021875 7.72484375 -6.859375 6.6171875 C-5 4 -5 4 -2 3 C-1.34 2.01 -0.68 1.02 0 0 Z " fill="#190500" transform="translate(686,300)"/>
<path d="M0 0 C0.99 0.33 1.98 0.66 3 1 C0.59051186 3.29931452 -1.82878201 5.58804548 -4.25 7.875 C-4.93191406 8.52597656 -5.61382812 9.17695313 -6.31640625 9.84765625 C-6.98027344 10.47285156 -7.64414062 11.09804688 -8.328125 11.7421875 C-8.9355957 12.3182373 -9.54306641 12.89428711 -10.16894531 13.48779297 C-12.02387642 15.01971874 -13.81257145 16.01607943 -16 17 C-13.150359 10.29496236 -6.03752159 3.90663162 0 0 Z " fill="#29190B" transform="translate(325,423)"/>
<path d="M0 0 C1.06734375 0.17789062 1.06734375 0.17789062 2.15625 0.359375 C6.61787288 1.20841517 9.15508262 2.30403599 12 5.875 C3.92614962 4.49969483 -4.03399365 2.77468355 -12 0.875 C-8.09163053 -1.91378446 -4.40530735 -0.87786922 0 0 Z " fill="#110200" transform="translate(856,375.125)"/>
<path d="M0 0 C0.33 0 0.66 0 1 0 C1.62529897 5.0247239 2.13012092 9.92528427 2 15 C1.34 15 0.68 15 0 15 C-0.33 16.32 -0.66 17.64 -1 19 C-1.97352262 13.40224495 -2.61204357 7.67437001 -2 2 C-1.34 1.34 -0.68 0.68 0 0 Z " fill="#200A01" transform="translate(236,664)"/>
<path d="M0 0 C0.99 0.33 1.98 0.66 3 1 C1.71937515 2.7074998 0.38232443 4.37373596 -1 6 C-1.66 6 -2.32 6 -3 6 C-3.185625 6.556875 -3.37125 7.11375 -3.5625 7.6875 C-5.66360714 11.06754192 -8.70665994 12.85140381 -12 15 C-12 12 -12 12 -9.375 9.08203125 C-8.25750594 7.98449244 -7.13214357 6.89492105 -6 5.8125 C-5.42765625 5.25369141 -4.8553125 4.69488281 -4.265625 4.11914062 C-2.85037212 2.73926907 -1.42602845 1.36873266 0 0 Z " fill="#FA231B" transform="translate(460,544)"/>
<path d="M0 0 C3.22914752 -0.02917228 6.45826083 -0.04685663 9.6875 -0.0625 C10.59951172 -0.07087891 11.51152344 -0.07925781 12.45117188 -0.08789062 C13.33740234 -0.09111328 14.22363281 -0.09433594 15.13671875 -0.09765625 C15.94842529 -0.10289307 16.76013184 -0.10812988 17.59643555 -0.11352539 C20.14864673 0.0070209 22.51026137 0.440051 25 1 C21.82403161 2.88372214 19.68030919 3.20001885 16.015625 2.9765625 C15.08105469 2.925 14.14648438 2.8734375 13.18359375 2.8203125 C12.21550781 2.75585938 11.24742187 2.69140625 10.25 2.625 C9.26644531 2.56828125 8.28289063 2.5115625 7.26953125 2.453125 C4.845589 2.31192448 2.42272541 2.16054205 0 2 C0 1.34 0 0.68 0 0 Z " fill="#170100" transform="translate(631,1040)"/>
<path d="M0 0 C4.04103364 1.64562575 6.93301573 4.49232891 10.0625 7.4375 C10.59166016 7.92798828 11.12082031 8.41847656 11.66601562 8.92382812 C14.15568251 11.23856233 16.62085643 13.57146245 19 16 C18.01 16.33 17.02 16.66 16 17 C13.80859375 15.70703125 13.80859375 15.70703125 11.4375 13.8125 C10.65246094 13.20019531 9.86742187 12.58789062 9.05859375 11.95703125 C7.00883754 10.00840153 6.14677274 8.54108674 5 6 C4.15957958 4.88962636 3.28520788 3.80392491 2.375 2.75 C1.199375 1.38875 1.199375 1.38875 0 0 Z " fill="#160400" transform="translate(427,350)"/>
<path d="M0 0 C3.30118794 0.5805321 4.91134076 1.54868099 7.234375 3.94140625 C8.09482422 4.81635742 8.09482422 4.81635742 8.97265625 5.70898438 C9.55917969 6.32064453 10.14570312 6.93230469 10.75 7.5625 C11.35199219 8.17802734 11.95398438 8.79355469 12.57421875 9.42773438 C14.05634381 10.94514813 15.5290967 12.47170596 17 14 C16.67 14.99 16.34 15.98 16 17 C13.32932797 14.3581833 10.66414667 11.7108958 8 9.0625 C7.236875 8.30775391 6.47375 7.55300781 5.6875 6.77539062 C4.965625 6.05673828 4.24375 5.33808594 3.5 4.59765625 C2.8296875 3.93258057 2.159375 3.26750488 1.46875 2.58227539 C0 1 0 1 0 0 Z " fill="#331108" transform="translate(956,428)"/>
<path d="M0 0 C0.33 0 0.66 0 1 0 C1.88902912 6.04819812 2.12348383 11.89223486 2.0625 18 C2.05798828 18.87011719 2.05347656 19.74023438 2.04882812 20.63671875 C2.0371736 22.75784293 2.01924357 24.8789311 2 27 C1.67 27 1.34 27 1 27 C1 23.37 1 19.74 1 16 C0.34 16 -0.32 16 -1 16 C-1 17.98 -1 19.96 -1 22 C-1.33 22 -1.66 22 -2 22 C-2.125 14.25 -2.125 14.25 -1 12 C-0.77141886 9.9625237 -0.58975722 7.91959697 -0.4375 5.875 C-0.35371094 4.77929688 -0.26992188 3.68359375 -0.18359375 2.5546875 C-0.12300781 1.71164063 -0.06242187 0.86859375 0 0 Z " fill="#060000" transform="translate(367,198)"/>
<path d="M0 0 C0.33 0.66 0.66 1.32 1 2 C-1.91442159 2.55769796 -4.83025667 3.0965802 -7.75 3.625 C-8.575 3.78484375 -9.4 3.9446875 -10.25 4.109375 C-11.04921875 4.25117187 -11.8484375 4.39296875 -12.671875 4.5390625 C-13.4050293 4.67521973 -14.13818359 4.81137695 -14.89355469 4.95166016 C-17.43917336 5.01007839 -18.83647454 4.28699835 -21 3 C-18.81462633 2.49078672 -16.62657569 1.99305563 -14.4375 1.5 C-12.61025391 1.08234375 -12.61025391 1.08234375 -10.74609375 0.65625 C-7.07777293 0.01362446 -3.71497397 -0.11474823 0 0 Z " fill="#180300" transform="translate(627,1041)"/>
<path d="M0 0 C0.33 0.99 0.66 1.98 1 3 C0.01 3.495 0.01 3.495 -1 4 C-0.67 2.68 -0.34 1.36 0 0 Z M-2 4 C-0.27748246 8.0845326 -1.92719437 11.36973696 -3.4375 15.25 C-3.68048828 15.8996875 -3.92347656 16.549375 -4.17382812 17.21875 C-4.77285994 18.81616817 -5.38514321 20.40860594 -6 22 C-6.33 22 -6.66 22 -7 22 C-6.979375 21.236875 -6.95875 20.47375 -6.9375 19.6875 C-6.87057159 16.89814214 -6.87057159 16.89814214 -8 14 C-6.9536765 10.512255 -5.66699261 8.43508021 -3 6 C-2.67 5.34 -2.34 4.68 -2 4 Z " fill="#1B0701" transform="translate(259,521)"/>
<path d="M0 0 C-3.00609722 2.00406482 -5.59242695 3.03076258 -9 4.1875 C-10.051875 4.55230469 -11.10375 4.91710937 -12.1875 5.29296875 C-15 6 -15 6 -18 5 C-18 4.34 -18 3.68 -18 3 C-16.13133238 2.29546997 -14.25468584 1.61208312 -12.375 0.9375 C-11.33085937 0.55464844 -10.28671875 0.17179688 -9.2109375 -0.22265625 C-5.72829236 -1.06577837 -3.45547652 -0.82495611 0 0 Z " fill="#130400" transform="translate(419,155)"/>
<path d="M0 0 C3.99537963 1.48523895 5.27127081 3.61987154 7.25 7.3125 C7.77078125 8.25738281 8.2915625 9.20226562 8.828125 10.17578125 C10.02164268 13.05215886 10.24638294 14.92581291 10 18 C7.39465658 14.87358789 5.74149072 11.53431541 3.984375 7.8984375 C2.86869309 5.74676524 1.47477138 3.91720279 0 2 C0 1.34 0 0.68 0 0 Z " fill="#2F1A11" transform="translate(808,260)"/>
<path d="M0 0 C0.99 0 1.98 0 3 0 C3.66 4.62 4.32 9.24 5 14 C4.34 14 3.68 14 3 14 C2.67 14.99 2.34 15.98 2 17 C1.66151348 15.10507994 1.32943089 13.20901534 1 11.3125 C0.814375 10.25675781 0.62875 9.20101562 0.4375 8.11328125 C0.04931926 5.35095938 -0.08259976 2.78257957 0 0 Z " fill="#190601" transform="translate(1034,578)"/>
<path d="M0 0 C0.33 0 0.66 0 1 0 C1.18451025 12.66970387 1.18451025 12.66970387 0 18 C-2.23495428 15.76504572 -3.0024791 13.97585464 -4.1875 11.0625 C-4.73470703 9.74958984 -4.73470703 9.74958984 -5.29296875 8.41015625 C-6 6 -6 6 -5 3 C-4.01 4.98 -3.02 6.96 -2 9 C-1.67 9 -1.34 9 -1 9 C-0.67 6.03 -0.34 3.06 0 0 Z " fill="#76A31D" transform="translate(635,370)"/>
<path d="M0 0 C0 3 0 3 -1.86328125 5.26171875 C-2.67152344 6.06222656 -3.47976563 6.86273438 -4.3125 7.6875 C-5.11300781 8.49574219 -5.91351562 9.30398438 -6.73828125 10.13671875 C-9 12 -9 12 -12 12 C-10.47940093 8.11985064 -8.13921469 6.26093438 -4.875 3.75 C-3.96492187 3.04359375 -3.05484375 2.3371875 -2.1171875 1.609375 C-1.41851563 1.07828125 -0.71984375 0.5471875 0 0 Z " fill="#241007" transform="translate(724,254)"/>
<path d="M0 0 C0.66 0.33 1.32 0.66 2 1 C-1.00331665 4.86140712 -3.44198125 7.94889156 -8 10 C-10.8125 10.1875 -10.8125 10.1875 -13 10 C-9.28249221 5.79759989 -4.68339021 3.00217321 0 0 Z " fill="#1B0500" transform="translate(859,1000)"/>
<path d="M0 0 C3.58375776 3.58375776 3.92387761 9.13500141 4.125 14.0625 C4.08375 14.701875 4.0425 15.34125 4 16 C3.67 14.68 3.34 13.36 3 12 C2.01 12.33 1.02 12.66 0 13 C-1.28571429 4.57142857 -1.28571429 4.57142857 0 0 Z " fill="#1A0701" transform="translate(245,730)"/>
<path d="M0 0 C0 0.66 0 1.32 0 2 C-6.83085645 4.44166784 -12.7515055 5.41640288 -20 5 C-20 4.67 -20 4.34 -20 4 C-17.04222581 3.33076624 -14.08383702 2.66450361 -11.125 2 C-10.28324219 1.80921875 -9.44148437 1.6184375 -8.57421875 1.421875 C-7.76855469 1.24140625 -6.96289062 1.0609375 -6.1328125 0.875 C-5.38918457 0.70742188 -4.64555664 0.53984375 -3.87939453 0.3671875 C-2 0 -2 0 0 0 Z " fill="#CF2212" transform="translate(714,491)"/>
<path d="M0 0 C4.8603687 1.5194373 8.06079356 4.32918654 11.8125 7.625 C12.7087207 8.3984375 12.7087207 8.3984375 13.62304688 9.1875 C15.08712409 10.45246272 16.54427155 11.72543834 18 13 C13.76716463 13 11.59230816 10.60647622 8.4375 8.0625 C4.41837483 4.72938699 4.41837483 4.72938699 0 2 C0 1.34 0 0.68 0 0 Z " fill="#AAC830" transform="translate(503,251)"/>
<path d="M0 0 C0 0.66 0 1.32 0 2 C-0.66 2 -1.32 2 -2 2 C-2.226875 2.515625 -2.45375 3.03125 -2.6875 3.5625 C-3.84286721 5.70818196 -5.06455738 7.67771051 -6.4375 9.6875 C-6.84871094 10.28949219 -7.25992187 10.89148438 -7.68359375 11.51171875 C-9 13 -9 13 -12 14 C-10.63350805 9.99304703 -8.82896473 7.3232826 -6 4.1875 C-4.948125 3.00220703 -4.948125 3.00220703 -3.875 1.79296875 C-2 0 -2 0 0 0 Z " fill="#2C150B" transform="translate(306,444)"/>
<path d="M0 0 C0.66 0.99 1.32 1.98 2 3 C-3.38027025 4.19088986 -8.45291384 5.2919519 -14 5 C-12 2 -12 2 -9.1796875 1.26953125 C-8.08914063 1.11871094 -6.99859375 0.96789062 -5.875 0.8125 C-4.77929688 0.65394531 -3.68359375 0.49539063 -2.5546875 0.33203125 C-1.71164062 0.22246094 -0.86859375 0.11289062 0 0 Z " fill="#100300" transform="translate(755,374)"/>
<path d="M0 0 C2.29633824 3.44450737 2.54016485 5.93812283 3 10 C2.34 10 1.68 10 1 10 C0.67 11.32 0.34 12.64 0 14 C-0.66 9.71 -1.32 5.42 -2 1 C-1.34 0.67 -0.68 0.34 0 0 Z " fill="#0F0500" transform="translate(1032,559)"/>
<path d="M0 0 C4.77207556 0.70697416 7.71816822 3.58998504 10.875 7.0625 C11.431875 8.0215625 11.431875 8.0215625 12 9 C11.67 9.99 11.34 10.98 11 12 C10.62488281 11.55269531 10.24976563 11.10539062 9.86328125 10.64453125 C6.7158767 6.92631278 3.4956317 3.392819 0 0 Z " fill="#2C180E" transform="translate(795,247)"/>
<path d="M0 0 C6.26418531 1.48362284 10.91513505 5.24162156 16 9 C15.01 9.33 14.02 9.66 13 10 C10.1171875 8.41796875 10.1171875 8.41796875 6.875 6.1875 C5.79992187 5.45917969 4.72484375 4.73085938 3.6171875 3.98046875 C1 2 1 2 0 0 Z " fill="#31170E" transform="translate(420,1002)"/>
<path d="M0 0 C5.24972347 4.10037573 9.20962911 8.52964787 13 14 C9.39438086 12.4700928 7.0140801 10.31303068 4.25 7.5625 C3.45078125 6.78003906 2.6515625 5.99757813 1.828125 5.19140625 C0 3 0 3 0 0 Z " fill="#381D10" transform="translate(364,953)"/>
<path d="M0 0 C0.33 0 0.66 0 1 0 C1.33 2.31 1.66 4.62 2 7 C2.33 7 2.66 7 3 7 C2.67 11.29 2.34 15.58 2 20 C1.67 20 1.34 20 1 20 C-0.05619003 15.71702469 -0.11702092 11.57014354 -0.0625 7.1875 C-0.05798828 6.49462891 -0.05347656 5.80175781 -0.04882812 5.08789062 C-0.03713156 3.39188932 -0.01919924 1.69593297 0 0 Z " fill="#140300" transform="translate(1038,606)"/>
<path d="M0 0 C0.66 0 1.32 0 2 0 C2.67812114 1.8708878 3.3419946 3.74694293 4 5.625 C4.37125 6.66914062 4.7425 7.71328125 5.125 8.7890625 C6.00483564 12.01774506 6.15988262 14.67244294 6 18 C3.7630616 14.64459241 2.95020397 11.75369877 1.875 7.875 C1.52179688 6.61429688 1.16859375 5.35359375 0.8046875 4.0546875 C0 1 0 1 0 0 Z " fill="#2D180C" transform="translate(1023,532)"/>
<path d="M0 0 C0.66 0.66 1.32 1.32 2 2 C0.73965413 3.50882261 -0.53363649 5.00684044 -1.8125 6.5 C-2.52019531 7.3353125 -3.22789062 8.170625 -3.95703125 9.03125 C-6 11 -6 11 -9 11 C-7.59155282 7.78475695 -5.89655214 5.67816132 -3.375 3.25 C-2.74335937 2.63640625 -2.11171875 2.0228125 -1.4609375 1.390625 C-0.73777344 0.70226562 -0.73777344 0.70226562 0 0 Z " fill="#1A0400" transform="translate(752,363)"/>
<path d="M0 0 C-3.20490963 2.59037598 -6.55350453 4.37943156 -10.25 6.1875 C-11.86648438 6.98220703 -11.86648438 6.98220703 -13.515625 7.79296875 C-14.33546875 8.19128906 -15.1553125 8.58960938 -16 9 C-14.57628203 5.43689834 -13.03428998 4.0724537 -9.6875 2.25 C-8.92824219 1.82203125 -8.16898437 1.3940625 -7.38671875 0.953125 C-4.75125256 -0.09933613 -2.81159711 -0.17914601 0 0 Z " fill="#2F1B10" transform="translate(398,161)"/>
<path d="M0 0 C1 4 1 4 0.00390625 6.359375 C-0.47175781 7.14828125 -0.94742188 7.9371875 -1.4375 8.75 C-1.91058594 9.54921875 -2.38367188 10.3484375 -2.87109375 11.171875 C-3.24363281 11.77515625 -3.61617187 12.3784375 -4 13 C-4.66 11.68 -5.32 10.36 -6 9 C-4.02 6.03 -2.04 3.06 0 0 Z " fill="#1B0500" transform="translate(967,884)"/>
<path d="M0 0 C2.67901932 2.31881505 3.66204403 4.31814468 4.6875 7.6875 C4.93886719 8.49574219 5.19023437 9.30398438 5.44921875 10.13671875 C5.63097656 10.75160156 5.81273437 11.36648438 6 12 C5.34 12 4.68 12 4 12 C1.57113186 8.35669779 -0.4504864 5.09514308 -2 1 C-1.34 0.67 -0.68 0.34 0 0 Z " fill="#160300" transform="translate(266,801)"/>
<path d="M0 0 C0.66 0.33 1.32 0.66 2 1 C1.67 3.64 1.34 6.28 1 9 C0.34 9 -0.32 9 -1 9 C-1.66 10.32 -2.32 11.64 -3 13 C-4 11 -4 11 -3.22265625 8.3984375 C-2.83980469 7.40070313 -2.45695313 6.40296875 -2.0625 5.375 C-1.68222656 4.37210937 -1.30195312 3.36921875 -0.91015625 2.3359375 C-0.60980469 1.56507813 -0.30945313 0.79421875 0 0 Z " fill="#B00F06" transform="translate(706,439)"/>
<path d="M0 0 C0.66 0.33 1.32 0.66 2 1 C1.21718695 2.33855056 0.42348123 3.67073644 -0.375 5 C-0.81585937 5.7425 -1.25671875 6.485 -1.7109375 7.25 C-2.34902344 8.11625 -2.34902344 8.11625 -3 9 C-3.66 9 -4.32 9 -5 9 C-5.66 10.32 -6.32 11.64 -7 13 C-7.66 12.67 -8.32 12.34 -9 12 C-7.68858144 10.18671738 -6.37583526 8.37439486 -5.0625 6.5625 C-3.96615234 5.04849609 -3.96615234 5.04849609 -2.84765625 3.50390625 C-1 1 -1 1 0 0 Z " fill="#2B1306" transform="translate(696,283)"/>
<path d="M0 0 C2 0 2 0 3.6875 1.625 C4.450625 2.40875 5.21375 3.1925 6 4 C8.30560578 6.03289972 10.64951816 8.01925688 13 10 C12.01 10.495 12.01 10.495 11 11 C9.34772462 9.73755365 7.70336049 8.46474765 6.0625 7.1875 C5.14597656 6.47980469 4.22945313 5.77210938 3.28515625 5.04296875 C1 3 1 3 0 0 Z " fill="#311609" transform="translate(389,977)"/>
<path d="M0 0 C0.66 0 1.32 0 2 0 C2 0.66 2 1.32 2 2 C2.99 2 3.98 2 5 2 C6.35439668 4.70879335 6.06501451 7.00933268 6 10 C2.46413986 6.82679218 0.41421969 4.83256305 0 0 Z " fill="#2D1006" transform="translate(298,869)"/>
<path d="M0 0 C2.91375388 1.45687694 3.35777779 3.50753903 4.6875 6.4375 C5.14511719 7.42621094 5.60273438 8.41492188 6.07421875 9.43359375 C6.37972656 10.28050781 6.68523437 11.12742187 7 12 C6.67 12.66 6.34 13.32 6 14 C4.02 10.535 4.02 10.535 2 7 C1.34 7 0.68 7 0 7 C-0.66 5.02 -1.32 3.04 -2 1 C-1.34 0.67 -0.68 0.34 0 0 Z " fill="#1A0701" transform="translate(273,817)"/>
<path d="M0 0 C0.66 0 1.32 0 2 0 C1.5547115 5.27315333 0.91626837 10.01770224 -1 15 C-1.33 15 -1.66 15 -2 15 C-2.22577402 9.5814234 -1.46670113 5.22512279 0 0 Z " fill="#2D1109" transform="translate(243,563)"/>
<path d="M0 0 C0.99 0 1.98 0 3 0 C4.859375 2.3359375 4.859375 2.3359375 6.75 5.375 C7.38421875 6.37273437 8.0184375 7.37046875 8.671875 8.3984375 C9.11015625 9.25695312 9.5484375 10.11546875 10 11 C9.67 11.66 9.34 12.32 9 13 C7.49710267 11.02297434 5.99758658 9.0435417 4.5 7.0625 C4.07074219 6.49853516 3.64148438 5.93457031 3.19921875 5.35351562 C0 1.11328125 0 1.11328125 0 0 Z " fill="#29160A" transform="translate(982,456)"/>
<path d="M0 0 C4.97093824 0.41153737 9.44508386 0.79600832 14 3 C13.67 3.99 13.34 4.98 13 6 C8.71 4.35 4.42 2.7 0 1 C0 0.67 0 0.34 0 0 Z " fill="#170401" transform="translate(884,386)"/>
<path d="M0 0 C0.99 0.33 1.98 0.66 3 1 C0.71296692 2.19725883 -1.57884862 3.38297018 -3.875 4.5625 C-4.52597656 4.90474609 -5.17695313 5.24699219 -5.84765625 5.59960938 C-7.53529857 6.46082891 -9.26579593 7.23686703 -11 8 C-11.66 7.67 -12.32 7.34 -13 7 C-9.60406229 3.44235097 -6.83512889 1.86784365 -2 1 C-1.34 0.67 -0.68 0.34 0 0 Z " fill="#150400" transform="translate(379,390)"/>
<path d="M0 0 C0.66 0 1.32 0 2 0 C2.66 2.97 3.32 5.94 4 9 C3.34 9 2.68 9 2 9 C1.67 9.66 1.34 10.32 1 11 C0.63743142 9.5437328 0.28520207 8.08488815 -0.0625 6.625 C-0.35833984 5.40683594 -0.35833984 5.40683594 -0.66015625 4.1640625 C-1 2 -1 2 0 0 Z " fill="#180400" transform="translate(248,747)"/>
<path d="M0 0 C3.03855409 2.02570273 4.75150625 3.5426327 6 7 C6.38749213 9.32495277 6.72982839 11.65851268 7 14 C4.44736912 11.725306 3.15855185 9.56797307 1.8125 6.4375 C1.46832031 5.65246094 1.12414062 4.86742187 0.76953125 4.05859375 C0 2 0 2 0 0 Z " fill="#170603" transform="translate(1004,491)"/>
<path d="M0 0 C0.66 0.33 1.32 0.66 2 1 C-0.97 5.29 -3.94 9.58 -7 14 C-7.33 13.01 -7.66 12.02 -8 11 C-6.34765625 8.30078125 -6.34765625 8.30078125 -4.0625 5.3125 C-3.31097656 4.31863281 -2.55945313 3.32476562 -1.78515625 2.30078125 C-1.19605469 1.54152344 -0.60695313 0.78226562 0 0 Z " fill="#281108" transform="translate(292,459)"/>
<path d="M0 0 C0.99 0.33 1.98 0.66 3 1 C1.37982158 2.33918806 -0.24629343 3.6711969 -1.875 5 C-3.23238281 6.11375 -3.23238281 6.11375 -4.6171875 7.25 C-7 9 -7 9 -9 9 C-7.86085739 5.58257218 -6.93609692 4.87119402 -4.125 2.75 C-3.42632812 2.20859375 -2.72765625 1.6671875 -2.0078125 1.109375 C-1.34523438 0.74328125 -0.68265625 0.3771875 0 0 Z " fill="#30160F" transform="translate(344,408)"/>
<path d="M0 0 C0.66 0 1.32 0 2 0 C3.1577506 3.47325181 3.06866652 6.36067448 3 10 C2.01 10 1.02 10 0 10 C0 6.7 0 3.4 0 0 Z " fill="#120400" transform="translate(661,311)"/>
<path d="M0 0 C-3.3 0.66 -6.6 1.32 -10 2 C-10 2.33 -10 2.66 -10 3 C-12.31 2.67 -14.62 2.34 -17 2 C-16.67 1.34 -16.34 0.68 -16 0 C-13.41796875 -0.44921875 -13.41796875 -0.44921875 -10.1875 -0.6875 C-9.12917969 -0.77386719 -8.07085938 -0.86023437 -6.98046875 -0.94921875 C-4 -1 -4 -1 0 0 Z " fill="#0C0000" transform="translate(582,1050)"/>
<path d="M0 0 C1.58409994 0.11487748 3.16728963 0.24234508 4.75 0.375 C6.07257812 0.47941406 6.07257812 0.47941406 7.421875 0.5859375 C9.99066382 0.99850055 11.75841015 1.71160957 14 3 C11.98177083 2.96744792 9.96354167 2.93489583 7.9453125 2.90234375 C5.91814596 2.87350758 5.91814596 2.87350758 4 4 C1.875 3.5625 1.875 3.5625 0 3 C0 2.01 0 1.02 0 0 Z " fill="#160701" transform="translate(674,1045)"/>
<path d="M0 0 C1 2 1 2 0.375 4.3125 C-1.5567801 8.08825202 -4.17023607 11.08511804 -8 13 C-6.40956621 7.91061189 -3.2553049 4.12543357 0 0 Z " fill="#1B0600" transform="translate(942,877)"/>
<path d="M0 0 C4.28477792 2.30718811 7.72291137 4.32966073 11 8 C7.43770549 8 6.58890321 7.23890991 3.8125 5.125 C3.09707031 4.59132813 2.38164062 4.05765625 1.64453125 3.5078125 C1.10183594 3.01023437 0.55914062 2.51265625 0 2 C0 1.34 0 0.68 0 0 Z " fill="#2C1307" transform="translate(405,990)"/>
<path d="M0 0 C2.72426311 2.35277269 3.8141763 4.62496331 5 8 C4.01 8.495 4.01 8.495 3 9 C0.52121318 6.8445332 -0.57563804 5.28880515 -1 2 C-0.67 1.34 -0.34 0.68 0 0 Z " fill="#F92922" transform="translate(343,644)"/>
<path d="M0 0 C4.2742558 1.5830577 6.26531794 4.50568404 9 8 C8.01 8.33 7.02 8.66 6 9 C4.99406757 7.8803014 3.9954151 6.7540588 3 5.625 C2.443125 4.99851562 1.88625 4.37203125 1.3125 3.7265625 C0 2 0 2 0 0 Z " fill="#28130B" transform="translate(974,446)"/>
<path d="M0 0 C1.37562854 1.28965176 2.70766393 2.62689293 4 4 C4 4.66 4 5.32 4 6 C4.99 7.485 4.99 7.485 6 9 C1.7257442 7.4169423 -0.26531794 4.49431596 -3 1 C-2.01 0.67 -1.02 0.34 0 0 Z " fill="#190602" transform="translate(954,424)"/>
<path d="M0 0 C1.72357119 2.58535679 2.44735018 4.03811614 3.1875 6.9375 C3.36667969 7.60652344 3.54585938 8.27554687 3.73046875 8.96484375 C4.03268678 11.24680888 3.68756692 12.82026659 3 15 C2.34 14.67 1.68 14.34 1 14 C0.5859375 11.85546875 0.5859375 11.85546875 0.375 9.1875 C0.30023438 8.31480469 0.22546875 7.44210937 0.1484375 6.54296875 C0.02131298 4.36512507 0 2.18155077 0 0 Z " fill="#140200" transform="translate(373,251)"/>
<path d="M0 0 C3.39192363 0.59283621 5.2107757 1.76743189 7.75 4.0625 C8.67039062 4.88427734 8.67039062 4.88427734 9.609375 5.72265625 C10.29773438 6.35494141 10.29773438 6.35494141 11 7 C10.34 7.66 9.68 8.32 9 9 C7.49704815 7.69088122 5.99770689 6.37761608 4.5 5.0625 C3.6646875 4.33160156 2.829375 3.60070312 1.96875 2.84765625 C1.3190625 2.23792969 0.669375 1.62820313 0 1 C0 0.67 0 0.34 0 0 Z " fill="#2D1407" transform="translate(376,967)"/>
<path d="M0 0 C0.99 0.33 1.98 0.66 3 1 C1.625 3.5 1.625 3.5 0 6 C-0.66 6 -1.32 6 -2 6 C-2.33 7.32 -2.66 8.64 -3 10 C-3.66 10 -4.32 10 -5 10 C-3.84414715 6.08788267 -2.64465038 3.1254959 0 0 Z " fill="#FBDDDB" transform="translate(350,616)"/>
<path d="M0 0 C-1.16369126 3.49107379 -1.88973538 3.85222763 -4.9375 5.6875 C-5.64777344 6.12449219 -6.35804688 6.56148437 -7.08984375 7.01171875 C-9 8 -9 8 -11 8 C-11 7.34 -11 6.68 -11 6 C-9.1015625 4.4921875 -9.1015625 4.4921875 -6.625 2.875 C-5.81289063 2.33617187 -5.00078125 1.79734375 -4.1640625 1.2421875 C-2 0 -2 0 0 0 Z " fill="#FDDDDA" transform="translate(436,565)"/>
<path d="M0 0 C3.3 0.99 6.6 1.98 10 3 C9.01 3.66 8.02 4.32 7 5 C3.3125 4.125 3.3125 4.125 0 3 C0 2.01 0 1.02 0 0 Z " fill="#170500" transform="translate(485,1036)"/>
<path d="M0 0 C2.53833449 1.26916725 2.89400901 2.41624809 4.125 4.9375 C4.47820312 5.64777344 4.83140625 6.35804688 5.1953125 7.08984375 C6 9 6 9 6 11 C3 10 3 10 1.3125 7.1875 C0 4 0 4 0 0 Z " fill="#2E1709" transform="translate(281,837)"/>
<path d="M0 0 C0.33 0 0.66 0 1 0 C1 2.31 1 4.62 1 7 C0.34 7 -0.32 7 -1 7 C-1 8.65 -1 10.3 -1 12 C-1.33 12 -1.66 12 -2 12 C-2.05395478 10.37536158 -2.09277195 8.75021459 -2.125 7.125 C-2.14820313 6.22007812 -2.17140625 5.31515625 -2.1953125 4.3828125 C-2 2 -2 2 0 0 Z " fill="#110000" transform="translate(236,664)"/>
<path d="M0 0 C0.99 0.33 1.98 0.66 3 1 C2.67 3.97 2.34 6.94 2 10 C1.01 9.01 0.02 8.02 -1 7 C-0.6875 3.3125 -0.6875 3.3125 0 0 Z " fill="#180600" transform="translate(238,588)"/>
<path d="M0 0 C0.66 0 1.32 0 2 0 C2.69937202 1.4317616 3.38412718 2.87067032 4.0625 4.3125 C4.63677734 5.51326172 4.63677734 5.51326172 5.22265625 6.73828125 C6 9 6 9 5 12 C4.16180842 10.37750059 3.3295884 8.75191503 2.5 7.125 C2.0359375 6.22007812 1.571875 5.31515625 1.09375 4.3828125 C0 2 0 2 0 0 Z " fill="#2F190D" transform="translate(1009,498)"/>
<path d="M0 0 C5.02692063 0.45699278 8.14896261 2.99241748 12 6 C11.01 6.495 11.01 6.495 10 7 C5.86370087 5.29152862 2.98232523 3.32643967 0 0 Z " fill="#211A04" transform="translate(459,346)"/>
<path d="M0 0 C3.63094642 2.64960955 5.89851796 5.01824456 8 9 C7.01 9 6.02 9 5 9 C0 3.76744186 0 3.76744186 0 0 Z " fill="#301F12" transform="translate(617,210)"/>
<path d="M0 0 C-2.90092502 1.93395001 -3.89674737 2.30131941 -7.1875 2.625 C-8.445625 2.74875 -9.70375 2.8725 -11 3 C-10.67 2.01 -10.34 1.02 -10 0 C-6.58729758 -1.51675663 -3.55830874 -0.72783588 0 0 Z " fill="#160300" transform="translate(431,152)"/>
<path d="M0 0 C3.3 1.98 6.6 3.96 10 6 C9.67 6.66 9.34 7.32 9 8 C5.37 6.02 1.74 4.04 -2 2 C-1.34 1.34 -0.68 0.68 0 0 Z " fill="#2B1107" transform="translate(436,1011)"/>
<path d="M0 0 C1.74627478 2.61941217 2.38722388 4.03824877 3 7 C2.34 7 1.68 7 1 7 C0.67 7.99 0.34 8.98 0 10 C-0.66 7.03 -1.32 4.06 -2 1 C-1.34 0.67 -0.68 0.34 0 0 Z " fill="#190601" transform="translate(1022,525)"/>
<path d="M0 0 C3 1 3 1 4.75 3.8125 C6.05483179 7.13982105 6.02866653 7.79584277 5 11 C4.16151196 9.54462432 3.32936066 8.08559627 2.5 6.625 C1.80390625 5.40683594 1.80390625 5.40683594 1.09375 4.1640625 C0 2 0 2 0 0 Z " fill="#2F160C" transform="translate(1002,485)"/>
<path d="M0 0 C2.4294516 3.6441774 2.16179575 5.71241272 2 10 C1.01 10.33 0.02 10.66 -1 11 C-0.67 7.37 -0.34 3.74 0 0 Z " fill="#180400" transform="translate(239,697)"/>
<path d="M0 0 C0.99 0.33 1.98 0.66 3 1 C2.67 3.64 2.34 6.28 2 9 C1.34 9 0.68 9 0 9 C0 6.03 0 3.06 0 0 Z " fill="#140200" transform="translate(234,620)"/>
<path d="M0 0 C2.56687367 3.8503105 1.83288724 5.58569763 1 10 C-1.76223278 7.23776722 -1.57856291 4.79293383 -2 1 C-1.34 0.67 -0.68 0.34 0 0 Z " fill="#160501" transform="translate(1029,547)"/>
<path d="M0 0 C0.66 0.99 1.32 1.98 2 3 C0.68 5.31 -0.64 7.62 -2 10 C-2.66 10 -3.32 10 -4 10 C-2.8905928 6.51329166 -1.73662334 3.22515763 0 0 Z " fill="#F43230" transform="translate(482,510)"/>
<path d="M0 0 C3.75504711 1.45356662 3.75504711 1.45356662 4.8125 3.8125 C5.03322704 6.38764878 4.62444329 8.50222685 4 11 C1.55160412 7.32740617 0 4.45351799 0 0 Z " fill="#180601" transform="translate(815,274)"/>
<path d="M0 0 C0.99 0.33 1.98 0.66 3 1 C0.69 3.64 -1.62 6.28 -4 9 C-4.66 8.67 -5.32 8.34 -6 8 C-4.02 5.36 -2.04 2.72 0 0 Z " fill="#2E1408" transform="translate(704,273)"/>
<path d="M0 0 C3.80881639 1.44472346 5.29742886 3.32603071 7 7 C6.67 7.99 6.34 8.98 6 10 C4.99421411 8.71283353 3.99553202 7.42011342 3 6.125 C2.443125 5.40570313 1.88625 4.68640625 1.3125 3.9453125 C0 2 0 2 0 0 Z " fill="#32150C" transform="translate(625,221)"/>
<path d="M0 0 C4.43090471 1.20842856 6.98112756 2.51668565 10 6 C9.67 6.66 9.34 7.32 9 8 C7.49712782 6.85793642 5.99776716 5.71125043 4.5 4.5625 C3.6646875 3.92441406 2.829375 3.28632813 1.96875 2.62890625 C1.3190625 2.09136719 0.669375 1.55382812 0 1 C0 0.67 0 0.34 0 0 Z " fill="#28170A" transform="translate(588,186)"/>
<path d="M0 0 C1.45903258 0.30921884 2.91720722 0.62248799 4.375 0.9375 C5.18710937 1.11152344 5.99921875 1.28554687 6.8359375 1.46484375 C9 2 9 2 11 3 C11 3.66 11 4.32 11 5 C9.35153231 4.55123384 7.70626545 4.09069512 6.0625 3.625 C5.14597656 3.36976563 4.22945312 3.11453125 3.28515625 2.8515625 C1 2 1 2 0 0 Z " fill="#232202" transform="translate(526,183)"/>
<path d="M0 0 C3.26460973 1.80412643 4.88929795 2.83394693 7 6 C6.01 6.66 5.02 7.32 4 8 C0 2.25 0 2.25 0 0 Z " fill="#BD1104" transform="translate(318,848)"/>
<path d="M0 0 C0.33 0 0.66 0 1 0 C1.625 2.8125 1.625 2.8125 2 6 C1.01 7.485 1.01 7.485 0 9 C-0.66 9 -1.32 9 -2 9 C-1.125 2.25 -1.125 2.25 0 0 Z " fill="#1B0300" transform="translate(1018,774)"/>
<path d="M0 0 C1.47177418 3.82661288 0.57016757 6.31010622 -1 10 C-1.96715918 11.03179606 -2.96225307 12.0392288 -4 13 C-3.52140759 11.39566191 -3.04210442 9.79153584 -2.5625 8.1875 C-2.29566406 7.29417969 -2.02882813 6.40085937 -1.75390625 5.48046875 C-1.19612127 3.64526945 -0.60655425 1.81966274 0 0 Z " fill="#BF1E0E" transform="translate(281,535)"/>
<path d="M0 0 C0.66 0.66 1.32 1.32 2 2 C1.73441476 5.85098598 -0.56043348 8.16695501 -3 11 C-2.69078116 9.54096742 -2.37751201 8.08279278 -2.0625 6.625 C-1.88847656 5.81289063 -1.71445312 5.00078125 -1.53515625 4.1640625 C-1 2 -1 2 0 0 Z " fill="#160400" transform="translate(672,319)"/>
<path d="M0 0 C1.485 0.99 1.485 0.99 3 2 C3.99 2 4.98 2 6 2 C6.33 4.31 6.66 6.62 7 9 C4.03595495 6.19195732 1.55500981 3.81684226 0 0 Z " fill="#150804" transform="translate(803,256)"/>
<path d="M0 0 C-1.28519565 2.86697492 -2.57129254 4.97607712 -5 7 C-5.66 7 -6.32 7 -7 7 C-3.86206897 0 -3.86206897 0 0 0 Z " fill="#3A170B" transform="translate(316,433)"/>
<path d="M0 0 C0.66 0.99 1.32 1.98 2 3 C0.35 5.31 -1.3 7.62 -3 10 C-3.33 9.34 -3.66 8.68 -4 8 C-3.22265625 6.0546875 -3.22265625 6.0546875 -2.0625 3.875 C-1.49208984 2.78832031 -1.49208984 2.78832031 -0.91015625 1.6796875 C-0.60980469 1.12539063 -0.30945313 0.57109375 0 0 Z " fill="#D01E0D" transform="translate(715,419)"/>
<path d="M0 0 C3.63 0.33 7.26 0.66 11 1 C11 1.33 11 1.66 11 2 C4.565 2.495 4.565 2.495 -2 3 C-1.34 2.01 -0.68 1.02 0 0 Z " fill="#8DAF1B" transform="translate(438,176)"/>
<path d="M0 0 C0.33 0 0.66 0 1 0 C1.33 3.3 1.66 6.6 2 10 C1.01 10 0.02 10 -1 10 C-0.67 6.7 -0.34 3.4 0 0 Z " fill="#130100" transform="translate(1036,695)"/>
<path d="M0 0 C4.67692308 1.47692308 4.67692308 1.47692308 6.3125 4.125 C6.539375 4.74375 6.76625 5.3625 7 6 C1.25 4.25 1.25 4.25 -1 2 C-0.67 1.34 -0.34 0.68 0 0 Z " fill="#130703" transform="translate(906,393)"/>
<path d="M0 0 C1.7074998 1.28062485 3.37373596 2.61767557 5 4 C5 4.66 5 5.32 5 6 C5.66 6 6.32 6 7 6 C7 6.66 7 7.32 7 8 C6.01 8.33 5.02 8.66 4 9 C3.566875 7.88625 3.566875 7.88625 3.125 6.75 C2.17697356 4.43260203 1.15154089 2.22082885 0 0 Z " fill="#170601" transform="translate(411,332)"/>
<path d="M0 0 C3.7952131 1.49097658 5.61042731 3.75700849 8 7 C4.59679258 5.98823563 3.24274669 5.35156418 1.1875 2.375 C0.795625 1.59125 0.40375 0.8075 0 0 Z " fill="#2D160B" transform="translate(350,940)"/>
<path d="M0 0 C3.57104439 1.87949705 5.54744301 3.17053157 7 7 C3.42895561 5.12050295 1.45255699 3.82946843 0 0 Z " fill="#28130A" transform="translate(947,419)"/>
<path d="" fill="#000000" transform="translate(0,0)"/>
</svg>
