<?xml version="1.0" encoding="UTF-8"?>
<svg version="1.1" xmlns="http://www.w3.org/2000/svg" width="413" height="484">
<path d="M0 0 C136.29 0 272.58 0 413 0 C413 159.72 413 319.44 413 484 C276.71 484 140.42 484 0 484 C0 324.28 0 164.56 0 0 Z " fill="#FDFDFD" transform="translate(0,0)"/>
<path d="M0 0 C62.7 0 125.4 0 190 0 C190 0.33 190 0.66 190 1 C188.87078125 1.09474609 188.87078125 1.09474609 187.71875 1.19140625 C172.36655535 2.96138015 159.07709234 8.97079443 149.23828125 21.1875 C138.00834453 37.02821678 135.79210386 55.09589111 135.8125 74 C135.8117749 74.69131012 135.8110498 75.38262024 135.81030273 76.09487915 C135.81209198 91.96975071 136.51978211 107.8163138 137.28833008 123.66992188 C137.75605997 133.46537667 138.13206621 143.25997499 138.25390625 153.06640625 C138.28671692 154.42689339 138.28671692 154.42689339 138.32019043 155.81486511 C138.36215103 163.53219545 136.06334405 168.17765369 131 174 C129.90034887 175.55105923 128.81715147 177.11390377 127.75 178.6875 C126.88761719 179.90373047 126.88761719 179.90373047 126.0078125 181.14453125 C124.46424919 183.33975456 122.94051682 185.54410424 121.4296875 187.76171875 C117.18533159 193.98976834 112.92698893 200.17919293 108.375 206.1875 C97.26062408 220.90760929 88.96036732 235.07412706 82.78027344 252.43554688 C77.87153287 266.11420495 72.05796236 279.47562959 65.125 292.25 C64.04994247 294.25869063 62.97824484 296.26904539 61.91162109 298.28222656 C61.1317165 299.75180575 60.3422136 301.21628428 59.55078125 302.6796875 C57.45106148 307.29170355 56.81532954 311.75028549 56.76953125 316.78515625 C56.75418335 318.35789307 56.75418335 318.35789307 56.73852539 319.96240234 C56.75518231 324.64405995 56.84664503 329.32090384 57 334 C57.59820557 333.78996338 58.19641113 333.57992676 58.81274414 333.36352539 C60.00565063 332.95348267 60.00565063 332.95348267 61.22265625 332.53515625 C62.3984021 332.12728882 62.3984021 332.12728882 63.59790039 331.71118164 C69.67908499 329.91074555 74.33978038 330.28623283 79.9375 333.3125 C98.22822577 345.41208366 110.69888053 368.96619988 122.58251953 386.87011719 C123.8289952 388.743051 125.08184934 390.61135552 126.33984375 392.4765625 C129.95277732 397.84395325 133.4221714 403.25015141 136.67578125 408.84375 C137.95787589 411.01745193 137.95787589 411.01745193 139.51171875 412.95703125 C145.93265466 421.77107188 150.39805466 434.07963974 149 445 C146.92777639 454.34728822 144.30892841 462.33196405 136.25 467.9375 C124.04247488 473.99098445 109.06382314 469.21367602 96.78173828 465.76611328 C91.66924717 464.35809177 86.52018151 463.09472136 81.375 461.8125 C80.39200928 461.56290527 79.40901855 461.31331055 78.39624023 461.05615234 C73.0429584 459.70679958 67.68861805 458.50691375 62.26953125 457.45385742 C59.09078149 456.81817586 55.95481812 456.0451704 52.8125 455.25 C52.15886475 455.08516113 51.50522949 454.92032227 50.83178711 454.75048828 C46.60648245 453.6795027 42.38859632 452.58081125 38.171875 451.4765625 C37.1614917 451.21198242 36.1511084 450.94740234 35.11010742 450.67480469 C33.12538947 450.15394143 31.14115068 449.63124778 29.1574707 449.10644531 C24.0829635 447.77135036 19.01138185 446.52319881 13.87280273 445.45849609 C11.07885648 444.77448735 9.16794473 443.89695164 7 442 C5.96777122 438.50405537 5.58655326 436.77582066 7.328125 433.5078125 C7.96234375 432.72148437 8.5965625 431.93515625 9.25 431.125 C15.3125469 422.99320057 17.17988185 416.2299646 16 406 C14.73807964 401.25647372 12.81589872 396.85506703 10.84375 392.37109375 C8.5314841 386.96204317 7.17091488 382.9072315 8 377 C10.28514107 374.6119492 11.62277561 374.03772873 14.92919922 373.70703125 C16.60006592 373.75923828 16.60006592 373.75923828 18.3046875 373.8125 C20.13966797 373.84730469 20.13966797 373.84730469 22.01171875 373.8828125 C24.57943428 373.96070074 27.14714268 374.03882429 29.71484375 374.1171875 C31.55369141 374.15199219 31.55369141 374.15199219 33.4296875 374.1875 C35.10393799 374.23970703 35.10393799 374.23970703 36.81201172 374.29296875 C41.44326962 373.86736686 44.70930275 372.1768122 48.125 369.0625 C52.73687162 361.52977636 54.58364439 353.75466589 54 345 C50.81274335 347.59364152 50.05103873 350.40471731 48.8125 354.25 C46.49902277 360.55053372 43.69834744 364.42363131 38 368 C35.05195886 368.98268038 32.96721246 369.16506402 29.88671875 369.24609375 C28.88576172 369.27896484 27.88480469 369.31183594 26.85351562 369.34570312 C24.75465759 369.40655835 22.65569424 369.46389054 20.55664062 369.51757812 C13.07330508 369.72114207 13.07330508 369.72114207 6 372 C4.61141128 374.42885788 4.61141128 374.42885788 4 377 C3.67 377.66 3.34 378.32 3 379 C2.18225164 387.619872 3.53654956 395.13606598 6.125 403.296875 C8.14291892 411.83699615 6.55422797 418.79577569 4 427.0625 C3.57074219 428.50399414 3.57074219 428.50399414 3.1328125 429.97460938 C2.43272118 432.3199153 1.7216778 434.66126488 1 437 C0.67 437 0.34 437 0 437 C0 292.79 0 148.58 0 0 Z " fill="#FEFEFE" transform="translate(0,0)"/>
<path d="M0 0 C20.4204704 19.49902268 20.61686851 47.49658059 22.125 73.8125 C23.29944048 93.63240642 24.75403695 112.58812468 34.1875 130.3125 C34.6913623 131.28864258 35.19522461 132.26478516 35.71435547 133.27050781 C46.07721889 153.33675245 57.82082941 171.30731435 71.59814453 189.13818359 C96.21449046 221.01263507 114.87912343 265.76226849 110.94921875 306.80078125 C108.32671751 321.71460145 94.67078542 333.74080093 83.0625 342.4375 C75.50371112 347.31291883 66.30326017 351.80688691 57.1875 350.3125 C47.20637863 347.09796816 41.58119766 339.931305 36.625 331 C35.20864928 327.36675251 34.83993918 325.90599552 36.1875 322.3125 C37.1775 321.9825 38.1675 321.6525 39.1875 321.3125 C39.1875 319.9925 39.1875 318.6725 39.1875 317.3125 C37.5375 316.9825 35.8875 316.6525 34.1875 316.3125 C34.1875 312.55032949 34.36683441 310.35926733 36.71875 307.359375 C41.47215562 302.87004747 45.71049094 300.91140152 52.1875 300.3125 C52.9196875 300.24289062 53.651875 300.17328125 54.40625 300.1015625 C63.16963336 299.70042171 71.15446052 303.1885402 79.1875 306.3125 C74.67647221 301.37856335 69.58741588 297.44580529 63.1875 295.3125 C63.60016921 290.85567257 64.24414538 286.96747784 65.71484375 282.73828125 C67.45691231 277.05336056 67.56394519 271.78236106 67.4375 265.875 C67.43234375 264.91529297 67.4271875 263.95558594 67.421875 262.96679688 C67.13247703 236.10704817 55.97507421 212.54641549 37.8984375 192.7734375 C35.13915918 190.26861713 32.58773255 188.79823211 29.1875 187.3125 C29.5592334 187.85438965 29.9309668 188.3962793 30.31396484 188.95458984 C47.46362988 214.05282074 62.16408829 237.36012473 62.6875 268.5625 C62.71827637 269.65143555 62.74905273 270.74037109 62.78076172 271.86230469 C62.78209479 280.64192278 60.76548214 288.93508301 54.5 295.4375 C50.94992292 298.31594087 48.78608225 298.54454468 44.25 298.6875 C43.18910156 298.73648437 42.12820313 298.78546875 41.03515625 298.8359375 C38.1875 298.3125 38.1875 298.3125 36.53271484 296.31982422 C34.78506893 292.4128365 34.78392138 288.86978101 34.81640625 284.671875 C34.79899108 282.94270668 34.78140716 281.21354006 34.76367188 279.484375 C34.75371256 276.79293132 34.7499748 274.10161736 34.75170898 271.41015625 C34.72791367 254.32829057 32.64898236 239.7193184 24.75 224.3125 C24.28529297 223.36761719 23.82058594 222.42273438 23.34179688 221.44921875 C19.88027587 214.46824334 16.27177501 207.56151693 12.0625 201 C9.81125211 197.08282866 8.97359751 192.90757721 7.94921875 188.5390625 C4.30037923 173.08295253 -1.84211086 159.47034023 -11.57470703 146.91625977 C-16.65872156 140.25996294 -16.27928795 133.42158364 -15.8125 125.3125 C-15.15666793 122.97609824 -14.49034992 120.64260909 -13.8125 118.3125 C-13.43107287 115.55303043 -13.43107287 115.55303043 -13.3125 112.625 C-13.2609375 111.71363281 -13.209375 110.80226562 -13.15625 109.86328125 C-13.61747393 107.05098476 -13.61747393 107.05098476 -16.390625 105.1328125 C-19.91251493 103.25929571 -23.24692761 102.02845232 -27.0625 100.875 C-44.26661889 95.43955715 -44.26661889 95.43955715 -48.8125 89.3125 C-50.62226127 83.58774495 -50.63187283 77.45847646 -48.5 71.875 C-46.15238816 68.31010795 -44.89744861 66.67414954 -40.8125 65.3125 C-35.19374276 64.9440569 -31.65538621 65.12059772 -26.8125 68.3125 C-24.34821612 70.51738558 -22.99876039 72.07386842 -22.5 75.390625 C-22.36466337 80.36424633 -23.32064687 84.55721816 -24.8125 89.3125 C-24.8125 90.6325 -24.8125 91.9525 -24.8125 93.3125 C-21.3772952 95.60263653 -19.827169 95.49092973 -15.8125 95.3125 C-11.20864503 87.41145447 -11.75897571 78.28059001 -13.609375 69.5546875 C-15.15664416 64.32967858 -17.00355978 59.97260426 -19.8125 55.3125 C-19.8125 54.6525 -19.8125 53.9925 -19.8125 53.3125 C-20.410625 53.02375 -21.00875 52.735 -21.625 52.4375 C-23.8125 51.3125 -23.8125 51.3125 -26.8125 49.3125 C-33.47252643 48.14407431 -41.22243676 46.8764747 -47.625 49.4375 C-54.05370326 54.94781708 -58.31872051 61.0192734 -58.98388672 69.49682617 C-59.13373587 72.03896412 -59.25928129 74.58108539 -59.375 77.125 C-59.43977539 78.45047852 -59.43977539 78.45047852 -59.50585938 79.80273438 C-59.61141536 81.97249623 -59.71241071 84.1424791 -59.8125 86.3125 C-63.12570331 86.00717865 -66.43789955 85.69204424 -69.75 85.375 C-70.69552734 85.28798828 -71.64105469 85.20097656 -72.61523438 85.11132812 C-73.51435547 85.02431641 -74.41347656 84.93730469 -75.33984375 84.84765625 C-76.58882446 84.72982788 -76.58882446 84.72982788 -77.86303711 84.60961914 C-79.8125 84.3125 -79.8125 84.3125 -80.8125 83.3125 C-80.97921362 81.84702747 -81.08832977 80.37490049 -81.171875 78.90234375 C-81.26855469 77.54012695 -81.26855469 77.54012695 -81.3671875 76.15039062 C-81.49549561 74.24501522 -81.61049702 72.33868811 -81.7109375 70.43164062 C-82.28656861 62.84716781 -84.37183106 57.70622024 -89.81640625 52.3359375 C-93.64571706 50.37257266 -97.63413389 50.8429442 -101.8125 51.3125 C-106.64155012 52.92218337 -108.41427539 56.41308808 -110.73657227 60.69799805 C-112.5816593 65.18155535 -112.49792345 69.46262981 -112.375 74.25 C-112.39143555 75.63735352 -112.39143555 75.63735352 -112.40820312 77.05273438 C-112.34160618 83.38832399 -111.56633561 90.01429154 -107.8125 95.3125 C-105.24804234 96.15261875 -105.24804234 96.15261875 -102.8125 96.3125 C-101.8225 94.3325 -100.8325 92.3525 -99.8125 90.3125 C-100.7096875 89.9103125 -100.7096875 89.9103125 -101.625 89.5 C-104.40726267 87.98962883 -106.37089832 86.67745064 -107.37109375 83.5859375 C-108.29174951 78.84415295 -108.38797016 74.10362364 -107.8125 69.3125 C-105.11287427 65.60051462 -103.36861931 65.4096002 -98.875 64.625 C-96.18611053 64.74212965 -95.08981304 65.0824019 -93 66.81640625 C-88.21464181 72.32647013 -87.38966143 76.10656037 -87.4765625 83.40625 C-87.8125 86.3125 -87.8125 86.3125 -89.8125 89.125 C-90.8025 89.846875 -91.7925 90.56875 -92.8125 91.3125 C-94.06926975 92.42993223 -95.31870351 93.5556452 -96.5625 94.6875 C-100.22551522 97.87696953 -104.03677398 100.83164506 -107.9296875 103.734375 C-111.01987146 106.32448769 -111.78460207 108.14232265 -112.4375 112.125 C-112.37301072 114.84843178 -112.19731958 115.9198866 -110.26953125 117.88671875 C-108.87998426 118.86773355 -107.46653265 119.8154667 -106.03515625 120.734375 C-102.97739957 122.90543598 -100.91113068 125.61480094 -98.6484375 128.578125 C-93.68538936 133.26662154 -86.68253767 132.78587814 -80.27734375 132.69140625 C-67.41030058 131.88012827 -54.76240755 127.71714257 -42.99609375 122.65234375 C-40.22025671 121.48410804 -37.51452756 120.57892444 -34.625 119.75 C-30.79119364 118.54922291 -28.9662824 116.77728038 -26.8125 113.3125 C-25.1625 113.6425 -23.5125 113.9725 -21.8125 114.3125 C-21.859375 116.58984375 -21.859375 116.58984375 -22.8125 119.3125 C-25.27640994 120.78655557 -27.42103873 121.83801772 -30.0625 122.875 C-30.77889648 123.1730957 -31.49529297 123.47119141 -32.23339844 123.77832031 C-37.76884737 126.03223151 -43.36817488 127.83763081 -49.140625 129.390625 C-51.90553498 130.34459979 -53.51405255 131.54207426 -55.8125 133.3125 C-69.39958703 139.99313143 -83.14313764 139.20532095 -97.8125 137.3125 C-96.32069618 141.15219961 -94.19236478 142.73529409 -90.8125 145 C-89.925625 145.60199219 -89.03875 146.20398438 -88.125 146.82421875 C-82.63364175 150.35835303 -77.20718181 149.89997341 -70.8125 149.3125 C-59.66623392 146.52280602 -49.53718425 140.86575147 -39.44140625 135.53125 C-37.86166016 134.71140625 -37.86166016 134.71140625 -36.25 133.875 C-34.85587891 133.13443359 -34.85587891 133.13443359 -33.43359375 132.37890625 C-30.67271792 131.2556289 -28.76140492 131.0938651 -25.8125 131.3125 C-25.4825 132.9625 -25.1525 134.6125 -24.8125 136.3125 C-28.0763537 138.65577958 -31.15985005 140.52708748 -34.875 142.0625 C-45.72829688 146.72960068 -55.1289471 153.80516447 -64.1875 161.26953125 C-65.363125 162.21892578 -65.363125 162.21892578 -66.5625 163.1875 C-67.25859375 163.76242188 -67.9546875 164.33734375 -68.671875 164.9296875 C-73.36857284 167.96368574 -79.38376733 167.85735456 -84.8125 167.3125 C-93.19663507 163.69207804 -99.20443702 154.45471767 -103.9375 146.9375 C-105.97674963 144.08255052 -107.79220158 143.00584764 -110.8125 141.3125 C-110.998125 142.44171875 -110.998125 142.44171875 -111.1875 143.59375 C-112.9756561 152.80275392 -116.4891561 160.21674285 -120.84326172 168.44824219 C-122.22988839 171.11531555 -123.49995698 173.82916978 -124.75 176.5625 C-125.13027344 177.39265625 -125.51054687 178.2228125 -125.90234375 179.078125 C-127.43919229 182.85098922 -127.92980394 186.1300826 -127.953125 190.19921875 C-127.98212891 191.6078418 -127.98212891 191.6078418 -128.01171875 193.04492188 C-128.0452338 194.99523994 -128.06377563 196.94588013 -128.06640625 198.89648438 C-128.24842331 205.92330074 -129.88633032 210.51064309 -133.8125 216.3125 C-134.37195313 217.17101562 -134.93140625 218.02953125 -135.5078125 218.9140625 C-135.97960937 219.58179688 -136.45140625 220.24953125 -136.9375 220.9375 C-139.39673853 224.57942577 -141.27140819 228.20034044 -142.8125 232.3125 C-143.20308594 233.31667969 -143.59367187 234.32085937 -143.99609375 235.35546875 C-145.28132977 238.66962336 -146.54997595 241.98963541 -147.8125 245.3125 C-148.11542969 246.1065625 -148.41835937 246.900625 -148.73046875 247.71875 C-149.43531711 249.57926344 -150.12470084 251.44561656 -150.8125 253.3125 C-151.29976562 254.58480469 -151.29976562 254.58480469 -151.796875 255.8828125 C-153.1524391 260.46044821 -153.7704176 265.02134461 -154.375 269.75 C-154.50430908 270.74394775 -154.63361816 271.73789551 -154.7668457 272.76196289 C-156.09310462 283.58162218 -156.53692411 294.42192344 -156.8125 305.3125 C-159.05859375 306.03125 -159.05859375 306.03125 -161.8125 306.3125 C-163.91015625 304.90625 -163.91015625 304.90625 -165.875 302.8125 C-166.52597656 302.1421875 -167.17695313 301.471875 -167.84765625 300.78125 C-173.63806108 293.50583081 -174.40382747 288.69391741 -174.1875 279.5 C-174.18621094 278.47068359 -174.18492187 277.44136719 -174.18359375 276.38085938 C-174.10886075 269.8168109 -173.35150542 263.6925541 -171.8125 257.3125 C-176.49084964 261.5933535 -177.90495039 267.04184902 -178.28125 273.1953125 C-178.59667818 289.04632979 -176.2164463 300.57476602 -165.35546875 312.703125 C-162.00372601 316.14239405 -158.5082497 319.25370716 -154.8125 322.3125 C-153.13971561 323.80567453 -151.47336327 325.30607676 -149.8125 326.8125 C-142.84387116 333.12193422 -135.75238466 339.26905607 -128.5 345.25 C-127.76160889 345.86045166 -127.02321777 346.47090332 -126.26245117 347.09985352 C-122.14616554 350.47825085 -117.98423413 353.69256455 -113.625 356.75 C-108.10094446 360.67056829 -103.50929384 364.99982564 -100.8125 371.3125 C-100.3588504 376.00021258 -100.29317081 378.29381582 -102.4375 382.5 C-106.76509842 387.6247876 -110.48576276 390.25263206 -116.8125 392.3125 C-117.1425 393.3025 -117.4725 394.2925 -117.8125 395.3125 C-118.4725 395.3125 -119.1325 395.3125 -119.8125 395.3125 C-122.35682833 392.59270075 -124.19298693 389.69844493 -125.9375 386.4375 C-129.38748747 380.05767702 -133.52502631 374.13375405 -137.58544922 368.13330078 C-139.30557344 365.58083631 -140.99405477 363.00771854 -142.6875 360.4375 C-150.09774528 349.36659356 -157.673294 338.48286999 -166.0625 328.125 C-166.89322021 327.08339722 -166.89322021 327.08339722 -167.74072266 326.02075195 C-172.48198636 320.26991759 -179.21790659 312.98227527 -187.03125 312.046875 C-187.7840625 312.05203125 -188.536875 312.0571875 -189.3125 312.0625 C-190.0653125 312.05734375 -190.818125 312.0521875 -191.59375 312.046875 C-194.05279566 312.34126779 -195.63601272 313.17029387 -197.8125 314.3125 C-200.5625 314.4375 -200.5625 314.4375 -202.8125 314.3125 C-206.25812597 307.42124807 -204.59655183 295.01274463 -203.046875 287.69921875 C-200.3971554 280.50578984 -196.46195345 273.82795174 -192.82543945 267.09326172 C-186.11122565 254.49097057 -180.8213246 241.14173003 -176.08618164 227.68310547 C-170.71830825 212.4649885 -163.02043905 200.18440708 -153.078125 187.53515625 C-148.48759332 181.66752895 -144.34658203 175.50425445 -140.18164062 169.33154297 C-138.75273598 167.22436726 -137.30843989 165.12851375 -135.859375 163.03515625 C-135.37033691 162.32818604 -134.88129883 161.62121582 -134.37744141 160.89282227 C-133.45354585 159.55804539 -132.52881455 158.2238464 -131.60302734 156.89038086 C-130.77699545 155.69315344 -129.95891543 154.49038036 -129.15081787 153.28097534 C-128.29202501 152.01781312 -127.4058966 150.77257303 -126.48703003 149.55241394 C-122.6101052 144.08414513 -122.15612362 139.85819278 -122.4375 133.26953125 C-122.46855835 131.83695732 -122.46855835 131.83695732 -122.50024414 130.3754425 C-122.57492614 127.35271638 -122.68916234 124.33360237 -122.8125 121.3125 C-122.84682129 120.35647888 -122.88114258 119.40045776 -122.91650391 118.41546631 C-123.12577961 112.61538024 -123.38719437 106.81875615 -123.66836548 101.02175903 C-126.93310168 32.57704503 -126.93310168 32.57704503 -117.8125 12.3125 C-117.19955078 10.94544922 -117.19955078 10.94544922 -116.57421875 9.55078125 C-109.91562521 -3.89770203 -99.40683801 -11.26811168 -85.8125 -16.6875 C-57.52048731 -26.23645753 -22.36762625 -18.95248661 0 0 Z " fill="#030303" transform="translate(259.8125,19.6875)"/>
<path d="M0 0 C66.66 0 133.32 0 202 0 C202 135.3 202 270.6 202 410 C200.68 408.35 199.36 406.7 198 405 C194.95100164 401.4890322 191.7467194 399.15486087 187.8125 396.75 C178.39399284 390.89833989 169.45724989 383.40839262 164.6875 373.1875 C163.84847386 369.29746972 163.51495546 365.45536314 163.24609375 361.48828125 C162.97119009 358.70869979 162.72564528 356.6723493 160.6171875 354.71875 C156.55464175 351.87678974 152.62537967 349.79351457 148 348 C149.81367802 344.15465381 152.14008594 340.79862645 154.5625 337.31640625 C163.57511778 322.79335641 158.09084662 303.54499208 155 288 C154.81276367 287.04254883 154.62552734 286.08509766 154.43261719 285.09863281 C148.67804492 256.18662811 136.43096897 229.65785517 117.67724609 206.85083008 C87.88721413 170.34641532 72.17712086 132.60165423 69.34326172 85.85180664 C68.75885596 76.39319044 68.00372022 67.02951214 66.546875 57.66015625 C66.42856323 56.89150742 66.31025146 56.12285858 66.18835449 55.33091736 C63.4412804 38.70622834 55.2993973 25.33220109 42 15 C29.23597879 6.017911 15.27453793 2.45162275 0 1 C0 0.67 0 0.34 0 0 Z " fill="#FEFEFE" transform="translate(211,0)"/>
<path d="M0 0 C0.33 1.65 0.66 3.3 1 5 C-0.85625 5.37125 -0.85625 5.37125 -2.75 5.75 C-6.54878169 6.71647449 -8.64133191 7.73415188 -11 11 C-13.62371942 16.81781264 -13.38231163 22.73850663 -13.375 29 C-13.37693359 30.72355713 -13.37693359 30.72355713 -13.37890625 32.48193359 C-13.27526935 41.02373384 -12.1600434 49.00773613 -10.43652344 57.35351562 C-8.34181978 67.68637324 -8.32285644 77.2982358 -10 87.75 C-12.83176413 104.65638883 -12.83176413 104.65638883 -8.25 120.5 C-6.63802114 122.42399739 -6.63802114 122.42399739 -5 124 C-4.360625 124.78375 -3.72125 125.5675 -3.0625 126.375 C3.53190942 131.5705953 10.66637998 131.96827227 18.91357422 131.35229492 C27.14509554 129.96239494 33.15304087 125.74102903 39.25 120.3125 C52.80529031 108.72530172 66.44980531 101.08283173 83.4375 95.5625 C99.54096065 90.65824215 99.54096065 90.65824215 112 80 C113.10761021 76.89207881 113.83022965 74.2255544 113 71 C108.95720448 66.85163225 104.99126638 64.93350904 99.4375 63.3125 C90.22043524 60.47294565 84.56352984 58.49554807 79.765625 49.75 C76.69248153 43.15832995 75.85178883 37.15129078 75.8125 29.875 C75.79832031 28.67617188 75.78414063 27.47734375 75.76953125 26.2421875 C75.98598555 23.19715247 76.39720727 21.54672995 78 19 C78.99 19 79.98 19 81 19 C81.97240972 21.91722917 82.16063645 24.07905116 82.3125 27.125 C83.262666 37.88882075 88.35113397 44.98735438 96.2890625 52.03125 C101.43273033 56.2768171 106.80647722 59.88485469 112.5546875 63.26171875 C116.27885499 65.90909021 118.55444376 68.66333129 120 73 C120 97.42 120 121.84 120 147 C-16.29 147 -152.58 147 -293 147 C-293 100 -293 100 -287 79 C-287 72.12227918 -287.06962899 68.83603083 -289 62.75 C-291.32101168 54.77607136 -293.25363864 45.66487089 -289.375 37.875 C-286.23181793 34.07009539 -283.45602687 32.27184491 -278.45458984 31.71826172 C-274.43941091 31.54350995 -270.42856122 31.50821736 -266.41015625 31.47265625 C-259.36639063 31.31694232 -254.77579801 30.57269084 -249.4375 25.625 C-246.24815392 21.58447796 -244.84989421 16.64599775 -243.2109375 11.828125 C-242 9 -242 9 -239 7 C-238 8 -238 8 -237.625 11.6875 C-237.71191212 19.42267903 -240.36360613 27.87990411 -245.36328125 33.796875 C-249.93323731 37.61532718 -253.62491548 38.24603689 -259.5078125 38.125 C-260.74144531 38.10953125 -261.97507812 38.0940625 -263.24609375 38.078125 C-264.52613281 38.05234375 -265.80617188 38.0265625 -267.125 38 C-269.6691022 37.94906702 -272.21340137 37.90697166 -274.7578125 37.875 C-276.44608154 37.84019531 -276.44608154 37.84019531 -278.16845703 37.8046875 C-281.20590335 37.77895376 -281.20590335 37.77895376 -284 40 C-285.25756852 48.33139145 -281.40145363 55.7374395 -278 63.19140625 C-274.77471043 70.61887599 -274.84015911 78.67616495 -277.625 86.25 C-279.47195563 90.39568458 -281.96549839 93.66212364 -284.8046875 97.171875 C-286.52329014 99.8003261 -286.45638768 101.95741544 -286 105 C-282.09204639 106.67727689 -278.20076727 107.78641621 -274.07421875 108.8046875 C-273.40896683 108.96993927 -272.7437149 109.13519104 -272.05830383 109.30545044 C-269.93551375 109.83197808 -267.81155656 110.35360765 -265.6875 110.875 C-264.30395449 111.21711661 -262.92049024 111.559562 -261.53710938 111.90234375 C-258.75182868 112.59224273 -255.96592152 113.27953854 -253.1796875 113.96557617 C-250.42743265 114.64455376 -247.67761003 115.33226448 -244.9296875 116.02856445 C-235.86079845 118.32432114 -226.76142619 120.42376181 -217.625 122.4375 C-207.44439969 124.69790762 -197.34745991 127.12272354 -187.3359375 130.0546875 C-178.06768617 132.6810538 -165.59848903 134.51645004 -156.6875 129.875 C-148.57293203 124.2260123 -146.25698812 114.82821514 -144.5390625 105.49609375 C-144.0308644 98.34502055 -146.94003585 92.03467268 -149.58984375 85.5390625 C-151.87173926 79.81220007 -151.87173926 79.81220007 -152 78 C-150.5625 76.25 -150.5625 76.25 -149 75 C-148.57589844 75.67804688 -148.15179688 76.35609375 -147.71484375 77.0546875 C-144.7052158 81.83040482 -141.65470744 86.51217861 -138.3125 91.0625 C-133.60340121 97.74432936 -130.03477878 104.63474947 -131 113 C-132 116.4375 -132 116.4375 -133 119 C-127.76057324 114.08478784 -127.76057324 114.08478784 -125.69921875 107.44921875 C-125.67169075 100.96178569 -125.86938345 95.36959491 -130.53515625 90.34765625 C-131.08042969 89.82042969 -131.62570313 89.29320312 -132.1875 88.75 C-133.5796875 87.38875 -133.5796875 87.38875 -135 86 C-135 85.01 -135 84.02 -135 83 C-130.45806549 83.18538508 -128.09475719 83.60300221 -124.8125 86.8125 C-114.9187423 95.75783648 -101.28869527 94.76600711 -88.7734375 94.19335938 C-82.36021917 93.74624063 -76.24142431 92.53024705 -70 91 C-68.99839844 90.7834375 -67.99679688 90.566875 -66.96484375 90.34375 C-52.79787555 86.99628072 -43.99957995 79.34989708 -35.578125 67.91796875 C-34 66 -34 66 -31 64 C-28.375 64.25 -28.375 64.25 -26 65 C-23.92037718 69.15924563 -24.41266507 74.75192493 -25.56640625 79.16796875 C-26.08068421 80.60310045 -26.60333352 82.03525051 -27.1328125 83.46484375 C-30.21784894 92.48371155 -32.23238605 102.46101189 -31 112 C-28.64046906 114.35953094 -27.22104383 114.49141413 -24 115 C-23.96261719 113.88625 -23.92523438 112.7725 -23.88671875 111.625 C-23.8209148 110.08330751 -23.75447298 108.54164215 -23.6875 107 C-23.66494141 106.27554688 -23.64238281 105.55109375 -23.61914062 104.8046875 C-23.37804856 99.63216684 -22.56440893 94.77327526 -21.48901367 89.70703125 C-19.94560328 81.89524071 -19.59702509 74.34876127 -19.65044022 66.40393066 C-19.66450785 64.11503895 -19.65755723 61.82698251 -19.64559937 59.53808594 C-19.61506375 53.04502077 -19.61959664 46.55217413 -19.63964844 40.05908203 C-19.65060124 36.05278462 -19.63732305 32.04713194 -19.60975266 28.04092407 C-19.60434814 26.52918899 -19.60828308 25.01738793 -19.62215042 23.50570679 C-19.7631295 7.9880912 -19.7631295 7.9880912 -14 2 C-9.8049391 -0.79670727 -4.87715995 -0.19126117 0 0 Z " fill="#060504" transform="translate(293,337)"/>
<path d="M0 0 C18.29072577 12.09958366 30.76138053 35.65369988 42.64501953 53.55761719 C43.8914952 55.430551 45.14434934 57.29885552 46.40234375 59.1640625 C50.01527732 64.53145325 53.4846714 69.93765141 56.73828125 75.53125 C58.02037589 77.70495193 58.02037589 77.70495193 59.57421875 79.64453125 C65.99515466 88.45857188 70.46055466 100.76713974 69.0625 111.6875 C66.99027639 121.03478822 64.37142841 129.01946405 56.3125 134.625 C44.10497488 140.67848445 29.12632314 135.90117602 16.84423828 132.45361328 C11.73174717 131.04559177 6.58268151 129.78222136 1.4375 128.5 C0.45450928 128.25040527 -0.52848145 128.00081055 -1.54125977 127.74365234 C-6.8945416 126.39429958 -12.24888195 125.19441375 -17.66796875 124.14135742 C-20.84671851 123.50567586 -23.98268188 122.7326704 -27.125 121.9375 C-27.77863525 121.77266113 -28.43227051 121.60782227 -29.10571289 121.43798828 C-33.33101755 120.3670027 -37.54890368 119.26831125 -41.765625 118.1640625 C-42.7760083 117.89948242 -43.7863916 117.63490234 -44.82739258 117.36230469 C-46.81211053 116.84144143 -48.79634932 116.31874778 -50.7800293 115.79394531 C-55.8545365 114.45885036 -60.92611815 113.21069881 -66.06469727 112.14599609 C-68.85864352 111.46198735 -70.76955527 110.58445164 -72.9375 108.6875 C-73.96972878 105.19155537 -74.35094674 103.46332066 -72.609375 100.1953125 C-71.65804687 99.01582031 -71.65804687 99.01582031 -70.6875 97.8125 C-64.6249531 89.68070057 -62.75761815 82.9174646 -63.9375 72.6875 C-65.19942036 67.94397372 -67.12160128 63.54256703 -69.09375 59.05859375 C-71.4060159 53.64954317 -72.76658512 49.5947315 -71.9375 43.6875 C-69.65235893 41.2994492 -68.31472439 40.72522873 -65.00830078 40.39453125 C-63.89438965 40.42933594 -62.78047852 40.46414063 -61.6328125 40.5 C-60.40949219 40.52320313 -59.18617187 40.54640625 -57.92578125 40.5703125 C-55.35806572 40.64820074 -52.79035732 40.72632429 -50.22265625 40.8046875 C-48.99675781 40.82789063 -47.77085938 40.85109375 -46.5078125 40.875 C-45.39164551 40.90980469 -44.27547852 40.94460938 -43.12548828 40.98046875 C-38.49423038 40.55486686 -35.22819725 38.8643122 -31.8125 35.75 C-27.20062838 28.21727636 -25.35385561 20.44216589 -25.9375 11.6875 C-26.5975 11.6875 -27.2575 11.6875 -27.9375 11.6875 C-27.48394521 6.811786 -26.56678114 4.04458506 -22.9375 0.6875 C-15.34145517 -3.11813368 -7.58479496 -4.10052978 0 0 Z " fill="#F5D231" transform="translate(79.9375,333.3125)"/>
<path d="M0 0 C2.97 0.33 5.94 0.66 9 1 C9 2.32 9 3.64 9 5 C8.01 5.66 7.02 6.32 6 7 C6.61442261 14.98749393 11.36929691 22.49442364 17 28 C21.76385059 31.11545938 26.88218236 33.92611305 32.75 33.4765625 C47.41044734 30.37139831 57.98659706 21.68096314 68 11 C73.37732887 13.24652851 78.260128 15.59701497 83 19 C82.34 19.33 81.68 19.66 81 20 C78.08701356 27.81125664 79.17479555 39.23430981 82 47 C85.77027992 55.35597592 85.77027992 55.35597592 92.81689453 60.71801758 C94.99141811 61.37170089 97.17172696 61.95107459 99.375 62.5 C106.02212324 64.17332096 112.69481393 66.23995794 117 72 C117.61770412 75.88701618 116.88455764 79.53278153 114.85546875 82.8984375 C106.78879466 91.9249437 94.12709295 95.3894692 83 98.9375 C67.94379331 103.76704641 56.25627289 111.20405201 44 121 C32.02685464 130.51141124 24.6846499 134.4806585 9 133 C1.83851791 131.29758746 -2.72385269 125.70152975 -7 120 C-8.67156409 117.12298826 -9.25533632 115.04613195 -9.265625 111.7265625 C-9.26949219 110.90897461 -9.27335937 110.09138672 -9.27734375 109.24902344 C-9.26832031 108.3830957 -9.25929688 107.51716797 -9.25 106.625 C-9.24613281 105.72813477 -9.24226563 104.83126953 -9.23828125 103.90722656 C-9.17208155 98.77123281 -8.82127419 93.8301675 -8 88.75 C-6.14471994 77.18810976 -6.65226902 66.99933426 -9 55.625 C-10.7440353 47.06716522 -11.41290773 38.79644568 -11.4375 30.0625 C-11.44716797 28.96695801 -11.45683594 27.87141602 -11.46679688 26.74267578 C-11.39581418 20.01915321 -10.9811352 14.63274945 -6.5703125 9.2578125 C-3.43170068 6.79781945 -0.99739152 5.35271102 3 5 C3 3.68 3 2.36 3 1 C2.01 0.67 1.02 0.34 0 0 Z " fill="#F5D232" transform="translate(290,336)"/>
<path d="M0 0 C0.33 0 0.66 0 1 0 C1 22.77 1 45.54 1 69 C-92.39 69 -185.78 69 -282 69 C-279 67 -279 67 -275.875 65.375 C-272.76285744 63.62645869 -270.30245342 61.55019574 -267.6875 59.125 C-255.85036754 48.33114023 -242.8267219 43.82451217 -226.98266602 43.87060547 C-226.22542236 43.86885315 -225.46817871 43.86710083 -224.68798828 43.86529541 C-222.20993692 43.86093063 -219.73195821 43.86379612 -217.25390625 43.8671875 C-215.51570116 43.86651285 -213.77749615 43.86554148 -212.03929138 43.86428833 C-208.40566098 43.86281857 -204.77205525 43.8649424 -201.13842773 43.86962891 C-196.50081444 43.87532147 -191.86325909 43.87204557 -187.22564793 43.86605644 C-183.63868276 43.86242768 -180.05173114 43.8636001 -176.46476555 43.86618423 C-174.75568574 43.86684733 -173.04660466 43.86604688 -171.33752632 43.86370468 C-148.58961678 43.83936921 -148.58961678 43.83936921 -144.640625 46.72265625 C-142.84178003 49.21962438 -141.27692233 51.76538592 -139.75 54.4375 C-135.2525498 61.62958455 -130.58055484 64.64919513 -122.34838867 66.59643555 C-117.79229094 67.37938903 -113.236984 67.36896337 -108.625 67.375 C-107.64789063 67.39949219 -106.67078125 67.42398438 -105.6640625 67.44921875 C-96.47451843 67.48587917 -88.67117431 65.33240687 -81.9375 58.8125 C-81.1021875 58.02101563 -80.266875 57.22953125 -79.40625 56.4140625 C-77.90590066 54.9088419 -76.42323403 53.38552241 -74.96875 51.8359375 C-63.22285926 39.41239921 -49.27883098 31.92572513 -33.90771484 24.80151367 C-22.13508095 19.28085809 -10.17921237 12.41593943 -1 3 C-0.67 2.01 -0.34 1.02 0 0 Z " fill="#FDFDFD" transform="translate(412,415)"/>
<path d="M0 0 C0.721875 0.01675781 1.44375 0.03351563 2.1875 0.05078125 C7.60297609 0.42097981 11.33165363 2.08948896 15 6 C17.08445947 9.1860031 18.58190108 12.47293346 20 16 C20.32097656 16.76183594 20.64195312 17.52367188 20.97265625 18.30859375 C23.7901868 26.07973614 24.87461701 36.63583617 22.09765625 44.58203125 C21 46.5 21 46.5 19 49 C13.58461538 49.36923077 13.58461538 49.36923077 10.625 47.5 C10.08875 47.005 9.5525 46.51 9 46 C9.88203753 39.44772118 9.88203753 39.44772118 10.515625 37.04296875 C11.6920202 32.08123737 11.87813754 27.5286098 9.3125 23.0625 C5.15499579 19.3544557 1.37032342 18.57959887 -4.07421875 18.75390625 C-7.05309603 19.13457414 -8.72791991 20.05250278 -11 22 C-14.58905124 27.07417589 -14.54163629 32.02194016 -14 38 C-13.23825687 41.80871564 -12.15594837 42.85822875 -9.25 45.5 C-3.72909751 49.1767597 2.76730054 50.89249076 9 53 C10.90234817 53.69064578 12.7992027 54.39681497 14.6875 55.125 C15.45449219 55.41632813 16.22148437 55.70765625 17.01171875 56.0078125 C19.24422993 57.12187505 20.52381493 57.97947168 22 60 C22.71739343 64.84433415 22.41150759 69.63688112 21 74.3125 C19.42110315 80.13468213 19.85027344 86.0026194 20 92 C19.34 91.67 18.68 91.34 18 91 C18 89.02 18 87.04 18 85 C15.36 85.99 12.72 86.98 10 88 C9.67 87.01 9.34 86.02 9 85 C3.73542458 84.29529305 0.17128189 86.75905493 -4.25 89.25 C-5.78152046 90.08522776 -7.31406184 90.91858643 -8.84765625 91.75 C-9.57355957 92.14574219 -10.29946289 92.54148437 -11.04736328 92.94921875 C-14.61536258 94.86928239 -18.23640037 96.50742716 -22 98 C-23.57974609 98.66515625 -23.57974609 98.66515625 -25.19140625 99.34375 C-33.19088328 102.50490448 -40.38419279 104.30026992 -49 103 C-52.3125 101.375 -52.3125 101.375 -55 99 C-56.45644763 97.97647809 -57.91487944 96.95577538 -59.375 95.9375 C-61.4609375 94.46484375 -61.4609375 94.46484375 -63 93 C-63 92.01 -63 91.02 -63 90 C-61.83766846 90.03927612 -61.83766846 90.03927612 -60.65185547 90.0793457 C-38.79362587 91.58903143 -38.79362587 91.58903143 -19.13964844 83.51855469 C-16.86993869 81.90769268 -14.9456774 81.14290233 -12.296875 80.31640625 C-11.39839844 80.02830078 -10.49992187 79.74019531 -9.57421875 79.44335938 C-8.64222656 79.15267578 -7.71023437 78.86199219 -6.75 78.5625 C-0.16799534 76.50273061 5.90784657 74.25343875 12 71 C12 69.68 12 68.36 12 67 C8.46238166 67.30322443 7.21828407 67.77048348 4.72265625 70.39453125 C1.71956962 73.2683602 -0.45193375 74.21974528 -4.375 75.5 C-5.60992187 75.90992188 -6.84484375 76.31984375 -8.1171875 76.7421875 C-8.7575293 76.94811523 -9.39787109 77.15404297 -10.05761719 77.36621094 C-11.96714869 77.98928079 -13.8627661 78.65448539 -15.7578125 79.3203125 C-29.99780583 84.28498658 -44.76609226 88.53668885 -59.875 85.125 C-63.87534787 82.40476345 -66.72149331 79.09595035 -69.7890625 75.375 C-72.02837273 72.96952187 -74.13243464 71.565906 -77 70 C-78 69 -78 69 -78.4375 65.375 C-78.3661803 60.93732987 -76.86185574 58.7881256 -73.83984375 55.65234375 C-71.3513077 53.41741647 -68.74121477 51.42378223 -66.0234375 49.4765625 C-62.86007746 47.16816463 -59.90420453 44.62481271 -57 42 C-56.45085937 41.56429687 -55.90171875 41.12859375 -55.3359375 40.6796875 C-52.84709429 37.55044019 -53.42015063 33.93330561 -53.52734375 30.09765625 C-54.26256238 25.27923996 -56.05582946 21.92068324 -60 19 C-63.70095708 17.92941663 -66.77744797 18.35213352 -70.21875 20.17578125 C-72.25333492 21.91252575 -72.25333492 21.91252575 -72.4609375 24.7421875 C-72.43257812 25.77601562 -72.40421875 26.80984375 -72.375 27.875 C-72.36210937 28.90367188 -72.34921875 29.93234375 -72.3359375 30.9921875 C-71.81725435 35.63621107 -70.90324326 38.2042857 -67.375 41.3125 C-66.59125 41.869375 -65.8075 42.42625 -65 43 C-65.75 47.75 -65.75 47.75 -68 50 C-70.375 50.125 -70.375 50.125 -73 49 C-77.64081711 42.11560906 -78.25853193 35.45364918 -78.375 27.375 C-78.41238281 26.41464844 -78.44976562 25.45429687 -78.48828125 24.46484375 C-78.57356442 17.48109944 -77.17025877 12.64853629 -73 7 C-69.52736051 3.68887862 -66.74644762 2.70855385 -62.0625 2.375 C-57.36821738 2.57295168 -54.87015049 3.94615016 -51.47265625 7.1015625 C-46.89707062 13.00006281 -46.3449872 18.66443945 -45.8125 25.875 C-45.73064453 26.84953125 -45.64878906 27.8240625 -45.56445312 28.828125 C-45.36529032 31.21807871 -45.17747754 33.60835472 -45 36 C-44.05898437 36.04898438 -43.11796875 36.09796875 -42.1484375 36.1484375 C-40.90320313 36.22320312 -39.65796875 36.29796875 -38.375 36.375 C-37.14523438 36.44460937 -35.91546875 36.51421875 -34.6484375 36.5859375 C-31.16346145 36.9814487 -28.26950399 37.76261849 -25 39 C-25.02320313 37.70964844 -25.04640625 36.41929688 -25.0703125 35.08984375 C-25.08908236 33.37240166 -25.10728125 31.65495326 -25.125 29.9375 C-25.14175781 29.08994141 -25.15851563 28.24238281 -25.17578125 27.36914062 C-25.25879757 16.61852729 -21.82538309 10.37685545 -14.8125 2.5625 C-10.5915069 -1.07628716 -5.23698621 -0.16365582 0 0 Z " fill="#F5D232" transform="translate(225,67)"/>
<path d="M0 0 C1.32 1.65 2.64 3.3 4 5 C11.05798017 9.1862542 19.84980835 10.6080868 27.75 12.4375 C29.02770264 12.74115479 30.30540527 13.04480957 31.62182617 13.35766602 C37.38258843 14.72380082 43.15095841 16.04648554 48.94140625 17.28125 C67.36129691 21.22389183 84.88383913 27.16791139 102.29248047 34.33325195 C108.08676395 36.7010335 113.8756223 38.65151317 120 40 C120 40.33 120 40.66 120 41 C80.4 41 40.8 41 0 41 C0 27.47 0 13.94 0 0 Z " fill="#FDFDFD" transform="translate(0,443)"/>
<path d="M0 0 C0.721875 0.01675781 1.44375 0.03351563 2.1875 0.05078125 C7.60297609 0.42097981 11.33165363 2.08948896 15 6 C17.08445947 9.1860031 18.58190108 12.47293346 20 16 C20.32097656 16.76183594 20.64195312 17.52367188 20.97265625 18.30859375 C23.7901868 26.07973614 24.87461701 36.63583617 22.09765625 44.58203125 C21 46.5 21 46.5 19 49 C13.58461538 49.36923077 13.58461538 49.36923077 10.625 47.5 C10.08875 47.005 9.5525 46.51 9 46 C9.88203753 39.44772118 9.88203753 39.44772118 10.515625 37.04296875 C11.6920202 32.08123737 11.87813754 27.5286098 9.3125 23.0625 C5.15499579 19.3544557 1.37032342 18.57959887 -4.07421875 18.75390625 C-7.05309603 19.13457414 -8.72791991 20.05250278 -11 22 C-13.70971781 26.51619635 -14.44073364 30.14355316 -14.6875 35.375 C-14.75324219 36.62023437 -14.81898438 37.86546875 -14.88671875 39.1484375 C-14.92410156 40.08945313 -14.96148437 41.03046875 -15 42 C-17.97 41.34 -20.94 40.68 -24 40 C-24.99642964 35.83890984 -25.16583096 31.89813527 -25.1875 27.625 C-25.20167969 26.35914062 -25.21585938 25.09328125 -25.23046875 23.7890625 C-24.6676371 14.53572856 -20.77084734 9.20180132 -14.8125 2.5625 C-10.5915069 -1.07628716 -5.23698621 -0.16365582 0 0 Z " fill="#F5F5F5" transform="translate(225,67)"/>
<path d="M0 0 C13.06976744 3.06976744 13.06976744 3.06976744 18 8 C18.36491807 12.9051778 18.42601162 17.58883651 17 22.3125 C15.42110315 28.13468213 15.85027344 34.0026194 16 40 C15.34 39.67 14.68 39.34 14 39 C14 37.02 14 35.04 14 33 C11.36 33.99 8.72 34.98 6 36 C5.67 35.01 5.34 34.02 5 33 C-0.26457542 32.29529305 -3.82871811 34.75905493 -8.25 37.25 C-9.78152046 38.08522776 -11.31406184 38.91858643 -12.84765625 39.75 C-13.57355957 40.14574219 -14.29946289 40.54148438 -15.04736328 40.94921875 C-18.61536258 42.86928239 -22.23640037 44.50742716 -26 46 C-27.57974609 46.66515625 -27.57974609 46.66515625 -29.19140625 47.34375 C-37.19088328 50.50490448 -44.38419279 52.30026992 -53 51 C-56.3125 49.375 -56.3125 49.375 -59 47 C-60.45644763 45.97647809 -61.91487944 44.95577538 -63.375 43.9375 C-65.4609375 42.46484375 -65.4609375 42.46484375 -67 41 C-67 40.01 -67 39.02 -67 38 C-65.83766846 38.03927612 -65.83766846 38.03927612 -64.65185547 38.0793457 C-42.79362587 39.58903143 -42.79362587 39.58903143 -23.13964844 31.51855469 C-20.86993869 29.90769268 -18.9456774 29.14290233 -16.296875 28.31640625 C-14.94916016 27.88424805 -14.94916016 27.88424805 -13.57421875 27.44335938 C-12.64222656 27.15267578 -11.71023437 26.86199219 -10.75 26.5625 C-4.16799534 24.50273061 1.90784657 22.25343875 8 19 C8 17.68 8 16.36 8 15 C4.06924356 15.57452746 4.06924356 15.57452746 1 18 C1 16.68 1 15.36 1 14 C0.34 14 -0.32 14 -1 14 C-1 13.01 -1 12.02 -1 11 C0.32 11 1.64 11 3 11 C3.309375 10.21625 3.61875 9.4325 3.9375 8.625 C5 6 5 6 6 4 C4.35 4 2.7 4 1 4 C0.505 2.02 0.505 2.02 0 0 Z " fill="#F0D038" transform="translate(229,119)"/>
<path d="M0 0 C0.99 0 1.98 0 3 0 C3.97240972 2.91722917 4.16063645 5.07905116 4.3125 8.125 C5.262666 18.88882075 10.35113397 25.98735438 18.2890625 33.03125 C23.43273033 37.2768171 28.80647722 40.88485469 34.5546875 44.26171875 C37.87824255 46.6243098 40.36191216 49.15895968 41.71484375 53.0625 C41.78832031 53.701875 41.86179687 54.34125 41.9375 55 C42.02902344 55.639375 42.12054688 56.27875 42.21484375 56.9375 C41.81911111 60.73653331 39.74355179 63.26856311 37.08203125 65.88671875 C23.20634874 76.89651158 8.07880631 84.70637579 -8 92 C-10 89 -10 89 -9.625 86.8125 C-9.41875 86.214375 -9.2125 85.61625 -9 85 C-9.99 85 -10.98 85 -12 85 C-12.495 85.99 -12.495 85.99 -13 87 C-13.33 86.01 -13.66 85.02 -14 84 C-7.69014318 81.02873743 -1.33290176 78.72069341 5.3125 76.625 C21.4833951 71.69432524 21.4833951 71.69432524 34 61 C35.10761021 57.89207881 35.83022965 55.2255544 35 52 C30.95720448 47.85163225 26.99126638 45.93350904 21.4375 44.3125 C12.22043524 41.47294565 6.56352984 39.49554807 1.765625 30.75 C-1.30751847 24.15832995 -2.14821117 18.15129078 -2.1875 10.875 C-2.20167969 9.67617188 -2.21585937 8.47734375 -2.23046875 7.2421875 C-2.01401445 4.19715247 -1.60279273 2.54672995 0 0 Z " fill="#0C0906" transform="translate(371,356)"/>
<path d="M0 0 C7.6549956 1.37180231 13.26301759 8.94978067 17.7890625 14.80859375 C25.38030344 25.76626839 31.85234262 37.3056547 36 50 C36.34933594 50.88042969 36.69867188 51.76085937 37.05859375 52.66796875 C42.07811056 70.43414235 39.99571902 90.84796095 34 108 C34.72832031 108.10699219 35.45664062 108.21398437 36.20703125 108.32421875 C39.21135413 109.05113883 41.13004257 110.09739697 43.6875 111.8125 C44.45449219 112.31394531 45.22148437 112.81539063 46.01171875 113.33203125 C48.10479071 115.08790891 48.98253798 116.49171127 50 119 C45.67186791 118.45898349 41.9477689 117.33243731 37.9296875 115.71875 C33.59989937 114.10603539 29.8878103 113.8911219 25.25 113.9375 C23.49429687 113.95103516 23.49429687 113.95103516 21.703125 113.96484375 C20.81109375 113.97644531 19.9190625 113.98804688 19 114 C20.72284205 110.04384419 22.04399322 109.58240271 26 108 C27.08810839 106.180104 27.08810839 106.180104 28 104 C28.34812744 103.29641357 28.69625488 102.59282715 29.05493164 101.86791992 C32.16274576 94.93846221 32.59175547 88.84392646 32.4375 81.3125 C32.42211182 80.16346191 32.40672363 79.01442383 32.39086914 77.83056641 C31.7934914 51.46034049 19.5633603 29.14422468 4.49121094 8.03710938 C2.58683637 5.36737348 1.04404346 3.13213038 0 0 Z " fill="#EEEEEE" transform="translate(289,207)"/>
<path d="M0 0 C4.99595631 2.72167769 8.01098132 6.69595018 10 12 C10.93630217 16.50716492 11.1058696 20.77782192 11.0625 25.375 C11.05347656 26.62023437 11.04445312 27.86546875 11.03515625 29.1484375 C11.02355469 30.08945313 11.01195312 31.03046875 11 32 C9.02 32.66 7.04 33.32 5 34 C4.92523438 33.3709375 4.85046875 32.741875 4.7734375 32.09375 C3.79248232 25.70792413 2.1924671 20.20179903 -3 16 C-6.69310699 14.91337429 -9.78437365 15.35580364 -13.21875 17.17578125 C-15.25333492 18.91252575 -15.25333492 18.91252575 -15.4609375 21.7421875 C-15.43257812 22.77601562 -15.40421875 23.80984375 -15.375 24.875 C-15.36210937 25.90367188 -15.34921875 26.93234375 -15.3359375 27.9921875 C-14.81725435 32.63621107 -13.90324326 35.2042857 -10.375 38.3125 C-9.59125 38.869375 -8.8075 39.42625 -8 40 C-8.75 44.75 -8.75 44.75 -11 47 C-13.375 47.125 -13.375 47.125 -16 46 C-20.64081711 39.11560906 -21.25853193 32.45364918 -21.375 24.375 C-21.41238281 23.41464844 -21.44976562 22.45429687 -21.48828125 21.46484375 C-21.57356442 14.48109944 -20.17025877 9.64853629 -16 4 C-11.29513718 -0.48603199 -6.25036654 -1.3054563 0 0 Z " fill="#F3F3F2" transform="translate(168,70)"/>
<path d="M0 0 C3.68774628 3.05987568 6.77215223 6.79638652 7.2734375 11.64453125 C7.54863211 20.2284861 7.54863211 20.2284861 5 23.8125 C4.01 24.534375 3.02 25.25625 2 26 C0.59704626 27.24200302 -0.79842453 28.49249452 -2.1875 29.75 C-5.7279597 32.86397985 -5.7279597 32.86397985 -8 34 C-8.99 33.34 -9.98 32.68 -11 32 C-10.38125 31.773125 -9.7625 31.54625 -9.125 31.3125 C-6.38589791 29.62070165 -5.94975528 28.00755839 -5 25 C-5.598125 24.731875 -6.19625 24.46375 -6.8125 24.1875 C-9.59476267 22.67712883 -11.55839832 21.36495064 -12.55859375 18.2734375 C-13.47924951 13.53165295 -13.57547016 8.79112364 -13 4 C-9.84602579 -0.33671454 -5.1461281 -1.53780781 0 0 Z " fill="#0B0A09" transform="translate(165,85)"/>
<path d="M0 0 C1.65 0.33 3.3 0.66 5 1 C4.953125 3.27734375 4.953125 3.27734375 4 6 C1.53609006 7.47405557 -0.60853873 8.52551772 -3.25 9.5625 C-3.96639648 9.8605957 -4.68279297 10.15869141 -5.42089844 10.46582031 C-10.95634737 12.71973151 -16.55567488 14.52513081 -22.328125 16.078125 C-25.09303498 17.03209979 -26.70155255 18.22957426 -29 20 C-42.19280976 26.48676934 -55.73878343 26.11277282 -70 24 C-69.01 22.68 -68.02 21.36 -67 20 C-67.66 20 -68.32 20 -69 20 C-68.67 19.34 -68.34 18.68 -68 18 C-67.20916016 18.23589844 -67.20916016 18.23589844 -66.40234375 18.4765625 C-49.71239113 22.1130725 -31.37883926 15.88062303 -16.18359375 9.33984375 C-13.40775671 8.17160804 -10.70202756 7.26642444 -7.8125 6.4375 C-3.97869364 5.23672291 -2.1537824 3.46478038 0 0 Z " fill="#1F1504" transform="translate(233,133)"/>
<path d="M0 0 C0.66 0 1.32 0 2 0 C1.93288818 0.58193115 1.86577637 1.1638623 1.79663086 1.76342773 C1.06259473 8.53080165 0.68716519 15.2575 0.5625 22.0625 C0.51673828 23.08666016 0.47097656 24.11082031 0.42382812 25.16601562 C0.31091629 32.84892946 2.20744855 37.08477005 7 43 C7.66 43.99 8.32 44.98 9 46 C6.69 46.66 4.38 47.32 2 48 C-5.25595199 36.19088616 -6.44871057 24.66210616 -5 11 C-4.03408097 7.07135176 -2.94245369 2.94245369 0 0 Z " fill="#E0E0E0" transform="translate(86,277)"/>
<path d="M0 0 C0.33 0 0.66 0 1 0 C1.16435547 1.19882812 1.16435547 1.19882812 1.33203125 2.421875 C2.29412254 9.08611714 3.52654065 15.48696102 5.4140625 21.953125 C7.00389002 30.2202281 5.45544749 37.11547739 3 45.0625 C2.71382813 46.02349609 2.42765625 46.98449219 2.1328125 47.97460938 C1.43272118 50.3199153 0.7216778 52.66126488 0 55 C-0.33 55 -0.66 55 -1 55 C-1.02545887 48.45297073 -1.0429125 41.90595435 -1.05493164 35.35888672 C-1.05994495 33.13394697 -1.06675728 30.90901049 -1.07543945 28.68408203 C-1.08763687 25.47687979 -1.09325847 22.2697213 -1.09765625 19.0625 C-1.10281754 18.07572266 -1.10797882 17.08894531 -1.11329651 16.07226562 C-1.11373464 10.61750194 -0.80556782 5.39646817 0 0 Z " fill="#F5F5F5" transform="translate(1,382)"/>
<path d="M0 0 C2.39830935 1.06591527 4.18242152 2.1563613 6.1875 3.875 C9.84978505 6.64205981 13.77151452 8.26807131 18 10 C18.36923077 16.4 18.36923077 16.4 16.5 19.4375 C16.005 19.953125 15.51 20.46875 15 21 C9.38057231 20.50416814 5.99946759 17.30182611 2.3984375 13.15625 C0.79663378 10.68642974 0.27858947 8.698428 -0.25 5.8125 C-0.50523437 4.49185547 -0.50523437 4.49185547 -0.765625 3.14453125 C-0.84296875 2.43683594 -0.9203125 1.72914063 -1 1 C-0.67 0.67 -0.34 0.34 0 0 Z " fill="#F1F1F1" transform="translate(263,143)"/>
<path d="M0 0 C1.32 0.66 2.64 1.32 4 2 C3.688288 4.52093298 3.37565098 7.0417457 3.0625 9.5625 C2.93198242 10.61920898 2.93198242 10.61920898 2.79882812 11.69726562 C2.24615509 16.13911927 1.64605404 20.57074664 1 25 C-8.41002278 24.03644647 -8.41002278 24.03644647 -13 23 C-11.84826645 20.53199953 -10.95216435 18.95216435 -9 17 C-6.875 16.375 -6.875 16.375 -5 16 C-4.95101562 15.24074219 -4.90203125 14.48148438 -4.8515625 13.69921875 C-4.77679688 12.70535156 -4.70203125 11.71148437 -4.625 10.6875 C-4.55539063 9.70136719 -4.48578125 8.71523437 -4.4140625 7.69921875 C-4 5 -4 5 -2 2 C-1.34 2 -0.68 2 0 2 C0 1.34 0 0.68 0 0 Z " fill="#F5D235" transform="translate(242,126)"/>
<path d="M0 0 C13.06976744 3.06976744 13.06976744 3.06976744 18 8 C18.36491807 12.9051778 18.42601162 17.58883651 17 22.3125 C15.42110315 28.13468213 15.85027344 34.0026194 16 40 C15.34 39.67 14.68 39.34 14 39 C14 37.02 14 35.04 14 33 C11.36 33.99 8.72 34.98 6 36 C5.505 34.515 5.505 34.515 5 33 C3.02 33 1.04 33 -1 33 C-1 32.34 -1 31.68 -1 31 C4.12583611 30.89748328 8.94997778 30.96409801 14 32 C13.979375 31.01902344 13.95875 30.03804687 13.9375 29.02734375 C13.9375 24.81832039 14.43595955 20.72801497 15 16.5625 C15.09539062 15.83095703 15.19078125 15.09941406 15.2890625 14.34570312 C15.52205938 12.563277 15.76046266 10.78155896 16 9 C15.01 8.34 14.02 7.68 13 7 C13 7.66 13 8.32 13 9 C12.02246356 10.02196992 11.0194119 11.01979625 10 12 C9.01 13.485 9.01 13.485 8 15 C6.34178227 15.37309899 4.67422986 15.70700977 3 16 C2.34 16.66 1.68 17.32 1 18 C1 16.68 1 15.36 1 14 C0.34 14 -0.32 14 -1 14 C-1 13.01 -1 12.02 -1 11 C0.32 11 1.64 11 3 11 C3.309375 10.21625 3.61875 9.4325 3.9375 8.625 C5 6 5 6 6 4 C4.35 4 2.7 4 1 4 C0.67 2.68 0.34 1.36 0 0 Z " fill="#EED041" transform="translate(229,119)"/>
<path d="M0 0 C3.0428519 3.0428519 3.17828546 6.24859369 3.3125 10.4375 C3.21526651 18.65372989 0.87077179 28.14218809 -4.49609375 34.56640625 C-10.69454478 40.47505957 -16.7863527 41.63561812 -25.1784668 41.53686523 C-33.35859301 41.18573675 -41.14753257 39.20144268 -49 37 C-49 36.67 -49 36.34 -49 36 C-47.10448978 35.94558344 -45.2085208 35.90701965 -43.3125 35.875 C-42.25675781 35.85179687 -41.20101562 35.82859375 -40.11328125 35.8046875 C-37 36 -37 36 -34.546875 36.99609375 C-31.24122141 38.29908911 -28.47950585 38.22917066 -24.9375 38.1875 C-23.72964844 38.18105469 -22.52179688 38.17460937 -21.27734375 38.16796875 C-18.63290607 38.03243738 -16.51633905 37.72642582 -14 37 C-13.34 37 -12.68 37 -12 37 C-12 35.35 -12 33.7 -12 32 C-11.34 31.67 -10.68 31.34 -10 31 C-9.505 31.99 -9.505 31.99 -9 33 C-7.02 32.505 -7.02 32.505 -5 32 C-5 31.01 -5 30.02 -5 29 C-4.34 29 -3.68 29 -3 29 C-0.66621161 19.08139933 0.42511001 10.21838503 0 0 Z " fill="#E5C949" transform="translate(146,429)"/>
<path d="M0 0 C4.00995353 0.38650155 5.26059775 1.54247357 8.1171875 4.3125 C8.89835937 5.055 9.67953125 5.7975 10.484375 6.5625 C11.06445312 7.14 11.64453125 7.7175 12.2421875 8.3125 C11.9121875 9.3025 11.5821875 10.2925 11.2421875 11.3125 C9.4478125 11.43625 9.4478125 11.43625 7.6171875 11.5625 C3.30844249 12.07164624 0.8087073 13.85556414 -2.7578125 16.3125 C-5.6328125 16.5625 -5.6328125 16.5625 -7.7578125 16.3125 C-6.8828125 12.4375 -6.8828125 12.4375 -5.7578125 11.3125 C-5.38910162 9.65330104 -5.06185928 7.98475729 -4.7578125 6.3125 C-3.68602707 0.41768012 -3.68602707 0.41768012 0 0 Z " fill="#F0F0F0" transform="translate(235.7578125,25.6875)"/>
<path d="M0 0 C0.33 1.65 0.66 3.3 1 5 C-0.85625 5.37125 -0.85625 5.37125 -2.75 5.75 C-6.54878169 6.71647449 -8.64133191 7.73415188 -11 11 C-13.21215246 16.25386209 -13.42210888 21.26167898 -13.625 26.875 C-13.66367187 27.75414062 -13.70234375 28.63328125 -13.7421875 29.5390625 C-13.83581034 31.69238793 -13.91896459 33.84616414 -14 36 C-14.33 36 -14.66 36 -15 36 C-15 29.07 -15 22.14 -15 15 C-16.98 15.99 -16.98 15.99 -19 17 C-19.57883291 11.44320407 -18.60563079 8.26980813 -15.41015625 3.66796875 C-11.3989377 -1.07660277 -5.70400523 -0.22368648 0 0 Z " fill="#1B150A" transform="translate(293,337)"/>
<path d="M0 0 C0 0.66 0 1.32 0 2 C-6.29704555 4.74392289 -11.66627463 5.51367704 -18.5 5.6875 C-19.4178125 5.72166016 -20.335625 5.75582031 -21.28125 5.79101562 C-23.5207109 5.87266264 -25.7598215 5.94207538 -28 6 C-27.6446591 7.9637336 -27.6446591 7.9637336 -27 10 C-22.10395076 13.15874144 -15.24436706 12.64332748 -9.71484375 11.546875 C-7.80563219 11.04726824 -5.90243783 10.52481044 -4 10 C-2.68 10 -1.36 10 0 10 C0 9.34 0 8.68 0 8 C1.32 8.33 2.64 8.66 4 9 C-1.16445961 14.16445961 -9.85799717 15.29053723 -16.875 15.5 C-22.11320025 15.31314387 -24.98610442 14.54716354 -29 11 C-30.45644763 9.97647809 -31.91487944 8.95577538 -33.375 7.9375 C-35.4609375 6.46484375 -35.4609375 6.46484375 -37 5 C-37 4.01 -37 3.02 -37 2 C-36.18321777 2.01047363 -35.36643555 2.02094727 -34.52490234 2.03173828 C-30.80829978 2.07342671 -27.09174654 2.09936727 -23.375 2.125 C-21.44720703 2.15013672 -21.44720703 2.15013672 -19.48046875 2.17578125 C-18.23652344 2.18222656 -16.99257812 2.18867188 -15.7109375 2.1953125 C-14.56931152 2.20578613 -13.42768555 2.21625977 -12.25146484 2.22705078 C-7.92914102 1.92522159 -4.3042737 0 0 0 Z " fill="#D5BA4A" transform="translate(199,155)"/>
<path d="M0 0 C1.19099104 2.38198208 2.34197368 4.75828946 3.4375 7.1875 C4.74724316 10.29115029 4.74724316 10.29115029 8 11 C8 11.66 8 12.32 8 13 C8.99 13 9.98 13 11 13 C11.33 14.32 11.66 15.64 12 17 C13.60416667 17.14583333 15.20833333 17.29166667 16.8125 17.4375 C18.30136719 17.57285156 18.30136719 17.57285156 19.8203125 17.7109375 C20.86960937 17.80632812 21.91890625 17.90171875 23 18 C25.0625 18.1875 27.125 18.375 29.1875 18.5625 C30.10917969 18.64628906 31.03085937 18.73007812 31.98046875 18.81640625 C32.64691406 18.87699219 33.31335938 18.93757813 34 19 C34 18.34 34 17.68 34 17 C34.804375 16.731875 35.60875 16.46375 36.4375 16.1875 C37.283125 15.795625 38.12875 15.40375 39 15 C39.33 14.01 39.66 13.02 40 12 C42.33333333 11.33333333 44.66666667 10.66666667 47 10 C47.33 9.01 47.66 8.02 48 7 C51.0625 5.3125 51.0625 5.3125 54 4 C54 3.01 54 2.02 54 1 C56.475 1.495 56.475 1.495 59 2 C48.709884 12.47754981 39.63226853 20.986897 24.375 21.5 C16.75917759 21.24741494 12.27292461 20.19095512 6.81640625 14.87109375 C0.72761343 8.28304162 0.72761343 8.28304162 -1 4 C-0.625 1.75 -0.625 1.75 0 0 Z " fill="#E0C84C" transform="translate(282,448)"/>
<path d="M0 0 C2.475 0.495 2.475 0.495 5 1 C4.953125 3.27734375 4.953125 3.27734375 4 6 C1.53609006 7.47405557 -0.60853873 8.52551772 -3.25 9.5625 C-3.96639648 9.8605957 -4.68279297 10.15869141 -5.42089844 10.46582031 C-10.95634737 12.71973151 -16.55567488 14.52513081 -22.328125 16.078125 C-25.05061899 17.01746503 -26.75802654 18.2341979 -29 20 C-29.66 20 -30.32 20 -31 20 C-31.33 19.34 -31.66 18.68 -32 18 C-32.99 17.34 -33.98 16.68 -35 16 C-34.1028125 15.70867187 -33.205625 15.41734375 -32.28125 15.1171875 C-28.17878253 13.76947608 -24.0878716 12.39119356 -20 11 C-19.26861816 10.75411133 -18.53723633 10.50822266 -17.78369141 10.25488281 C-15.6200943 9.52072811 -13.46587 8.76356742 -11.3125 8 C-10.6421875 7.77554199 -9.971875 7.55108398 -9.28125 7.31982422 C-4.87786288 5.72460531 -2.59256563 3.88556672 0 0 Z " fill="#2B1D06" transform="translate(233,133)"/>
<path d="M0 0 C0.33 0 0.66 0 1 0 C1 2.31 1 4.62 1 7 C1.99 6.34 2.98 5.68 4 5 C6.1875 5.375 6.1875 5.375 8 6 C7.34 6.66 6.68 7.32 6 8 C4.68 8 3.36 8 2 8 C3.25541557 10.51083114 4.50063488 10.87125446 7 12 C7 12.66 7 13.32 7 14 C7.66 14.33 8.32 14.66 9 15 C5.12435233 18.61139896 5.12435233 18.61139896 3 20 C0.625 19.8125 0.625 19.8125 -1 19 C-1 18.34 -1 17.68 -1 17 C-1.99 16.67 -2.98 16.34 -4 16 C-4.515625 16.5775 -5.03125 17.155 -5.5625 17.75 C-8.55128812 20.50888134 -11.35891705 22.17945853 -15 24 C-15.66 23.67 -16.32 23.34 -17 23 C-15.44233138 21.55726615 -13.87864043 20.12103292 -12.3125 18.6875 C-11.44238281 17.88699219 -10.57226562 17.08648437 -9.67578125 16.26171875 C-7.21771471 14.18402455 -4.75225621 12.64364163 -2 11 C-0.85185003 8.70370006 -0.69230191 6.92301914 -0.4375 4.375 C-0.35371094 3.55773437 -0.26992187 2.74046875 -0.18359375 1.8984375 C-0.09271484 0.95871094 -0.09271484 0.95871094 0 0 Z " fill="#E1C850" transform="translate(172,97)"/>
<path d="M0 0 C2.97 0.33 5.94 0.66 9 1 C9 5 9 5 7.4375 7.1875 C4.31071692 9.51254383 1.83734945 9.65115005 -2 10 C-2.99 10.33 -3.98 10.66 -5 11 C-6.22520264 14.00847418 -6.22520264 14.00847418 -7 17 C-7.33 17 -7.66 17 -8 17 C-8.82650905 23.00087244 -9.2790899 28.95082054 -9.5625 35 C-9.60568359 35.87011719 -9.64886719 36.74023438 -9.69335938 37.63671875 C-9.79824218 39.75768219 -9.89950075 41.87882433 -10 44 C-10.33 44 -10.66 44 -11 44 C-11.08760181 39.81263332 -11.14059435 35.62550469 -11.1875 31.4375 C-11.21263672 30.25607422 -11.23777344 29.07464844 -11.26367188 27.85742188 C-11.32425957 20.64748572 -11.30830711 15.03143435 -6.5703125 9.2578125 C-3.43170068 6.79781945 -0.99739152 5.35271102 3 5 C3 3.68 3 2.36 3 1 C2.01 0.67 1.02 0.34 0 0 Z " fill="#E0C75F" transform="translate(290,336)"/>
<path d="M0 0 C0.33 1.65 0.66 3.3 1 5 C-4.625 9 -4.625 9 -8 9 C-8 8.01 -8 7.02 -8 6 C-8.99 5.67 -9.98 5.34 -11 5 C-11 5.66 -11 6.32 -11 7 C-13 8 -15 9 -17 10 C-17.680625 10.37125 -18.36125 10.7425 -19.0625 11.125 C-21 12 -21 12 -23.6875 12.5 C-24.450625 12.665 -25.21375 12.83 -26 13 C-26.33 13.66 -26.66 14.32 -27 15 C-27.99 14.01 -28.98 13.02 -30 12 C-29.45214844 11.8040625 -28.90429688 11.608125 -28.33984375 11.40625 C-21.98709115 9.00976447 -16.13840304 6.02861363 -10.26733398 2.64257812 C-6.69304003 0.64569205 -4.11832515 -0.47066573 0 0 Z " fill="#0E0D0B" transform="translate(234,151)"/>
<path d="M0 0 C4.91200073 1.63733358 7.57516084 4.00522518 10.5625 8.1875 C11.9617319 10.29101558 11.9617319 10.29101558 15 11 C17.76438651 11.15163302 20.48457761 11.23820163 23.25 11.25 C24.44423584 11.25592163 24.44423584 11.25592163 25.66259766 11.26196289 C32.35345585 11.19741015 38.47792324 10.14756783 44.9609375 8.55859375 C47.92138195 8.01445036 49.20822269 8.17496843 52 9 C25.60698792 16.16931985 25.60698792 16.16931985 12.125 13.125 C7.29931536 9.84353444 3.60713321 5.56412774 0 1 C0 0.67 0 0.34 0 0 Z " fill="#DBC155" transform="translate(153,139)"/>
<path d="M0 0 C0.66 0 1.32 0 2 0 C0.78461236 3.45918019 -0.44032926 5.44032926 -3 8 C-3 8.99 -3 9.98 -3 11 C-7.75 12 -7.75 12 -10 12 C-10.33 12.99 -10.66 13.98 -11 15 C-11.66 15 -12.32 15 -13 15 C-11.68 17.31 -10.36 19.62 -9 22 C-12.875 20.125 -12.875 20.125 -14 19 C-14.79235939 12.43473647 -14.79235939 12.43473647 -12.90625 9.01953125 C-9.46653574 4.7290366 -6.13690609 2.81302568 -1 1 C-0.67 0.67 -0.34 0.34 0 0 Z " fill="#EACC41" transform="translate(161,117)"/>
<path d="M0 0 C0.33 0 0.66 0 1 0 C1 1.65 1 3.3 1 5 C1.66 5 2.32 5 3 5 C3.33 7.31 3.66 9.62 4 12 C3.01 12.495 3.01 12.495 2 13 C1.34 12.34 0.68 11.68 0 11 C0.66 11 1.32 11 2 11 C1.67 10.01 1.34 9.02 1 8 C-1.31 7.67 -3.62 7.34 -6 7 C-6 6.34 -6 5.68 -6 5 C-9.96 4.67 -13.92 4.34 -18 4 C-18 5.65 -18 7.3 -18 9 C-18.99 9 -19.98 9 -21 9 C-21.33 8.34 -21.66 7.68 -22 7 C-24.01669827 5.86649466 -24.01669827 5.86649466 -26 5 C-26 4.34 -26 3.68 -26 3 C-22.10155216 1.73754928 -18.17775609 1.81621812 -14.125 1.8125 C-13.08279297 1.79413086 -13.08279297 1.79413086 -12.01953125 1.77539062 C-7.62307607 1.76297126 -4.08290765 2.38091593 0 4 C0 2.68 0 1.36 0 0 Z " fill="#DBBE41" transform="translate(200,102)"/>
<path d="M0 0 C1.32 0 2.64 0 4 0 C4.5598619 2.86151638 4.74646002 4.22394935 4 7 C1.29513883 10.63284472 -1.77834757 13.82309274 -5 17 C-5.99 16.67 -6.98 16.34 -8 16 C-6.92598892 13.08482708 -6.22189824 11.22189824 -4 9 C-3.4297902 7.66587276 -2.91269425 6.30834833 -2.4375 4.9375 C-1.09722222 1.09722222 -1.09722222 1.09722222 0 0 Z " fill="#E5E4E4" transform="translate(104,228)"/>
<path d="M0 0 C2.64624284 0.14021805 5.29184578 0.28689776 7.9375 0.4375 C9.06961914 0.49647461 9.06961914 0.49647461 10.22460938 0.55664062 C15.88671875 0.88671875 15.88671875 0.88671875 17 2 C18.99958364 2.04080783 21.00045254 2.04254356 23 2 C23.33 1.34 23.66 0.68 24 0 C25.65 0 27.3 0 29 0 C28.67 1.65 28.34 3.3 28 5 C30.64 4.67 33.28 4.34 36 4 C36 5.65 36 7.3 36 9 C23.95386483 6.51407968 11.95852313 3.87862016 0 1 C0 0.67 0 0.34 0 0 Z " fill="#F2D33E" transform="translate(60,456)"/>
<path d="M0 0 C0.33 0 0.66 0 1 0 C1 1.65 1 3.3 1 5 C3.97 5.495 3.97 5.495 7 6 C7 6.66 7 7.32 7 8 C8.00160156 8.10957031 9.00320312 8.21914063 10.03515625 8.33203125 C23.15469509 9.86349493 23.15469509 9.86349493 29 13 C28.67 13.66 28.34 14.32 28 15 C24.82946803 14.43655118 21.66463796 13.84559198 18.5 13.25 C17.613125 13.09273438 16.72625 12.93546875 15.8125 12.7734375 C9.93590229 11.64997029 5.14287553 10.10457664 0 7 C-1.0625 3.8125 -1.0625 3.8125 -1 1 C-0.67 0.67 -0.34 0.34 0 0 Z " fill="#EED24D" transform="translate(7,435)"/>
<path d="M0 0 C0.99 0 1.98 0 3 0 C4.1577506 3.47325181 4.06866652 6.36067448 4 10 C3.67 9.34 3.34 8.68 3 8 C0.80588454 8.80519618 0.80588454 8.80519618 0.3125 11 C-0.40310102 17.86976981 0.66634012 23.26842841 4.2578125 29.17578125 C5.19816779 31.48707558 4.80652282 32.68762762 4 35 C3.17834491 33.29605107 2.36809355 31.58660102 1.5625 29.875 C1.11003906 28.92367188 0.65757812 27.97234375 0.19140625 26.9921875 C-1.92777505 21.66991578 -2.15679035 16.5624273 -2.1875 10.875 C-2.20167969 9.67617188 -2.21585937 8.47734375 -2.23046875 7.2421875 C-2.01401445 4.19715247 -1.60279273 2.54672995 0 0 Z " fill="#1A1306" transform="translate(371,356)"/>
<path d="M0 0 C1.0415625 0.02578125 2.083125 0.0515625 3.15625 0.078125 C9.69333071 0.39076799 16.22197845 0.78607969 22.75 1.25 C15.39323077 6.15451282 3.93929964 2.8762439 -4.25 1.25 C-4.25 1.91 -4.25 2.57 -4.25 3.25 C-5.24 3.91 -6.23 4.57 -7.25 5.25 C-7.58 6.24 -7.91 7.23 -8.25 8.25 C-7.26 8.58 -6.27 8.91 -5.25 9.25 C-5.25 12.55 -5.25 15.85 -5.25 19.25 C-8.65024307 15.84975693 -9.38342636 11.74730316 -9.625 7.0625 C-9.25 3.25 -9.25 3.25 -7.5546875 1.52734375 C-4.78123807 -0.00980534 -3.15776275 -0.08820566 0 0 Z " fill="#E0C857" transform="translate(17.25,373.75)"/>
<path d="M0 0 C2.88375261 2.6134008 4.86661066 5.63451089 7 8.875 C8.0209375 10.41800781 8.0209375 10.41800781 9.0625 11.9921875 C11.94441975 16.46613549 14.61400044 21.02978351 17.1875 25.6875 C17.71730469 26.64011719 18.24710938 27.59273438 18.79296875 28.57421875 C20 31 20 31 20 33 C18.35 32.34 16.7 31.68 15 31 C15 29.02 15 27.04 15 25 C13.68 24.67 12.36 24.34 11 24 C11.33 22.68 11.66 21.36 12 20 C11.34 20 10.68 20 10 20 C9.7525 19.236875 9.505 18.47375 9.25 17.6875 C8.2280114 14.91610376 8.2280114 14.91610376 6 13.5625 C3.23831063 11.40493018 2.91695818 9.34034764 2 6 C1.62875 4.88625 1.2575 3.7725 0.875 2.625 C0.58625 1.75875 0.2975 0.8925 0 0 Z " fill="#E0C549" transform="translate(125,392)"/>
<path d="M0 0 C0.65355469 0.15339844 1.30710938 0.30679688 1.98046875 0.46484375 C5.75492159 1.13379594 9.48905996 1.35407297 13.3125 1.5625 C14.05306641 1.60568359 14.79363281 1.64886719 15.55664062 1.69335938 C17.37091464 1.79870432 19.1854355 1.89978316 21 2 C20.34 3.32 19.68 4.64 19 6 C12.4 6 5.8 6 -1 6 C-0.01 4.68 0.98 3.36 2 2 C1.34 2 0.68 2 0 2 C0 1.34 0 0.68 0 0 Z " fill="#060300" transform="translate(164,151)"/>
<path d="M0 0 C0.92683594 0.01353516 1.85367187 0.02707031 2.80859375 0.04101562 C5.08133998 0.07616119 7.35285847 0.12535868 9.625 0.1875 C9.625 0.5175 9.625 0.8475 9.625 1.1875 C8.55378906 1.24808594 7.48257812 1.30867188 6.37890625 1.37109375 C4.98175609 1.45548537 3.58462143 1.54013406 2.1875 1.625 C1.12692383 1.68397461 1.12692383 1.68397461 0.04492188 1.74414062 C-3.46190419 1.66374438 -3.46190419 1.66374438 -6.375 3.1875 C-4.828125 3.125625 -4.828125 3.125625 -3.25 3.0625 C0.49329627 3.18325149 3.16234547 3.83622018 6.625 5.1875 C6.625 5.5175 6.625 5.8475 6.625 6.1875 C6.00979492 6.18226318 5.39458984 6.17702637 4.76074219 6.17163086 C1.96550524 6.15080629 -0.82971536 6.13782241 -3.625 6.125 C-4.59308594 6.11662109 -5.56117187 6.10824219 -6.55859375 6.09960938 C-7.49316406 6.09638672 -8.42773438 6.09316406 -9.390625 6.08984375 C-10.67888184 6.08198853 -10.67888184 6.08198853 -11.99316406 6.07397461 C-14.26170744 6.18210014 -16.20131715 6.55167577 -18.375 7.1875 C-17.3891275 4.32846975 -16.48104057 3.25819372 -13.9375 1.5625 C-9.18226186 -0.27285507 -5.042866 -0.14027944 0 0 Z " fill="#231E17" transform="translate(22.375,368.8125)"/>
<path d="M0 0 C1.65 0.33 3.3 0.66 5 1 C4.828125 3.32421875 4.828125 3.32421875 4 6 C1.671875 7.58203125 1.671875 7.58203125 -1.25 8.8125 C-2.20390625 9.23144531 -3.1578125 9.65039062 -4.140625 10.08203125 C-6.95728921 10.9862882 -9.06724507 11.18731099 -12 11 C-12 10.34 -12 9.68 -12 9 C-11.01 9 -10.02 9 -9 9 C-9 8.34 -9 7.68 -9 7 C-8.071875 6.5875 -7.14375 6.175 -6.1875 5.75 C-3.11945319 4.06558214 -1.80959535 2.91545917 0 0 Z " fill="#261B05" transform="translate(233,133)"/>
<path d="M0 0 C6.81824199 0.16469184 12.22668911 3.73771619 16.96484375 8.45703125 C18.37382043 10.08481373 19.6973285 11.78595856 21 13.5 C18 13.5 18 13.5 16.3125 12.125 C15 10.5 15 10.5 15 8.5 C13.35 8.5 11.7 8.5 10 8.5 C10 7.18 10 5.86 10 4.5 C8.02 4.83 6.04 5.16 4 5.5 C4 4.84 4 4.18 4 3.5 C3.46375 3.70625 2.9275 3.9125 2.375 4.125 C-0.83267308 4.6314747 -3.01317066 3.65400225 -6 2.5 C-3.69762265 0.19762265 -3.13835735 0.13450103 0 0 Z " fill="#E8CE50" transform="translate(70,330.5)"/>
<path d="M0 0 C0.66 0.33 1.32 0.66 2 1 C2.3690205 10.41002278 2.3690205 10.41002278 0 15 C-1.65 15 -3.3 15 -5 15 C-6 13 -6 13 -5.29296875 10.46875 C-4.92816406 9.4890625 -4.56335937 8.509375 -4.1875 7.5 C-3.83042969 6.5203125 -3.47335938 5.540625 -3.10546875 4.53125 C-2 2 -2 2 0 0 Z " fill="#050303" transform="translate(53,344)"/>
<path d="M0 0 C4.65394781 -0.32469403 7.23358918 0.20209482 11 3 C12.20272819 5.40545638 12.10071472 6.94996953 12.0625 9.625 C12.05347656 10.44226563 12.04445312 11.25953125 12.03515625 12.1015625 C12.02355469 12.72804688 12.01195312 13.35453125 12 14 C11.01 14 10.02 14 9 14 C8.76925781 13.37351562 8.53851563 12.74703125 8.30078125 12.1015625 C6.3765096 6.87772074 6.3765096 6.87772074 2.25 3.4375 C1.5075 3.293125 0.765 3.14875 0 3 C0 2.01 0 1.02 0 0 Z " fill="#EAEAEA" transform="translate(221,88)"/>
<path d="M0 0 C0.99 0.66 1.98 1.32 3 2 C3.06425108 6.04781798 2.95783524 9.59987823 0.62109375 13.015625 C-3.13528279 16.88124739 -7.1730911 19.63386819 -12 22 C-12.66 22 -13.32 22 -14 22 C-14.33 21.01 -14.66 20.02 -15 19 C-13.35 19 -11.7 19 -10 19 C-10 17.68 -10 16.36 -10 15 C-8.68 15 -7.36 15 -6 15 C-5.896875 14.360625 -5.79375 13.72125 -5.6875 13.0625 C-5.3471875 12.0415625 -5.3471875 12.0415625 -5 11 C-4.01 10.67 -3.02 10.34 -2 10 C-1.34 10.33 -0.68 10.66 0 11 C0 7.37 0 3.74 0 0 Z " fill="#E4C94B" transform="translate(404,406)"/>
<path d="M0 0 C-0.33 1.65 -0.66 3.3 -1 5 C-2.41702513 4.85769192 -3.8336096 4.71099254 -5.25 4.5625 C-6.43335938 4.44068359 -6.43335938 4.44068359 -7.640625 4.31640625 C-10 4 -10 4 -12.09375 3.46875 C-14.74178336 2.81759426 -17.28613893 2.93832134 -20 3 C-19.34 2.01 -18.68 1.02 -18 0 C-15.44779306 -0.41403125 -13.12760984 -0.64865041 -10.5625 -0.75 C-9.88123047 -0.79253906 -9.19996094 -0.83507812 -8.49804688 -0.87890625 C-5.33613315 -1.04613773 -3.03041888 -1.01013963 0 0 Z " fill="#050302" transform="translate(35,370)"/>
<path d="M0 0 C-3.15573977 2.48221257 -6.45876483 4.49961761 -9.9375 6.5 C-13.64408401 8.63679179 -17.33780506 10.78784541 -21 13 C-21 12.01 -21 11.02 -21 10 C-19.35 9.34 -17.7 8.68 -16 8 C-16.04125 7.21625 -16.0825 6.4325 -16.125 5.625 C-16 3 -16 3 -14 1 C-12.68 1 -11.36 1 -10 1 C-10 1.66 -10 2.32 -10 3 C-8.9171875 2.2575 -8.9171875 2.2575 -7.8125 1.5 C-4.85151341 -0.07919285 -3.28746971 -0.28178312 0 0 Z " fill="#E7C942" transform="translate(363,437)"/>
<path d="M0 0 C1.32 0.99 2.64 1.98 4 3 C3.34 3 2.68 3 2 3 C-1.32352003 13.76820491 1.30293135 25.70102306 5 36 C3.02 36 1.04 36 -1 36 C-1.024759 31.51595436 -1.04288799 27.03194519 -1.05493164 22.54785156 C-1.05995365 21.02310493 -1.0667725 19.49836309 -1.07543945 17.97363281 C-1.08759849 15.77928481 -1.09324968 13.5850006 -1.09765625 11.390625 C-1.10289307 10.07094727 -1.10812988 8.75126953 -1.11352539 7.39160156 C-1.02311329 4.69051582 -0.81881355 2.5499384 0 0 Z " fill="#D2BA4B" transform="translate(369,353)"/>
<path d="M0 0 C3 1 3 1 4.1875 3.25 C4.99938294 5.99791147 5.16260121 8.15447889 5 11 C5.66 11 6.32 11 7 11 C7.08074203 13.62561109 7.1403623 16.24875676 7.1875 18.875 C7.22520508 19.99455078 7.22520508 19.99455078 7.26367188 21.13671875 C7.29296875 23.3046875 7.29296875 23.3046875 7 27 C6.01 27.66 5.02 28.32 4 29 C4.04640625 27.97261719 4.0928125 26.94523437 4.140625 25.88671875 C4.38717104 17.92212589 4.11505378 11.48668611 0.875 4.0390625 C0 2 0 2 0 0 Z " fill="#D8C152" transform="translate(12,393)"/>
<path d="M0 0 C2.88807083 0.29876595 3.82055047 0.7806728 5.6875 3.0625 C7.35435091 6.79307108 7.65550627 9.93497396 8 14 C6.68 14 5.36 14 4 14 C0.74031891 4.58997722 0.74031891 4.58997722 0 0 Z " fill="#DAD9DB" transform="translate(161,89)"/>
<path d="M0 0 C2.43672948 2.21840978 3.87139608 4.39106822 5.375 7.3125 C9.88773023 15.52593527 14.5069909 19.27297076 23 23 C22.67 23.66 22.34 24.32 22 25 C20 24.33333333 18 23.66666667 16 23 C14.906875 22.71125 13.81375 22.4225 12.6875 22.125 C11.800625 21.75375 10.91375 21.3825 10 21 C9.6536433 19.66999025 9.32176222 18.33617288 9 17 C7.70175922 15.38581122 7.70175922 15.38581122 6.125 13.875 C2.40272684 9.76797265 1.21963345 5.31717389 0 0 Z " fill="#D9C24F" transform="translate(294,346)"/>
<path d="M0 0 C4.57142857 7.28571429 4.57142857 7.28571429 4 12 C3.01 11.34 2.02 10.68 1 10 C-0.32 10.99 -1.64 11.98 -3 13 C-2.938125 11.7625 -2.87625 10.525 -2.8125 9.25 C-2.79637174 6.21788698 -2.89348977 5.17751704 -4.5 2.5 C-4.995 2.005 -5.49 1.51 -6 1 C-3.92446352 0.4465236 -2.15634036 0 0 0 Z " fill="#1D180C" transform="translate(409,403)"/>
<path d="M0 0 C6.51009126 8.01242001 12.33387744 16.37138696 18 25 C17.34 25.66 16.68 26.32 16 27 C13.55491259 25.02064352 12.80853782 23.54215565 11.5625 20.5625 C10.01442304 17.03288454 8.70023621 15.61841087 6 13 C2 6.96587031 2 6.96587031 2 4 C1.34 4 0.68 4 0 4 C0 2.68 0 1.36 0 0 Z " fill="#DAC24F" transform="translate(102,358)"/>
<path d="M0 0 C0.25136719 0.59554687 0.50273437 1.19109375 0.76171875 1.8046875 C3.60011075 6.83678941 9.58971327 10.3092854 15 12 C14.01 12.66 13.02 13.32 12 14 C12 13.34 12 12.68 12 12 C10.35 12.33 8.7 12.66 7 13 C7 12.01 7 11.02 7 10 C5.68 10 4.36 10 3 10 C3 9.34 3 8.68 3 8 C1.68 8 0.36 8 -1 8 C-1 7.34 -1 6.68 -1 6 C-2.65 5.67 -4.3 5.34 -6 5 C-6 4.34 -6 3.68 -6 3 C-3.03 3.495 -3.03 3.495 0 4 C0 2.68 0 1.36 0 0 Z " fill="#D9C147" transform="translate(210,105)"/>
<path d="M0 0 C2.40072955 2.88087546 4.47291037 5.56404834 6 9 C5.01 9.495 5.01 9.495 4 10 C4.33 12.31 4.66 14.62 5 17 C4.34 17 3.68 17 3 17 C2.35089846 15.41800369 1.70585306 13.83434276 1.0625 12.25 C0.70285156 11.36828125 0.34320313 10.4865625 -0.02734375 9.578125 C-1.72489083 5.07860262 -1.72489083 5.07860262 -2 3 C-1.34 2.01 -0.68 1.02 0 0 Z " fill="#1C150C" transform="translate(143,412)"/>
<path d="M0 0 C3.5 0.25 3.5 0.25 5.5 2.25 C1.62435233 5.86139896 1.62435233 5.86139896 -0.5 7.25 C-2.875 7.0625 -2.875 7.0625 -4.5 6.25 C-5.125 4.375 -5.125 4.375 -5.5 2.25 C-3.5 0.25 -3.5 0.25 0 0 Z " fill="#DCC148" transform="translate(175.5,109.75)"/>
<path d="M0 0 C2 2 2 2 2.25 4.4375 C2 7 2 7 0 10 C-0.474375 10.845625 -0.94875 11.69125 -1.4375 12.5625 C-3 15 -3 15 -6 17 C-8.6875 17.125 -8.6875 17.125 -11 17 C-10.236875 16.4225 -9.47375 15.845 -8.6875 15.25 C-3.45470025 10.86905138 -1.92765399 6.3981707 0 0 Z " fill="#DAC14B" transform="translate(53,357)"/>
<path d="M0 0 C0.66 0.33 1.32 0.66 2 1 C-0.50691744 3.68598297 -2.63503114 5.52782612 -6 7 C-6.639375 7.350625 -7.27875 7.70125 -7.9375 8.0625 C-10 9 -10 9 -12.6875 9.5 C-13.450625 9.665 -14.21375 9.83 -15 10 C-15.33 10.66 -15.66 11.32 -16 12 C-16.99 11.01 -17.98 10.02 -19 9 C-18.38253906 8.76925781 -17.76507813 8.53851563 -17.12890625 8.30078125 C-11.72142074 6.21844665 -6.76401413 3.87058718 -1.8125 0.85546875 C-1.214375 0.57316406 -0.61625 0.29085937 0 0 Z " fill="#211604" transform="translate(223,154)"/>
<path d="M0 0 C2.475 0.495 2.475 0.495 5 1 C2.31656027 4.36167175 -0.94972028 5.26086969 -4.9375 6.625 C-6.16339844 7.05039063 -7.38929688 7.47578125 -8.65234375 7.9140625 C-9.75707031 8.27242187 -10.86179688 8.63078125 -12 9 C-12.72316406 9.25523437 -13.44632813 9.51046875 -14.19140625 9.7734375 C-16 10 -16 10 -20 8 C-15.545 7.505 -15.545 7.505 -11 7 C-11 6.34 -11 5.68 -11 5 C-10.28972656 4.80664062 -9.57945312 4.61328125 -8.84765625 4.4140625 C-7.92855469 4.15367187 -7.00945312 3.89328125 -6.0625 3.625 C-5.14597656 3.36976563 -4.22945312 3.11453125 -3.28515625 2.8515625 C-0.83254913 2.23339896 -0.83254913 2.23339896 0 0 Z " fill="#DFC54B" transform="translate(225,136)"/>
<path d="M0 0 C0.33 0 0.66 0 1 0 C1 1.65 1 3.3 1 5 C1.66 5 2.32 5 3 5 C3.33 7.31 3.66 9.62 4 12 C3.01 12.495 3.01 12.495 2 13 C1.34 12.34 0.68 11.68 0 11 C0.66 11 1.32 11 2 11 C1.67 10.01 1.34 9.02 1 8 C-1.31 7.67 -3.62 7.34 -6 7 C-6 6.34 -6 5.68 -6 5 C-8.64 4.67 -11.28 4.34 -14 4 C-14 3.67 -14 3.34 -14 3 C-12.41676312 2.972807 -10.83338938 2.95351694 -9.25 2.9375 C-7.92742187 2.92009766 -7.92742187 2.92009766 -6.578125 2.90234375 C-4.2181162 2.99173802 -2.25501476 3.33087179 0 4 C0 2.68 0 1.36 0 0 Z " fill="#F2D65E" transform="translate(200,102)"/>
<path d="M0 0 C0.33 0 0.66 0 1 0 C1 2.31 1 4.62 1 7 C1.99 6.34 2.98 5.68 4 5 C6.1875 5.375 6.1875 5.375 8 6 C7.34 6.66 6.68 7.32 6 8 C4.68 8 3.36 8 2 8 C3.25541557 10.51083114 4.50063488 10.87125446 7 12 C7 12.33 7 12.66 7 13 C4.36 13 1.72 13 -1 13 C-0.67 8.71 -0.34 4.42 0 0 Z " fill="#D1BE58" transform="translate(172,97)"/>
<path d="M0 0 C1.50156874 3.00313748 1.09281204 5.79067522 1.0625 9.125 C1.05347656 10.40632812 1.04445312 11.68765625 1.03515625 13.0078125 C1.02355469 13.99523437 1.01195312 14.98265625 1 16 C0.34 15.67 -0.32 15.34 -1 15 C-1 13.02 -1 11.04 -1 9 C-3.64 9.99 -6.28 10.98 -9 12 C-9.33 11.01 -9.66 10.02 -10 9 C-11.98 9 -13.96 9 -16 9 C-16 8.34 -16 7.68 -16 7 C-10.87416389 6.89748328 -6.05002222 6.96409801 -1 8 C-1.020625 6.865625 -1.04125 5.73125 -1.0625 4.5625 C-1 1 -1 1 0 0 Z " fill="#CCBD67" transform="translate(244,143)"/>
<path d="M0 0 C4.89611408 1.63203803 7.53183783 4.00329945 10.5625 8.125 C12.03798371 10.25847264 12.03798371 10.25847264 15 12 C14.01 12.33 13.02 12.66 12 13 C6.77711952 9.93062948 3.27277886 4.95875584 0 0 Z " fill="#E3C94C" transform="translate(153,139)"/>
<path d="M0 0 C11.94256818 -0.52176269 11.94256818 -0.52176269 18 3 C21.73771834 3.7136724 21.73771834 3.7136724 25 4 C25 4.33 25 4.66 25 5 C18.97512156 5.21908649 13.82450494 4.49398047 8 3 C7.22527344 2.80921875 6.45054688 2.6184375 5.65234375 2.421875 C3.76617601 1.95615457 1.88277506 1.47925183 0 1 C0 0.67 0 0.34 0 0 Z " fill="#CDB447" transform="translate(97,465)"/>
<path d="M0 0 C2.97 0.33 5.94 0.66 9 1 C9 2.32 9 3.64 9 5 C6.5 7.25 6.5 7.25 4 9 C4 8.34 4 7.68 4 7 C2.02 7 0.04 7 -2 7 C-2 6.67 -2 6.34 -2 6 C-0.35 5.67 1.3 5.34 3 5 C3 3.68 3 2.36 3 1 C2.01 0.67 1.02 0.34 0 0 Z " fill="#AFA269" transform="translate(290,336)"/>
<path d="M0 0 C0 0.99 0 1.98 0 3 C-0.9590625 3.1546875 -0.9590625 3.1546875 -1.9375 3.3125 C-2.618125 3.539375 -3.29875 3.76625 -4 4 C-4.33 4.99 -4.66 5.98 -5 7 C-5.66 7 -6.32 7 -7 7 C-7 8.65 -7 10.3 -7 12 C-7.99 12 -8.98 12 -10 12 C-9.55005466 7.16308764 -8.51104725 4.41351816 -5 1 C-2.25 0.1875 -2.25 0.1875 0 0 Z " fill="#E4CD59" transform="translate(62,333)"/>
<path d="M0 0 C3.16251855 3.16251855 3.15295268 6.41085681 3.1875 10.75 C3.15249147 15.46915016 2.33760292 19.48559013 1 24 C0.13036913 21.00293305 -0.11763099 18.35043474 -0.09765625 15.234375 C-0.09443359 14.34492188 -0.09121094 13.45546875 -0.08789062 12.5390625 C-0.07532227 11.15847656 -0.07532227 11.15847656 -0.0625 9.75 C-0.05798828 8.81414062 -0.05347656 7.87828125 -0.04882812 6.9140625 C-0.03706918 4.60930959 -0.02063426 2.30468773 0 0 Z " fill="#BAA244" transform="translate(146,429)"/>
<path d="M0 0 C2.31 0 4.62 0 7 0 C7.33 1.65 7.66 3.3 8 5 C4.625 5.625 4.625 5.625 1 6 C0.34 5.34 -0.32 4.68 -1 4 C-0.625 1.875 -0.625 1.875 0 0 Z " fill="#070502" transform="translate(286,337)"/>
<path d="M0 0 C0.33 0 0.66 0 1 0 C1.5361079 2.18380675 2.05320098 4.37228583 2.5625 6.5625 C2.85253906 7.78066406 3.14257812 8.99882812 3.44140625 10.25390625 C4.02033181 14.13635106 3.74517495 17.16555673 3 21 C2.67 21 2.34 21 2 21 C1.46892686 18.25162151 0.94984119 15.50187625 0.4375 12.75 C0.28603516 11.97269531 0.13457031 11.19539063 -0.02148438 10.39453125 C-0.2293457 9.26337891 -0.2293457 9.26337891 -0.44140625 8.109375 C-0.63778687 7.07248535 -0.63778687 7.07248535 -0.83813477 6.01464844 C-1.01710362 3.78712058 -0.65206197 2.12493038 0 0 Z " fill="#D4BB4A" transform="translate(281,381)"/>
<path d="M0 0 C0.33 0 0.66 0 1 0 C1 1.65 1 3.3 1 5 C3.97 5.495 3.97 5.495 7 6 C7 6.66 7 7.32 7 8 C8.9600281 9.63676257 8.9600281 9.63676257 11 11 C6.66388269 10.49580031 3.40585354 9.82199293 0 7 C-0.875 3.875 -0.875 3.875 -1 1 C-0.67 0.67 -0.34 0.34 0 0 Z " fill="#C2AC42" transform="translate(7,435)"/>
<path d="M0 0 C0.33 0 0.66 0 1 0 C0.44687265 4.02992782 -0.1558062 8.02022924 -1 12 C-2.98 12.33 -4.96 12.66 -7 13 C-5.37621488 8.27626146 -2.89006982 4.05818166 0 0 Z " fill="#E6C74A" transform="translate(15,422)"/>
<path d="M0 0 C1 3 1 3 1 6 C0.0925 6.2475 -0.815 6.495 -1.75 6.75 C-5.07002762 7.76619144 -5.07002762 7.76619144 -7.125 10.1875 C-7.74375 10.785625 -8.3625 11.38375 -9 12 C-11.1171875 11.61328125 -11.1171875 11.61328125 -13 11 C-12.31292969 10.45730469 -11.62585938 9.91460937 -10.91796875 9.35546875 C-10.01691406 8.64003906 -9.11585938 7.92460937 -8.1875 7.1875 C-7.29417969 6.47980469 -6.40085937 5.77210938 -5.48046875 5.04296875 C-3.52923089 3.43588623 -1.73725024 1.82959577 0 0 Z " fill="#E1C74E" transform="translate(354,351)"/>
<path d="M0 0 C1.21816406 0.03480469 1.21816406 0.03480469 2.4609375 0.0703125 C3.68683594 0.09738281 3.68683594 0.09738281 4.9375 0.125 C5.87722656 0.15980469 5.87722656 0.15980469 6.8359375 0.1953125 C7.1659375 0.8553125 7.4959375 1.5153125 7.8359375 2.1953125 C6.8459375 3.6803125 6.8459375 3.6803125 5.8359375 5.1953125 C5.8359375 4.5353125 5.8359375 3.8753125 5.8359375 3.1953125 C5.2996875 3.4015625 4.7634375 3.6078125 4.2109375 3.8203125 C1.00326442 4.3267872 -1.17723316 3.34931475 -4.1640625 2.1953125 C-2.1640625 0.1953125 -2.1640625 0.1953125 0 0 Z " fill="#E3CA44" transform="translate(68.1640625,330.8046875)"/>
<path d="M0 0 C2.98162648 2.68064211 4.99718996 5.84817485 7.1875 9.1875 C7.90292969 10.27417969 8.61835938 11.36085938 9.35546875 12.48046875 C9.89816406 13.31191406 10.44085938 14.14335937 11 15 C7.38813866 15 6.55988064 14.47730384 4 12 C2.875 9.1875 2.875 9.1875 2 6 C1.62875 4.88625 1.2575 3.7725 0.875 2.625 C0.58625 1.75875 0.2975 0.8925 0 0 Z " fill="#D3BC48" transform="translate(125,392)"/>
<path d="M0 0 C5.27749285 0.53851968 9.25645564 1.77343836 14 4 C13.67 4.66 13.34 5.32 13 6 C10.69 6 8.38 6 6 6 C5.67 5.01 5.34 4.02 5 3 C2.49552484 1.78130071 2.49552484 1.78130071 0 1 C0 0.67 0 0.34 0 0 Z " fill="#DFC848" transform="translate(388,399)"/>
<path d="M0 0 C2.56491456 0.06028001 5.12421757 0.14737947 7.6875 0.25 C8.40873047 0.26417969 9.12996094 0.27835937 9.87304688 0.29296875 C14.79627744 0.5177738 17.35677155 1.40707253 21 5 C16.12689995 4.35401634 11.36868161 3.49028264 6.5625 2.4375 C5.32628906 2.16808594 4.09007813 1.89867187 2.81640625 1.62109375 C1.42228516 1.31365234 1.42228516 1.31365234 0 1 C0 0.67 0 0.34 0 0 Z " fill="#BFA742" transform="translate(60,456)"/>
<path d="M0 0 C0 3 0 3 -1.5 4.6875 C-1.995 5.120625 -2.49 5.55375 -3 6 C-5.475 5.01 -5.475 5.01 -8 4 C-7 1 -7 1 -4.5625 -0.25 C-2 -1 -2 -1 0 0 Z " fill="#F3D332" transform="translate(227,146)"/>
<path d="M0 0 C0.99 0.33 1.98 0.66 3 1 C2.4140625 7.15234375 2.4140625 7.15234375 2 9 C1.01 9.495 1.01 9.495 0 10 C-1.58538318 7.48203847 -2.0373656 6.32134414 -1.6875 3.3125 C-1 1 -1 1 0 0 Z " fill="#160F02" transform="translate(297,341)"/>
<path d="M0 0 C1.5625 1.25 1.5625 1.25 3 3 C2.6875 5.1875 2.6875 5.1875 2 7 C2.66 7.33 3.32 7.66 4 8 C3.67 8.99 3.34 9.98 3 11 C1.02 8.36 -0.96 5.72 -3 3 C-2.01 2.01 -1.02 1.02 0 0 Z " fill="#120D01" transform="translate(91,337)"/>
<path d="M0 0 C1.32 0 2.64 0 4 0 C4 1.65 4 3.3 4 5 C-0.95 4.01 -5.9 3.02 -11 2 C-11 1.67 -11 1.34 -11 1 C-7.37 1 -3.74 1 0 1 C0 0.67 0 0.34 0 0 Z " fill="#D5BC48" transform="translate(92,460)"/>
<path d="M0 0 C0 0.66 0 1.32 0 2 C-2.64458379 3.32229189 -4.67761301 3.09677194 -7.625 3.0625 C-8.62789062 3.05347656 -9.63078125 3.04445312 -10.6640625 3.03515625 C-11.43492187 3.02355469 -12.20578125 3.01195312 -13 3 C-10.33496595 1.22331063 -8.98315427 0.67361548 -6 0 C-3.50907189 -1.24546405 -2.58919267 -0.7767578 0 0 Z " fill="#050300" transform="translate(202,151)"/>
<path d="M0 0 C2.64 0 5.28 0 8 0 C8.33 1.32 8.66 2.64 9 4 C2.25 3.125 2.25 3.125 0 2 C0 1.34 0 0.68 0 0 Z " fill="#3B2C05" transform="translate(193,109)"/>
<path d="M0 0 C1.32 0.66 2.64 1.32 4 2 C1.64722731 4.72426311 -0.62496331 5.8141763 -4 7 C-3.43628586 3.73045798 -2.50037734 2.17424117 0 0 Z " fill="#171214" transform="translate(370,439)"/>
<path d="M0 0 C0.33 0 0.66 0 1 0 C1.08074203 2.62561109 1.1403623 5.24875676 1.1875 7.875 C1.22520508 8.99455078 1.22520508 8.99455078 1.26367188 10.13671875 C1.29296875 12.3046875 1.29296875 12.3046875 1 16 C0.01 16.66 -0.98 17.32 -2 18 C-1.34 12.06 -0.68 6.12 0 0 Z " fill="#E7CD54" transform="translate(18,404)"/>
<path d="M0 0 C4.62 0.66 9.24 1.32 14 2 C14 2.33 14 2.66 14 3 C10.7 3.33 7.4 3.66 4 4 C4 4.66 4 5.32 4 6 C2.35 6 0.7 6 -1 6 C-0.01 4.68 0.98 3.36 2 2 C1.34 2 0.68 2 0 2 C0 1.34 0 0.68 0 0 Z " fill="#211802" transform="translate(164,151)"/>
<path d="M0 0 C0.33 0.99 0.66 1.98 1 3 C0.01 3.33 -0.98 3.66 -2 4 C-3.03013277 5.64821244 -4.03114628 7.31503702 -5 9 C-5.99 9.495 -5.99 9.495 -7 10 C-7.33 8.68 -7.66 7.36 -8 6 C-5.36 4.02 -2.72 2.04 0 0 Z " fill="#1C1101" transform="translate(343,449)"/>
<path d="M0 0 C0.66 0.33 1.32 0.66 2 1 C2.08167446 2.41569064 2.13949698 3.83276805 2.1875 5.25 C2.22230469 6.03890625 2.25710937 6.8278125 2.29296875 7.640625 C2 10 2 10 -1 14 C-0.67 9.38 -0.34 4.76 0 0 Z " fill="#EDD253" transform="translate(55,345)"/>
<path d="M0 0 C0.66 0.33 1.32 0.66 2 1 C2.05422947 2.4370809 2.09289723 3.87475462 2.125 5.3125 C2.14820313 6.11300781 2.17140625 6.91351563 2.1953125 7.73828125 C2 10 2 10 0 13 C-1.231394 9.30581799 -0.64432764 6.7943739 0 3 C-0.66 2.67 -1.32 2.34 -2 2 C-1.34 1.34 -0.68 0.68 0 0 Z " fill="#332505" transform="translate(53,344)"/>
<path d="M0 0 C0 0.66 0 1.32 0 2 C-8.42857143 5.42857143 -8.42857143 5.42857143 -13 5 C-13.33 4.34 -13.66 3.68 -14 3 C-12.23050388 2.49528803 -10.45934777 1.99639315 -8.6875 1.5 C-7.70136719 1.2215625 -6.71523437 0.943125 -5.69921875 0.65625 C-3 0 -3 0 0 0 Z " fill="#E5CA53" transform="translate(199,155)"/>
<path d="M0 0 C5.875 4.625 5.875 4.625 7 8 C3 8 3 8 0 7 C0 4.69 0 2.38 0 0 Z " fill="#1A1107" transform="translate(152,139)"/>
<path d="M0 0 C3.3 0 6.6 0 10 0 C7.57869669 2.42130331 6.19888623 2.52840504 2.875 3.125 C1.50988281 3.37636719 1.50988281 3.37636719 0.1171875 3.6328125 C-0.58148438 3.75398438 -1.28015625 3.87515625 -2 4 C-1.34 3.67 -0.68 3.34 0 3 C0 2.01 0 1.02 0 0 Z " fill="#E0C74E" transform="translate(365,433)"/>
<path d="M0 0 C2.12563103 0.11376617 4.2505261 0.24135631 6.375 0.375 C8.15003906 0.47941406 8.15003906 0.47941406 9.9609375 0.5859375 C13 1 13 1 15 3 C11.28233332 4.23922223 9.56110463 3.57018942 5.8125 2.5625 C4.72582031 2.27503906 3.63914062 1.98757813 2.51953125 1.69140625 C1.68808594 1.46324219 0.85664063 1.23507812 0 1 C0 0.67 0 0.34 0 0 Z " fill="#C5AE48" transform="translate(21,446)"/>
<path d="M0 0 C1.9375 0.8125 1.9375 0.8125 4 2 C4.33 2.99 4.66 3.98 5 5 C5.99 5.33 6.98 5.66 8 6 C7.34 7.32 6.68 8.64 6 10 C3.25722422 6.80009492 1.3697164 3.99500618 0 0 Z " fill="#1B1103" transform="translate(111,369)"/>
<path d="M0 0 C0 0.66 0 1.32 0 2 C-1.4562672 2.36256858 -2.91511185 2.71479793 -4.375 3.0625 C-5.59316406 3.35833984 -5.59316406 3.35833984 -6.8359375 3.66015625 C-9 4 -9 4 -11 3 C-8.21756596 -1.17365106 -4.53441502 -0.22300402 0 0 Z " fill="#ECCC50" transform="translate(294,343)"/>
<path d="M0 0 C0 0.99 0 1.98 0 3 C-2 4.6875 -2 4.6875 -4 6 C-4 5.34 -4 4.68 -4 4 C-6.31 4.33 -8.62 4.66 -11 5 C-3.5 0 -3.5 0 0 0 Z " fill="#E3C64C" transform="translate(237,139)"/>
<path d="M0 0 C2.31 0 4.62 0 7 0 C5.68 0.33 4.36 0.66 3 1 C2.67 2.32 2.34 3.64 2 5 C0.68 4.67 -0.64 4.34 -2 4 C-1.34 2.68 -0.68 1.36 0 0 Z " fill="#281301" transform="translate(172,110)"/>
<path d="M0 0 C0.66 1.32 1.32 2.64 2 4 C2.66 4 3.32 4 4 4 C3.67 6.31 3.34 8.62 3 11 C2.01 10.34 1.02 9.68 0 9 C-0.29296875 6.8359375 -0.29296875 6.8359375 -0.1875 4.375 C-0.16042969 3.55773437 -0.13335937 2.74046875 -0.10546875 1.8984375 C-0.05326172 0.95871094 -0.05326172 0.95871094 0 0 Z " fill="#272727" transform="translate(233,95)"/>
<path d="M0 0 C0.66 0.66 1.32 1.32 2 2 C1.34 2 0.68 2 0 2 C-0.268125 2.639375 -0.53625 3.27875 -0.8125 3.9375 C-2 6 -2 6 -5 7 C-4.67 5.02 -4.34 3.04 -4 1 C-2.125 0.375 -2.125 0.375 0 0 Z " fill="#060304" transform="translate(393,428)"/>
<path d="M0 0 C1.485 0.99 1.485 0.99 3 2 C2.88637738 3.4800841 2.75877092 4.95910074 2.625 6.4375 C2.52058594 7.67306641 2.52058594 7.67306641 2.4140625 8.93359375 C2.27742188 9.61550781 2.14078125 10.29742187 2 11 C1.01 11.495 1.01 11.495 0 12 C0 8.04 0 4.08 0 0 Z " fill="#DFCA54" transform="translate(404,406)"/>
<path d="M0 0 C2.46800047 1.15173355 4.04783565 2.04783565 6 4 C5.01 4.66 4.02 5.32 3 6 C0.3125 5.125 0.3125 5.125 -2 4 C-1.34 3.67 -0.68 3.34 0 3 C0 2.01 0 1.02 0 0 Z " fill="#100D0A" transform="translate(402,399)"/>
<path d="M0 0 C0.515625 0.45375 1.03125 0.9075 1.5625 1.375 C4.57300574 3.38200383 7.50927237 4.12731809 11 5 C7.42355152 6.2380014 4.66305234 5.74926071 1 5 C0.67 3.35 0.34 1.7 0 0 Z " fill="#D1BA47" transform="translate(377,393)"/>
<path d="M0 0 C2 2 2 2 2.25 4.4375 C2 7 2 7 0 10 C-0.99 9.67 -1.98 9.34 -3 9 C-2.01 6.03 -1.02 3.06 0 0 Z " fill="#D5B846" transform="translate(53,357)"/>
<path d="M0 0 C-0.33 1.32 -0.66 2.64 -1 4 C-3.31 4.33 -5.62 4.66 -8 5 C-8 4.34 -8 3.68 -8 3 C-7.01 3 -6.02 3 -5 3 C-5 2.34 -5 1.68 -5 1 C-2 0 -2 0 0 0 Z " fill="#140C00" transform="translate(229,139)"/>
<path d="M0 0 C5.445 1.485 5.445 1.485 11 3 C11 3.33 11 3.66 11 4 C7.7 4 4.4 4 1 4 C0.67 2.68 0.34 1.36 0 0 Z " fill="#D6BD4B" transform="translate(229,119)"/>
<path d="M0 0 C0.66 0.33 1.32 0.66 2 1 C1.64950425 4.24208567 1.43778819 5.61527704 -1.0625 7.8125 C-1.701875 8.204375 -2.34125 8.59625 -3 9 C-3.99 8.34 -4.98 7.68 -6 7 C-5.071875 6.6596875 -5.071875 6.6596875 -4.125 6.3125 C-1.38589791 4.62070165 -0.94975528 3.00755839 0 0 Z " fill="#3C331D" transform="translate(160,110)"/>
<path d="M0 0 C1.4606285 2.64738916 2 3.89448334 2 7 C-0.64 6.34 -3.28 5.68 -6 5 C-6 4.34 -6 3.68 -6 3 C-3.03 3.495 -3.03 3.495 0 4 C0 2.68 0 1.36 0 0 Z " fill="#E3D37A" transform="translate(210,105)"/>
<path d="M0 0 C0.99 0 1.98 0 3 0 C3 2.31 3 4.62 3 7 C1.02 7.99 1.02 7.99 -1 9 C-0.67 6.03 -0.34 3.06 0 0 Z " fill="#030403" transform="translate(169,98)"/>
<path d="M0 0 C2.31 0 4.62 0 7 0 C3.57653445 3.14958831 0.55737263 3.56179109 -4 4 C-3.67 3.34 -3.34 2.68 -3 2 C-2.01 2 -1.02 2 0 2 C0 1.34 0 0.68 0 0 Z " fill="#E2C853" transform="translate(382,428)"/>
<path d="M0 0 C0.33 0.66 0.66 1.32 1 2 C0.0625 4.0625 0.0625 4.0625 -2 6 C-5.07110598 6.05989746 -7.99011728 5.58052245 -11 5 C-11 4.67 -11 4.34 -11 4 C-10.37351563 3.87882812 -9.74703125 3.75765625 -9.1015625 3.6328125 C-8.28429688 3.46523438 -7.46703125 3.29765625 -6.625 3.125 C-5.81289063 2.96257812 -5.00078125 2.80015625 -4.1640625 2.6328125 C-1.81326077 2.13341068 -1.81326077 2.13341068 0 0 Z " fill="#F1D13E" transform="translate(51,370)"/>
<path d="M0 0 C0.66 0 1.32 0 2 0 C1.75 2.875 1.75 2.875 1 6 C-1.0625 7.375 -1.0625 7.375 -3 8 C-1.125 1.125 -1.125 1.125 0 0 Z " fill="#121112" transform="translate(51,347)"/>
<path d="M0 0 C0.66 0.33 1.32 0.66 2 1 C1.67 2.32 1.34 3.64 1 5 C-0.32 5.33 -1.64 5.66 -3 6 C-3 4.33333333 -3 2.66666667 -3 1 C-2.01 0.67 -1.02 0.34 0 0 Z " fill="#0B0C0F" transform="translate(284,337)"/>
<path d="M0 0 C0.66 0.33 1.32 0.66 2 1 C-0.48952921 3.66735273 -2.63408134 5.55746343 -6 7 C-6 5.68 -6 4.36 -6 3 C-4.03533587 1.93224776 -2.03144641 0.93446535 0 0 Z " fill="#33250C" transform="translate(223,154)"/>
<path d="M0 0 C4.455 0.99 4.455 0.99 9 2 C9 2.33 9 2.66 9 3 C4.545 3.495 4.545 3.495 0 4 C0 2.68 0 1.36 0 0 Z " fill="#F2D148" transform="translate(220,117)"/>
<path d="M0 0 C1.875 0.3125 1.875 0.3125 4 1 C4.66 1.99 5.32 2.98 6 4 C4.02 4.99 4.02 4.99 2 6 C1.34 5.34 0.68 4.68 0 4 C0 2.68 0 1.36 0 0 Z " fill="#E2E2E2" transform="translate(161,89)"/>
<path d="M0 0 C0.99 0.33 1.98 0.66 3 1 C2.25 2.9375 2.25 2.9375 1 5 C-1.125 5.75 -1.125 5.75 -3 6 C-2.625 3.5625 -2.625 3.5625 -2 1 C-1.34 0.67 -0.68 0.34 0 0 Z " fill="#F0D248" transform="translate(401,416)"/>
<path d="M0 0 C0.33 0 0.66 0 1 0 C1 1.65 1 3.3 1 5 C1.66 5 2.32 5 3 5 C3.33 7.31 3.66 9.62 4 12 C3.01 12.495 3.01 12.495 2 13 C1.34 12.34 0.68 11.68 0 11 C0.66 11 1.32 11 2 11 C0.92598892 8.08482708 0.22189824 6.22189824 -2 4 C-1.34 4 -0.68 4 0 4 C0 2.68 0 1.36 0 0 Z " fill="#C6B354" transform="translate(200,102)"/>
<path d="M0 0 C-3.41016497 2.86453858 -6.90694544 4.34703566 -11 6 C-11 5.34 -11 4.68 -11 4 C-7.28157456 1.05984965 -4.79828917 -0.56450461 0 0 Z " fill="#DAC050" transform="translate(363,437)"/>
<path d="M0 0 C1.98 0 3.96 0 6 0 C6.33 1.32 6.66 2.64 7 4 C4.69 3.34 2.38 2.68 0 2 C0 1.34 0 0.68 0 0 Z " fill="#F6D034" transform="translate(174,105)"/>
<path d="M0 0 C2.97 0.99 5.94 1.98 9 3 C9 3.99 9 4.98 9 6 C4.64464931 4.83857315 2.35380297 3.92300495 0 0 Z " fill="#D5BC4E" transform="translate(289,462)"/>
<path d="M0 0 C1.32 0.33 2.64 0.66 4 1 C5.125 4.75 5.125 4.75 4 7 C0 1.125 0 1.125 0 0 Z " fill="#150B03" transform="translate(122,386)"/>
<path d="M0 0 C1.32 0.99 2.64 1.98 4 3 C3.34 3 2.68 3 2 3 C1.34 4.98 0.68 6.96 0 9 C-0.33 9 -0.66 9 -1 9 C-0.67 6.03 -0.34 3.06 0 0 Z " fill="#E4C85B" transform="translate(369,353)"/>
<path d="M0 0 C2.31 1.98 4.62 3.96 7 6 C6.34 6.66 5.68 7.32 5 8 C0 2.25 0 2.25 0 0 Z " fill="#D0B848" transform="translate(84,337)"/>
<path d="M0 0 C3.465 1.98 3.465 1.98 7 4 C3.25 5.125 3.25 5.125 1 4 C1 3.34 1 2.68 1 2 C0.34 1.67 -0.32 1.34 -1 1 C-0.67 0.67 -0.34 0.34 0 0 Z M-1 4 C-0.34 4 0.32 4 1 4 C0.67 4.66 0.34 5.32 0 6 C-0.33 5.34 -0.66 4.68 -1 4 Z " fill="#171003" transform="translate(162,160)"/>
<path d="M0 0 C0.33 0 0.66 0 1 0 C0.67 2.31 0.34 4.62 0 7 C-1.32 7.33 -2.64 7.66 -4 8 C-2.68 5.36 -1.36 2.72 0 0 Z " fill="#D9BF4B" transform="translate(15,422)"/>
<path d="M0 0 C0.66 0.33 1.32 0.66 2 1 C0.35 3.64 -1.3 6.28 -3 9 C-3.33 8.01 -3.66 7.02 -4 6 C-2.0625 2.8125 -2.0625 2.8125 0 0 Z " fill="#201202" transform="translate(13,423)"/>
<path d="M0 0 C1.5625 1.25 1.5625 1.25 3 3 C2.6875 5.1875 2.6875 5.1875 2 7 C0.68 5.35 -0.64 3.7 -2 2 C-1.34 1.34 -0.68 0.68 0 0 Z " fill="#1D1105" transform="translate(129,393)"/>
<path d="M0 0 C-0.99 0.66 -1.98 1.32 -3 2 C-3.66 2.556875 -4.32 3.11375 -5 3.6875 C-5.66 4.120625 -6.32 4.55375 -7 5 C-7.99 4.67 -8.98 4.34 -10 4 C-6.58908673 0.88145073 -4.68377325 -0.53528837 0 0 Z " fill="#1B1101" transform="translate(234,151)"/>
</svg>
