<?xml version="1.0" encoding="UTF-8"?>
<svg version="1.1" xmlns="http://www.w3.org/2000/svg" width="600" height="503">
<path d="M0 0 C7.75310431 6.04112442 15.46673793 14.18927629 18.640625 23.7109375 C21.31123134 23.23965403 23.71547168 22.6819176 26.25 21.69921875 C36.10286184 18.82735925 48.67177158 19.34272346 57.86328125 23.90625 C70.64967976 32.21471148 78.39315659 42.72700432 81.640625 57.7109375 C82.20910156 57.50597656 82.77757812 57.30101563 83.36328125 57.08984375 C84.13542969 56.82042969 84.90757812 56.55101563 85.703125 56.2734375 C86.45722656 56.00660156 87.21132813 55.73976563 87.98828125 55.46484375 C100.87978407 51.80054324 114.85526328 53.56412485 126.640625 59.7109375 C129.91133383 61.79183739 132.77989149 64.10038221 135.640625 66.7109375 C136.33929688 67.3296875 137.03796875 67.9484375 137.7578125 68.5859375 C149.52830967 79.60134617 152.92756426 92.02360111 153.640625 107.7109375 C154.52363281 107.73671875 155.40664063 107.7625 156.31640625 107.7890625 C170.96599935 108.48141706 183.51467278 113.01763347 193.890625 123.7734375 C200.49087349 131.66651817 205.79606759 141.73127083 205.73828125 152.1328125 C205.73505859 153.15761719 205.73183594 154.18242187 205.72851562 155.23828125 C205.72013672 156.30175781 205.71175781 157.36523438 205.703125 158.4609375 C205.69861328 159.53988281 205.69410156 160.61882812 205.68945312 161.73046875 C205.67768227 164.39068133 205.66123899 167.05078115 205.640625 169.7109375 C206.76597656 170.113125 206.76597656 170.113125 207.9140625 170.5234375 C221.25547978 175.63148643 230.2704333 183.41624908 236.453125 196.2734375 C240.56132679 205.87240899 241.38871911 217.80526021 237.640625 227.7109375 C232.82320232 239.00644719 232.82320232 239.00644719 228.203125 243.0234375 C225.21997361 245.52192423 225.21997361 245.52192423 225.703125 249.2734375 C226.1671875 250.975 226.1671875 250.975 226.640625 252.7109375 C229.52305828 265.44341255 226.99740065 277.87906957 220.4140625 289.0546875 C215.49105828 296.42835021 209.83480628 301.9411198 202.453125 306.7734375 C201.87111328 307.15580566 201.28910156 307.53817383 200.68945312 307.93212891 C197.03296001 310.19819787 193.91522048 311.28931579 189.640625 311.7109375 C189.640625 312.3709375 189.640625 313.0309375 189.640625 313.7109375 C188.58875 313.8553125 187.536875 313.9996875 186.453125 314.1484375 C182.87231583 314.61702605 182.87231583 314.61702605 180.328125 315.2734375 C170.40481711 316.88885971 159.54362056 315.31940248 149.82421875 313.0546875 C147.5233871 312.43801735 147.5233871 312.43801735 145.515625 314.1484375 C144.896875 314.6640625 144.278125 315.1796875 143.640625 315.7109375 C142.650625 315.7109375 141.660625 315.7109375 140.640625 315.7109375 C140.310625 316.3709375 139.980625 317.0309375 139.640625 317.7109375 C133.93211911 319.54237185 128.59624645 319.83946352 122.703125 318.9609375 C116.49471537 318.24889052 113.03866944 320.20759481 107.71484375 323.20703125 C99.41685356 327.26640383 87.41279008 328.2954534 78.453125 325.8359375 C77.525 325.4646875 76.596875 325.0934375 75.640625 324.7109375 C74.3825 324.3603125 73.124375 324.0096875 71.828125 323.6484375 C68.640625 322.7109375 68.640625 322.7109375 67.640625 321.7109375 C59.72047427 322.30868472 51.97667767 324.26558661 44.453125 326.7734375 C39.63129223 328.38071509 34.65020574 329.37600738 29.640625 330.2109375 C28.980625 330.3759375 28.320625 330.5409375 27.640625 330.7109375 C27.310625 331.3709375 26.980625 332.0309375 26.640625 332.7109375 C25.00471408 333.39256705 23.36845319 334.07336839 21.73046875 334.75 C11.3946719 339.50253463 3.88123441 346.86601823 -0.296875 357.4609375 C-6.38637278 374.55281602 -4.16313458 393.80956216 3.328125 410.1484375 C4.41130675 412.01494101 5.51778293 413.86802032 6.640625 415.7109375 C7.14255371 416.58959473 7.64448242 417.46825195 8.16162109 418.37353516 C10.80508579 422.10795354 13.2888682 425.04371466 17.83377075 426.3331604 C24.36184341 427.42983265 30.97395653 427.50381288 37.578125 427.6484375 C41.50468787 427.78548186 45.43003761 427.94719347 49.35546875 428.11328125 C50.78939468 428.16964249 50.78939468 428.16964249 52.25228882 428.22714233 C58.45131612 428.50456048 64.52017649 429.08777996 70.64453125 430.08984375 C71.35552475 430.20359848 72.06651825 430.31735321 72.79905701 430.43455505 C77.46192518 431.27132204 81.37955652 432.72447307 85.640625 434.7109375 C85.310625 436.0309375 84.980625 437.3509375 84.640625 438.7109375 C83.650625 438.7109375 82.660625 438.7109375 81.640625 438.7109375 C81.640625 439.3709375 81.640625 440.0309375 81.640625 440.7109375 C79.99559595 441.02764403 78.34954223 441.3390285 76.703125 441.6484375 C75.32833984 441.90947266 75.32833984 441.90947266 73.92578125 442.17578125 C64.78514939 443.66480213 55.59741365 444.10681086 46.36206055 444.5859375 C44.0035965 444.70831853 41.64534582 444.83425435 39.28710938 444.9609375 C35.24564723 445.17668898 31.20367297 445.38078345 27.16146851 445.58209229 C24.63429444 445.71126107 22.10785969 445.85109409 19.58129883 445.99169922 C5.25256319 446.75556515 -9.05543186 446.86484485 -23.40258789 446.84130859 C-27.31595674 446.83591118 -31.22921256 446.84130933 -35.14257812 446.84765625 C-57.24152392 446.85352764 -57.24152392 446.85352764 -68.25952148 445.95605469 C-73.47285881 445.54381631 -78.69587254 445.43398554 -83.921875 445.2734375 C-95.78784647 444.8647438 -107.5518847 443.92531546 -119.359375 442.7109375 C-121.23432393 442.52292751 -123.10932292 442.33541601 -124.984375 442.1484375 C-126.44270833 442.00260417 -127.90104167 441.85677083 -129.359375 441.7109375 C-129.359375 441.0509375 -129.359375 440.3909375 -129.359375 439.7109375 C-130.349375 440.0409375 -131.339375 440.3709375 -132.359375 440.7109375 C-134.546875 439.2734375 -134.546875 439.2734375 -136.359375 437.7109375 C-136.029375 436.3909375 -135.699375 435.0709375 -135.359375 433.7109375 C-122.57405228 430.16615085 -110.0024108 427.98281613 -96.72398376 427.47418213 C-93.94651848 427.36637715 -91.17017399 427.23640577 -88.39358521 427.10821533 C-86.33644665 427.02503753 -84.2806944 426.97956906 -82.22241211 426.93505859 C-74.80301162 426.60514224 -70.11442403 425.99635716 -64.8527832 420.52563477 C-64.3599585 419.92678467 -63.86713379 419.32793457 -63.359375 418.7109375 C-62.86268311 418.11514893 -62.36599121 417.51936035 -61.85424805 416.90551758 C-56.87174545 410.62340163 -54.23888683 403.62654394 -53.359375 395.7109375 C-53.00875 394.6796875 -52.658125 393.6484375 -52.296875 392.5859375 C-51.14708317 387.83346459 -51.25652198 383.46978966 -51.38671875 378.6015625 C-51.359375 375.7109375 -51.359375 375.7109375 -50.359375 372.7109375 C-51.019375 372.3809375 -51.679375 372.0509375 -52.359375 371.7109375 C-52.73828125 369.41796875 -52.73828125 369.41796875 -52.921875 366.5234375 C-52.99664062 365.53214844 -53.07140625 364.54085938 -53.1484375 363.51953125 C-53.21804688 362.59269531 -53.28765625 361.66585938 -53.359375 360.7109375 C-53.70536538 357.27425318 -53.70536538 357.27425318 -54.359375 354.7109375 C-55.019375 354.3809375 -55.679375 354.0509375 -56.359375 353.7109375 C-56.69270833 352.04427083 -57.02604167 350.37760417 -57.359375 348.7109375 C-58.019375 348.3809375 -58.679375 348.0509375 -59.359375 347.7109375 C-60.31835282 345.99139106 -61.27637288 344.27129319 -62.2265625 342.546875 C-63.89297327 339.8461403 -66.04054244 337.86009938 -68.359375 335.7109375 C-69.16375 334.8859375 -69.968125 334.0609375 -70.796875 333.2109375 C-76.2423324 327.48715381 -76.2423324 327.48715381 -83.359375 324.7109375 C-83.359375 324.0509375 -83.359375 323.3909375 -83.359375 322.7109375 C-84.679375 322.7109375 -85.999375 322.7109375 -87.359375 322.7109375 C-87.359375 322.0509375 -87.359375 321.3909375 -87.359375 320.7109375 C-88.390625 320.5871875 -89.421875 320.4634375 -90.484375 320.3359375 C-94.01231179 319.76691544 -96.99644496 318.87766833 -100.359375 317.7109375 C-103.06161512 316.89061461 -105.59800623 316.24213881 -108.359375 315.7109375 C-109.42800781 315.50339844 -110.49664062 315.29585938 -111.59765625 315.08203125 C-118.5983442 314.11035106 -122.6484499 314.20897253 -128.421875 318.5234375 C-129.67677734 319.61591797 -129.67677734 319.61591797 -130.95703125 320.73046875 C-133.41016266 322.75280635 -135.36142753 323.71635777 -138.359375 324.7109375 C-139.0915625 324.95457031 -139.82375 325.19820313 -140.578125 325.44921875 C-150.44326343 327.93239572 -160.26612951 324.75237994 -169.359375 320.7109375 C-171.0703125 319.1171875 -171.0703125 319.1171875 -172.359375 317.7109375 C-173.66648438 318.34322266 -173.66648438 318.34322266 -175 318.98828125 C-187.53150207 324.75222971 -199.79888597 326.41495997 -213.359375 322.7109375 C-213.359375 322.0509375 -213.359375 321.3909375 -213.359375 320.7109375 C-214.019375 320.6284375 -214.679375 320.5459375 -215.359375 320.4609375 C-223.99579231 318.30183317 -230.31418183 313.05839033 -236.359375 306.7109375 C-236.81828125 306.23527344 -237.2771875 305.75960938 -237.75 305.26953125 C-240.89786616 301.80506935 -241.82583679 299.29936609 -242.359375 294.7109375 C-245.3139549 293.23364755 -248.13901708 292.57397663 -251.359375 292.0234375 C-257.2897824 290.75750489 -262.17588463 287.75014638 -267.359375 284.7109375 C-268.019375 284.3809375 -268.679375 284.0509375 -269.359375 283.7109375 C-269.359375 283.0509375 -269.359375 282.3909375 -269.359375 281.7109375 C-270.019375 281.7109375 -270.679375 281.7109375 -271.359375 281.7109375 C-271.359375 281.0509375 -271.359375 280.3909375 -271.359375 279.7109375 C-272.019375 279.7109375 -272.679375 279.7109375 -273.359375 279.7109375 C-279.8255729 273.54734492 -282.31208999 266.20827098 -284.359375 257.7109375 C-284.56691406 256.87691406 -284.77445312 256.04289062 -284.98828125 255.18359375 C-285.42048704 252.30373834 -285.2354447 249.79024692 -284.921875 246.8984375 C-284.76912109 245.43470703 -284.76912109 245.43470703 -284.61328125 243.94140625 C-284.52949219 243.20535156 -284.44570313 242.46929687 -284.359375 241.7109375 C-283.699375 241.7109375 -283.039375 241.7109375 -282.359375 241.7109375 C-282.318125 240.9065625 -282.276875 240.1021875 -282.234375 239.2734375 C-280.61051972 232.66202671 -275.88725595 226.72394855 -271.359375 221.7109375 C-270.699375 221.7109375 -270.039375 221.7109375 -269.359375 221.7109375 C-269.80846561 220.22893848 -270.26894064 218.75038514 -270.734375 217.2734375 C-270.98960937 216.44972656 -271.24484375 215.62601563 -271.5078125 214.77734375 C-272.16819727 212.53295734 -272.16819727 212.53295734 -274.359375 211.7109375 C-279.82179406 198.30318162 -278.63390161 185.95055569 -273.58984375 172.6875 C-267.87845975 159.90860429 -257.31018178 150.96361381 -244.66015625 145.53515625 C-241.60110125 144.43929784 -238.48995221 143.57780834 -235.359375 142.7109375 C-235.65972656 141.62296875 -235.96007812 140.535 -236.26953125 139.4140625 C-240.43877054 123.61892107 -239.45900533 112.40363138 -231.234375 98.0859375 C-229.7265625 95.546875 -229.7265625 95.546875 -228.359375 93.7109375 C-227.699375 93.7109375 -227.039375 93.7109375 -226.359375 93.7109375 C-226.359375 93.0509375 -226.359375 92.3909375 -226.359375 91.7109375 C-215.56620713 80.89340582 -201.8184149 75.64614407 -186.796875 75.5859375 C-184.65087266 75.61773013 -182.50490964 75.65600205 -180.359375 75.7109375 C-180.276875 74.7828125 -180.194375 73.8546875 -180.109375 72.8984375 C-179.33450587 67.56045017 -177.3712659 62.68916583 -175.359375 57.7109375 C-175.03324219 56.84855469 -174.70710938 55.98617187 -174.37109375 55.09765625 C-169.79843717 44.40595376 -159.87483322 37.94558904 -149.359375 33.7109375 C-138.85356617 29.90711017 -124.89261423 30.18860845 -114.76953125 34.921875 C-113.02163864 35.78955196 -111.28348766 36.67730176 -109.55859375 37.58984375 C-107.28012124 38.82020178 -107.28012124 38.82020178 -104.359375 39.7109375 C-104.17375 38.65519531 -104.17375 38.65519531 -103.984375 37.578125 C-100.48243701 20.81259686 -90.33231633 7.16600818 -76.29296875 -2.47265625 C-51.88539646 -17.58520101 -23.41304065 -16.4898297 0 0 Z M-55.546875 286.7109375 C-56.62001953 287.54625 -56.62001953 287.54625 -57.71484375 288.3984375 C-58.25753906 288.8315625 -58.80023438 289.2646875 -59.359375 289.7109375 C-57.11288805 300.82513608 -53.40161322 311.44530378 -45.359375 319.7109375 C-42.49817244 321.14153878 -40.51926915 321.09786331 -37.359375 320.7109375 C-34.52094286 317.77789096 -34.17494547 315.13860836 -34.109375 311.2109375 C-34.22248567 307.93072804 -34.65525664 304.91858778 -35.359375 301.7109375 C-35.36324219 300.53144531 -35.36324219 300.53144531 -35.3671875 299.328125 C-35.42282509 296.60188299 -35.56121189 294.32270457 -36.359375 291.7109375 C-38.27890771 290.13921003 -40.04287865 289.38431113 -42.359375 288.515625 C-44.96561401 287.46702102 -46.43307614 285.70858076 -48.359375 283.7109375 C-51.96511396 283.7109375 -52.77274066 284.52801212 -55.546875 286.7109375 Z M-20.359375 293.7109375 C-19.80303402 302.33422271 -17.91921773 311.54866099 -11.359375 317.7109375 C-8.24801268 319.02098479 -6.85537229 318.88395981 -3.671875 317.7734375 C5.97873618 311.96584583 5.97873618 311.96584583 11.640625 302.7109375 C10.650625 302.60136719 9.660625 302.49179687 8.640625 302.37890625 C1.58219 301.54718837 -4.75045995 300.43225546 -11.359375 297.7109375 C-12.349375 298.2059375 -12.349375 298.2059375 -13.359375 298.7109375 C-13.689375 297.7209375 -14.019375 296.7309375 -14.359375 295.7109375 C-17.17447493 293.4335874 -17.17447493 293.4335874 -20.359375 293.7109375 Z M-77.859375 295.7109375 C-82.70155214 296.97488815 -87.38735597 296.89433164 -92.359375 296.7109375 C-92.689375 297.3709375 -93.019375 298.0309375 -93.359375 298.7109375 C-85.769375 302.6709375 -78.179375 306.6309375 -70.359375 310.7109375 C-69.699375 310.0509375 -69.039375 309.3909375 -68.359375 308.7109375 C-68.56433594 308.03546875 -68.76929688 307.36 -68.98046875 306.6640625 C-69.24988281 305.77203125 -69.51929688 304.88 -69.796875 303.9609375 C-70.06371094 303.07921875 -70.33054688 302.1975 -70.60546875 301.2890625 C-71.24405994 299.10527915 -71.82713333 296.92258252 -72.359375 294.7109375 C-74.64554284 294.61936379 -74.64554284 294.61936379 -77.859375 295.7109375 Z M27.640625 312.7109375 C27.640625 313.3709375 27.640625 314.0309375 27.640625 314.7109375 C26.650625 315.2059375 26.650625 315.2059375 25.640625 315.7109375 C39.25278569 314.40000247 39.25278569 314.40000247 52.640625 311.7109375 C51.980625 310.7209375 51.320625 309.7309375 50.640625 308.7109375 C49.980625 308.7109375 49.320625 308.7109375 48.640625 308.7109375 C48.310625 307.7209375 47.980625 306.7309375 47.640625 305.7109375 C46.980625 305.7109375 46.320625 305.7109375 45.640625 305.7109375 C45.640625 304.7209375 45.640625 303.7309375 45.640625 302.7109375 C38.47418444 302.7109375 32.75630136 307.97893686 27.640625 312.7109375 Z " fill="#ADBE2F" transform="translate(322.359375,39.2890625)"/>
<path d="M0 0 C7.75310431 6.04112442 15.46673793 14.18927629 18.640625 23.7109375 C21.31123134 23.23965403 23.71547168 22.6819176 26.25 21.69921875 C36.73033671 18.64446623 48.69643553 19.75102853 58.48828125 24.32421875 C60.640625 25.7109375 60.640625 25.7109375 62.640625 28.7109375 C59.670625 27.7209375 56.700625 26.7309375 53.640625 25.7109375 C53.95386719 26.42121094 54.26710938 27.13148437 54.58984375 27.86328125 C57.88072498 36.78169173 56.89457858 45.94663917 53.640625 54.7109375 C49.68011178 63.19775155 43.30454554 71.63379842 34.640625 75.7109375 C33.980625 75.7109375 33.320625 75.7109375 32.640625 75.7109375 C33.07375 76.93103516 33.07375 76.93103516 33.515625 78.17578125 C37.4593826 90.34939412 39.469816 104.76418563 33.640625 116.7109375 C27.01330563 128.01334263 17.70217846 137.91743225 4.828125 141.5859375 C1.53806508 142.41201315 -0.91753114 142.7109375 -4.359375 142.7109375 C-2.41085612 147.74148863 -0.09957712 152.58105951 2.203125 157.45703125 C7.01231522 168.3430515 7.08086528 178.82397948 2.828125 189.97265625 C-3.34927746 204.21725862 -12.49852168 212.99708667 -26.359375 219.7109375 C-27.6896875 220.39542969 -27.6896875 220.39542969 -29.046875 221.09375 C-39.61724704 225.59245001 -52.10929838 224.05026696 -63.359375 223.7109375 C-63.53315674 224.29536621 -63.70693848 224.87979492 -63.88598633 225.48193359 C-67.90701049 238.34973948 -76.45769424 247.78123319 -88.296875 254.0234375 C-100.58629611 259.79854141 -112.52845423 260.31738725 -125.359375 255.7109375 C-133.42197873 252.57684611 -139.22084089 247.72557459 -145.359375 241.7109375 C-145.94847656 241.16695312 -146.53757813 240.62296875 -147.14453125 240.0625 C-148.359375 238.7109375 -148.359375 238.7109375 -148.359375 236.7109375 C-152.24085539 237.624227 -153.89842181 239.18625558 -156.109375 242.3359375 C-162.34686176 251.10342527 -171.50131991 258.73493115 -182.359375 260.7109375 C-195.31568638 261.54995144 -204.08044486 259.61780684 -214.359375 251.7109375 C-215.00132812 251.23140625 -215.64328125 250.751875 -216.3046875 250.2578125 C-222.25511287 245.1574479 -224.40656833 238.09920606 -226.359375 230.7109375 C-226.359375 229.3909375 -226.359375 228.0709375 -226.359375 226.7109375 C-227.6175 226.7934375 -228.875625 226.8759375 -230.171875 226.9609375 C-241.8398925 226.92436064 -252.92341982 220.22424457 -261.171875 212.3984375 C-267.72745251 205.49661469 -271.06334314 197.53104511 -274.359375 188.7109375 C-274.21836643 190.98207553 -274.07140745 193.25284475 -273.921875 195.5234375 C-273.84066406 196.78800781 -273.75945312 198.05257812 -273.67578125 199.35546875 C-273.48752953 202.70275643 -273.48752953 202.70275643 -272.359375 205.7109375 C-272.31983266 208.04393575 -272.31535768 210.37801939 -272.359375 212.7109375 C-274.359375 211.7109375 -274.359375 211.7109375 -275.17578125 209.70703125 C-279.35047774 195.39066369 -278.86248577 182.24043266 -271.703125 168.84375 C-262.81890475 154.74263298 -251.16316574 147.08707786 -235.359375 142.7109375 C-235.65972656 141.62296875 -235.96007812 140.535 -236.26953125 139.4140625 C-240.43877054 123.61892107 -239.45900533 112.40363138 -231.234375 98.0859375 C-229.7265625 95.546875 -229.7265625 95.546875 -228.359375 93.7109375 C-227.699375 93.7109375 -227.039375 93.7109375 -226.359375 93.7109375 C-226.359375 93.0509375 -226.359375 92.3909375 -226.359375 91.7109375 C-215.56620713 80.89340582 -201.8184149 75.64614407 -186.796875 75.5859375 C-184.65087266 75.61773013 -182.50490964 75.65600205 -180.359375 75.7109375 C-180.276875 74.7828125 -180.194375 73.8546875 -180.109375 72.8984375 C-179.33450587 67.56045017 -177.3712659 62.68916583 -175.359375 57.7109375 C-175.03324219 56.84855469 -174.70710938 55.98617187 -174.37109375 55.09765625 C-169.79843717 44.40595376 -159.87483322 37.94558904 -149.359375 33.7109375 C-138.85356617 29.90711017 -124.89261423 30.18860845 -114.76953125 34.921875 C-113.02163864 35.78955196 -111.28348766 36.67730176 -109.55859375 37.58984375 C-107.28012124 38.82020178 -107.28012124 38.82020178 -104.359375 39.7109375 C-104.17375 38.65519531 -104.17375 38.65519531 -103.984375 37.578125 C-100.48243701 20.81259686 -90.33231633 7.16600818 -76.29296875 -2.47265625 C-51.88539646 -17.58520101 -23.41304065 -16.4898297 0 0 Z " fill="#C2CA3C" transform="translate(322.359375,39.2890625)"/>
<path d="M0 0 C6.73356516 2.44446674 9.09815355 6.78056417 12.1875 13.0625 C12.69667969 14.08472656 13.20585938 15.10695312 13.73046875 16.16015625 C15.62518491 20.39849055 16.12343306 23.78204893 16.09765625 28.421875 C16.09443359 29.44667969 16.09121094 30.47148437 16.08789062 31.52734375 C16.07951172 32.59082031 16.07113281 33.65429688 16.0625 34.75 C16.05798828 35.82894531 16.05347656 36.90789062 16.04882812 38.01953125 C16.03705727 40.67974383 16.02061399 43.33984365 16 46 C17.12535156 46.4021875 17.12535156 46.4021875 18.2734375 46.8125 C31.61485478 51.92054893 40.6298083 59.70531158 46.8125 72.5625 C50.92070179 82.16147149 51.74809411 94.09432271 48 104 C43.18257732 115.29550969 43.18257732 115.29550969 38.5625 119.3125 C35.57934861 121.81098673 35.57934861 121.81098673 36.0625 125.5625 C36.371875 126.696875 36.68125 127.83125 37 129 C39.88243328 141.73247505 37.35677565 154.16813207 30.7734375 165.34375 C25.85043328 172.71741271 20.19418128 178.2301823 12.8125 183.0625 C12.23048828 183.44486816 11.64847656 183.82723633 11.04882812 184.22119141 C7.39233501 186.48726037 4.27459548 187.57837829 0 188 C0 188.66 0 189.32 0 190 C-1.5778125 190.2165625 -1.5778125 190.2165625 -3.1875 190.4375 C-6.76830917 190.90608855 -6.76830917 190.90608855 -9.3125 191.5625 C-19.23580789 193.17792221 -30.09700444 191.60846498 -39.81640625 189.34375 C-42.1172379 188.72707985 -42.1172379 188.72707985 -44.125 190.4375 C-44.74375 190.953125 -45.3625 191.46875 -46 192 C-46.99 192 -47.98 192 -49 192 C-49.33 192.66 -49.66 193.32 -50 194 C-55.70850589 195.83143435 -61.04437855 196.12852602 -66.9375 195.25 C-73.14590963 194.53795302 -76.60195556 196.49665731 -81.92578125 199.49609375 C-90.22377144 203.55546633 -102.22783492 204.5845159 -111.1875 202.125 C-112.115625 201.75375 -113.04375 201.3825 -114 201 C-115.258125 200.649375 -116.51625 200.29875 -117.8125 199.9375 C-121 199 -121 199 -122 198 C-129.92015073 198.59774722 -137.66394733 200.55464911 -145.1875 203.0625 C-150.00933277 204.66977759 -154.99041926 205.66506988 -160 206.5 C-160.66 206.665 -161.32 206.83 -162 207 C-162.33 207.66 -162.66 208.32 -163 209 C-164.63591092 209.68162955 -166.27217181 210.36243089 -167.91015625 211.0390625 C-178.2459531 215.79159713 -185.75939059 223.15508073 -189.9375 233.75 C-196.02699778 250.84187852 -193.80375958 270.09862466 -186.3125 286.4375 C-185.22931825 288.30400351 -184.12284207 290.15708282 -183 292 C-182.49807129 292.87865723 -181.99614258 293.75731445 -181.47900391 294.66259766 C-178.83553921 298.39701604 -176.3517568 301.33277716 -171.80685425 302.6222229 C-165.27878159 303.71889515 -158.66666847 303.79287538 -152.0625 303.9375 C-148.13593713 304.07454436 -144.21058739 304.23625597 -140.28515625 304.40234375 C-138.85123032 304.45870499 -138.85123032 304.45870499 -137.38833618 304.51620483 C-131.18930888 304.79362298 -125.12044851 305.37684246 -118.99609375 306.37890625 C-118.28510025 306.49266098 -117.57410675 306.60641571 -116.84156799 306.72361755 C-112.17869982 307.56038454 -108.26106848 309.01353557 -104 311 C-104.33 312.32 -104.66 313.64 -105 315 C-105.99 315 -106.98 315 -108 315 C-108 315.66 -108 316.32 -108 317 C-109.64502905 317.31670653 -111.29108277 317.628091 -112.9375 317.9375 C-114.31228516 318.19853516 -114.31228516 318.19853516 -115.71484375 318.46484375 C-124.85547561 319.95386463 -134.04321135 320.39587336 -143.27856445 320.875 C-145.6370285 320.99738103 -147.99527918 321.12331685 -150.35351562 321.25 C-154.39497777 321.46575148 -158.43695203 321.66984595 -162.47915649 321.87115479 C-165.00633056 322.00032357 -167.53276531 322.14015659 -170.05932617 322.28076172 C-184.38806181 323.04462765 -198.69605686 323.15390735 -213.04321289 323.13037109 C-216.95658174 323.12497368 -220.86983756 323.13037183 -224.78320312 323.13671875 C-246.88214892 323.14259014 -246.88214892 323.14259014 -257.90014648 322.24511719 C-263.11348381 321.83287881 -268.33649754 321.72304804 -273.5625 321.5625 C-285.42847147 321.1538063 -297.1925097 320.21437796 -309 319 C-310.87494893 318.81199001 -312.74994792 318.62447851 -314.625 318.4375 C-316.08333333 318.29166667 -317.54166667 318.14583333 -319 318 C-319 317.34 -319 316.68 -319 316 C-319.99 316.33 -320.98 316.66 -322 317 C-324.1875 315.5625 -324.1875 315.5625 -326 314 C-325.67 312.68 -325.34 311.36 -325 310 C-312.21467728 306.45521335 -299.6430358 304.27187863 -286.36460876 303.76324463 C-283.58714348 303.65543965 -280.81079899 303.52546827 -278.03421021 303.39727783 C-275.97707165 303.31410003 -273.9213194 303.26863156 -271.86303711 303.22412109 C-264.44363662 302.89420474 -259.75504903 302.28541966 -254.4934082 296.81469727 C-254.0005835 296.21584717 -253.50775879 295.61699707 -253 295 C-252.50330811 294.40421143 -252.00661621 293.80842285 -251.49487305 293.19458008 C-246.51237045 286.91246413 -243.87951183 279.91560644 -243 272 C-242.649375 270.96875 -242.29875 269.9375 -241.9375 268.875 C-240.78770817 264.12252709 -240.89714698 259.75885216 -241.02734375 254.890625 C-241 252 -241 252 -240 249 C-240.66 248.67 -241.32 248.34 -242 248 C-242.37890625 245.70703125 -242.37890625 245.70703125 -242.5625 242.8125 C-242.67464844 241.32556641 -242.67464844 241.32556641 -242.7890625 239.80859375 C-242.85867188 238.88175781 -242.92828125 237.95492187 -243 237 C-243.34599038 233.56331568 -243.34599038 233.56331568 -244 231 C-244.66 230.67 -245.32 230.34 -246 230 C-246.33333333 228.33333333 -246.66666667 226.66666667 -247 225 C-247.66 224.67 -248.32 224.34 -249 224 C-249.95897782 222.28045356 -250.91699788 220.56035569 -251.8671875 218.8359375 C-253.53359827 216.1352028 -255.68116744 214.14916188 -258 212 C-258.804375 211.175 -259.60875 210.35 -260.4375 209.5 C-265.8829574 203.77621631 -265.8829574 203.77621631 -273 201 C-273 200.34 -273 199.68 -273 199 C-274.32 199 -275.64 199 -277 199 C-277 198.34 -277 197.68 -277 197 C-278.03125 196.87625 -279.0625 196.7525 -280.125 196.625 C-283.65293679 196.05597794 -286.63706996 195.16673083 -290 194 C-292.70224012 193.17967711 -295.23863123 192.53120131 -298 192 C-299.06863281 191.79246094 -300.13726562 191.58492187 -301.23828125 191.37109375 C-308.2389692 190.39941356 -312.2890749 190.49803503 -318.0625 194.8125 C-318.89910156 195.54082031 -319.73570312 196.26914062 -320.59765625 197.01953125 C-323.05078766 199.04186885 -325.00205253 200.00542027 -328 201 C-328.7321875 201.24363281 -329.464375 201.48726562 -330.21875 201.73828125 C-340.08388843 204.22145822 -349.90675451 201.04144244 -359 197 C-360.7109375 195.40625 -360.7109375 195.40625 -362 194 C-362.87140625 194.42152344 -363.7428125 194.84304688 -364.640625 195.27734375 C-377.17212707 201.04129221 -389.43951097 202.70402247 -403 199 C-403 198.34 -403 197.68 -403 197 C-403.66 196.9175 -404.32 196.835 -405 196.75 C-413.63641731 194.59089567 -419.95480683 189.34745283 -426 183 C-426.45890625 182.52433594 -426.9178125 182.04867187 -427.390625 181.55859375 C-430.53849116 178.09413185 -431.46646179 175.58842859 -432 171 C-434.9545799 169.52271005 -437.77964208 168.86303913 -441 168.3125 C-446.9304074 167.04656739 -451.81650963 164.03920888 -457 161 C-457.66 160.67 -458.32 160.34 -459 160 C-459 159.34 -459 158.68 -459 158 C-459.66 158 -460.32 158 -461 158 C-461 157.34 -461 156.68 -461 156 C-461.66 156 -462.32 156 -463 156 C-466.71462885 153.06604373 -469.51401966 149.5319463 -470.42089844 144.80712891 C-470.98525391 139.54584516 -471.03992424 134.28711062 -471 129 C-468.8541558 131.82246174 -466.80070866 134.689324 -464.8125 137.625 C-464.28269531 138.40101563 -463.75289063 139.17703125 -463.20703125 139.9765625 C-462 142 -462 142 -462 144 C-461.4225 144.268125 -460.845 144.53625 -460.25 144.8125 C-458 146 -458 146 -456.0625 147.5 C-451.86072619 150.5558355 -446.95122925 151.62465854 -442 153 C-441.01 153.33 -440.02 153.66 -439 154 C-437.59175107 154.08021999 -436.18002769 154.10765977 -434.76953125 154.09765625 C-433.56586914 154.09282227 -433.56586914 154.09282227 -432.33789062 154.08789062 C-431.50451172 154.07951172 -430.67113281 154.07113281 -429.8125 154.0625 C-428.96751953 154.05798828 -428.12253906 154.05347656 -427.25195312 154.04882812 C-425.16793845 154.03705403 -423.08396023 154.0191189 -421 154 C-418.1171875 159.734375 -418.1171875 159.734375 -417.0625 162.125 C-416.00704915 164.18178264 -416.00704915 164.18178264 -413.875 166.125 C-412 168 -412 168 -412 170 C-411.34 170 -410.68 170 -410 170 C-410 170.66 -410 171.32 -410 172 C-409.2575 172.28875 -408.515 172.5775 -407.75 172.875 C-405 174 -405 174 -403.1484375 175 C-399.00150646 176.9302079 -394.49855674 177.37971708 -390 178 C-389.19175781 178.12246094 -388.38351562 178.24492187 -387.55078125 178.37109375 C-379.41539617 179.02999271 -372.64676942 175.2752279 -366 171 C-362.41921878 167.83697659 -359.7574584 164.60728977 -357.71875 160.28125 C-356 158 -356 158 -353.13671875 157.5390625 C-351.99847656 157.56742188 -350.86023438 157.59578125 -349.6875 157.625 C-338.35275731 157.21432092 -329.06458679 151.87257282 -321 144 C-320.18917969 144.40992188 -319.37835938 144.81984375 -318.54296875 145.2421875 C-303.26494683 152.67666149 -284.71345248 155.16309202 -268.0625 150.5 C-251.84639229 144.45331577 -237.73400272 134.69115702 -226 122 C-223 123 -223 123 -221.31640625 125.80078125 C-220.44822266 127.53908203 -220.44822266 127.53908203 -219.5625 129.3125 C-217.41819351 133.59631587 -215.44421483 136.69203982 -212 140 C-212 140.66 -212 141.32 -212 142 C-211.34 142 -210.68 142 -210 142 C-210 142.66 -210 143.32 -210 144 C-206.59600308 145.79377289 -203.09002588 147.18330428 -199.5 148.5625 C-198.3759375 148.99691406 -197.251875 149.43132812 -196.09375 149.87890625 C-188.14568524 152.75907618 -177.90485852 153.70675404 -169.75 150.9375 C-167.90093785 150.09788679 -167.90093785 150.09788679 -166 149 C-165.14019531 148.5359375 -164.28039062 148.071875 -163.39453125 147.59375 C-156.29522006 143.44187697 -151.17469667 138.35018333 -146 132 C-142.28879258 133.30183716 -139.7654196 134.86131311 -136.8125 137.4375 C-132.17373396 141.16245236 -127.76398224 142.7594078 -122 144 C-121.21625 144.18433594 -120.4325 144.36867188 -119.625 144.55859375 C-106.88247792 146.70130952 -96.32592684 144.97042584 -85.67578125 137.94921875 C-82.87251277 135.99449958 -82.87251277 135.99449958 -80.15234375 133.3046875 C-76.41420731 130.5717253 -73.6989139 130.37631546 -69.25 130.4375 C-62.39324664 130.25829474 -57.07056893 129.23211178 -51 126 C-50.18273437 125.5771875 -49.36546875 125.154375 -48.5234375 124.71875 C-38.11210023 118.91676638 -30.46140444 111.5972947 -25 101 C-24.401875 99.906875 -23.80375 98.81375 -23.1875 97.6875 C-19.29345194 88.87465439 -19.59798152 76.66977991 -23 67.75 C-23.37125 66.91984375 -23.7425 66.0896875 -24.125 65.234375 C-25 63 -25 63 -25 59 C-22.8828125 57.078125 -22.8828125 57.078125 -20.125 55.25 C-18.76761719 54.32960938 -18.76761719 54.32960938 -17.3828125 53.390625 C-15 52 -15 52 -13 52 C-12.59394531 51.12601563 -12.59394531 51.12601563 -12.1796875 50.234375 C-11.00571797 48.01083007 -9.69020139 46.21258413 -8.125 44.25 C-2.89073257 37.40321986 0.13560485 31.05351024 0.09765625 22.36328125 C0.09282227 20.41518555 0.09282227 20.41518555 0.08789062 18.42773438 C0.07953531 17.05598892 0.07107037 15.68424413 0.0625 14.3125 C0.05748335 12.92903805 0.05292073 11.54557437 0.04882812 10.16210938 C0.03702529 6.77469605 0.02056019 3.38736967 0 0 Z M-245.1875 163 C-246.26064453 163.8353125 -246.26064453 163.8353125 -247.35546875 164.6875 C-247.89816406 165.120625 -248.44085938 165.55375 -249 166 C-246.75351305 177.11419858 -243.04223822 187.73436628 -235 196 C-232.13879744 197.43060128 -230.15989415 197.38692581 -227 197 C-224.16156786 194.06695346 -223.81557047 191.42767086 -223.75 187.5 C-223.86311067 184.21979054 -224.29588164 181.20765028 -225 178 C-225.00386719 176.82050781 -225.00386719 176.82050781 -225.0078125 175.6171875 C-225.06345009 172.89094549 -225.20183689 170.61176707 -226 168 C-227.91953271 166.42827253 -229.68350365 165.67337363 -232 164.8046875 C-234.60623901 163.75608352 -236.07370114 161.99764326 -238 160 C-241.60573896 160 -242.41336566 160.81707462 -245.1875 163 Z M-210 170 C-209.44365902 178.62328521 -207.55984273 187.83772349 -201 194 C-197.88863768 195.31004729 -196.49599729 195.17302231 -193.3125 194.0625 C-183.66188882 188.25490833 -183.66188882 188.25490833 -178 179 C-178.99 178.89042969 -179.98 178.78085937 -181 178.66796875 C-188.058435 177.83625087 -194.39108495 176.72131796 -201 174 C-201.99 174.495 -201.99 174.495 -203 175 C-203.33 174.01 -203.66 173.02 -204 172 C-206.81509993 169.7226499 -206.81509993 169.7226499 -210 170 Z M-267.5 172 C-272.34217714 173.26395065 -277.02798097 173.18339414 -282 173 C-282.33 173.66 -282.66 174.32 -283 175 C-275.41 178.96 -267.82 182.92 -260 187 C-259.34 186.34 -258.68 185.68 -258 185 C-258.20496094 184.32453125 -258.40992188 183.6490625 -258.62109375 182.953125 C-258.89050781 182.06109375 -259.15992188 181.1690625 -259.4375 180.25 C-259.70433594 179.36828125 -259.97117187 178.4865625 -260.24609375 177.578125 C-260.88468494 175.39434165 -261.46775833 173.21164502 -262 171 C-264.28616784 170.90842629 -264.28616784 170.90842629 -267.5 172 Z M-162 189 C-162 189.66 -162 190.32 -162 191 C-162.99 191.495 -162.99 191.495 -164 192 C-150.38783931 190.68906497 -150.38783931 190.68906497 -137 188 C-137.66 187.01 -138.32 186.02 -139 185 C-139.66 185 -140.32 185 -141 185 C-141.33 184.01 -141.66 183.02 -142 182 C-142.66 182 -143.32 182 -144 182 C-144 181.01 -144 180.02 -144 179 C-151.16644056 179 -156.88432364 184.26799936 -162 189 Z " fill="#96AD27" transform="translate(512,163)"/>
<path d="M0 0 C0.66 0 1.32 0 2 0 C3.2179676 1.89298579 4.35029558 3.8415036 5.4375 5.8125 C7.65139748 10.00415579 7.65139748 10.00415579 10.6875 13.56640625 C12.58446086 15.63838433 12.43782004 17.36595308 12.5625 20.125 C12.64589072 22.74150598 12.64589072 22.74150598 13 25 C13.66 25.33 14.32 25.66 15 26 C15.69128393 27.89376943 16.30436706 29.81645037 16.875 31.75 C18.85429484 38.01456377 18.85429484 38.01456377 23 43 C26.23429471 44.3618083 27.57805426 44.15593647 30.875 42.9375 C34.05419759 40.96639749 36.60661991 38.79502163 39.2890625 36.20703125 C41 35 41 35 45 35 C45.3403125 33.88625 45.3403125 33.88625 45.6875 32.75 C48.4308352 27.00205959 54.11860527 24.51823514 59.71875 22.01171875 C64.10301506 20.65990369 68.32039626 20.65861677 72.85766602 20.59741211 C79.6040401 20.32858431 84.36353341 17.77913034 90.109375 14.3984375 C93 13 93 13 95.265625 13.2265625 C96.52418008 13.78781004 97.76745477 14.38372738 99 15 C99 15.66 99 16.32 99 17 C96.75076296 18.2930106 94.50064815 19.58444977 92.25 20.875 C91.61578125 21.23980469 90.9815625 21.60460937 90.328125 21.98046875 C88.55681444 22.99528209 86.77860478 23.99802582 85 25 C84.27296875 25.41507812 83.5459375 25.83015625 82.796875 26.2578125 C81 27 81 27 77 27 C76.79375 27.598125 76.5875 28.19625 76.375 28.8125 C74.48896435 31.81301127 72.17291047 32.54574937 69 34 C68.01 34.99 68.01 34.99 67 36 C65.33333333 37.66666667 63.66666667 39.33333333 62 41 C66.08319884 41.0871142 70.16615864 41.14043048 74.25 41.1875 C75.98830078 41.22520508 75.98830078 41.22520508 77.76171875 41.26367188 C78.87675781 41.27333984 79.99179687 41.28300781 81.140625 41.29296875 C82.68024902 41.31653442 82.68024902 41.31653442 84.25097656 41.34057617 C87.41229001 40.94892144 88.59395888 40.00561828 91 38 C93.44536682 37.35528656 95.83900419 36.80969404 98.3125 36.3125 C109.62398884 33.76039086 119.15900885 28.47408533 128.1484375 21.1875 C131.45552457 19.06649901 135.15494851 18.51623377 139 18 C135.46039248 26.77740823 125.11503989 33.27661266 117.25 38 C116.64905518 38.3611792 116.04811035 38.7223584 115.42895508 39.09448242 C109.80282164 42.33651782 103.65049002 45.62348344 97 45 C96.67 45.66 96.34 46.32 96 47 C95.34 47 94.68 47 94 47 C94 47.66 94 48.32 94 49 C93.20335937 49.19335938 92.40671875 49.38671875 91.5859375 49.5859375 C85.15040209 51.15220395 85.15040209 51.15220395 78.8125 53.0625 C73.99066723 54.66977759 69.00958074 55.66506988 64 56.5 C63.34 56.665 62.68 56.83 62 57 C61.67 57.66 61.34 58.32 61 59 C59.36408908 59.68162955 57.72782819 60.36243089 56.08984375 61.0390625 C45.7540469 65.79159713 38.24060941 73.15508073 34.0625 83.75 C27.97300222 100.84187852 30.19624042 120.09862466 37.6875 136.4375 C38.77068175 138.30400351 39.87715793 140.15708282 41 142 C41.50192871 142.87865723 42.00385742 143.75731445 42.52099609 144.66259766 C45.16446079 148.39701604 47.6482432 151.33277716 52.19314575 152.6222229 C58.72121841 153.71889515 65.33333153 153.79287538 71.9375 153.9375 C75.86406287 154.07454436 79.78941261 154.23625597 83.71484375 154.40234375 C84.67079437 154.43991791 85.626745 154.47749207 86.61166382 154.51620483 C92.81069112 154.79362298 98.87955149 155.37684246 105.00390625 156.37890625 C105.71489975 156.49266098 106.42589325 156.60641571 107.15843201 156.72361755 C111.82130018 157.56038454 115.73893152 159.01353557 120 161 C119.67 162.32 119.34 163.64 119 165 C118.01 165 117.02 165 116 165 C116 165.66 116 166.32 116 167 C114.35497095 167.31670653 112.70891723 167.628091 111.0625 167.9375 C110.14597656 168.11152344 109.22945312 168.28554688 108.28515625 168.46484375 C99.14452439 169.95386463 89.95678865 170.39587336 80.72143555 170.875 C78.3629715 170.99738103 76.00472082 171.12331685 73.64648438 171.25 C69.60502223 171.46575148 65.56304797 171.66984595 61.52084351 171.87115479 C58.99366944 172.00032357 56.46723469 172.14015659 53.94067383 172.28076172 C39.61193819 173.04462765 25.30394314 173.15390735 10.95678711 173.13037109 C7.04341826 173.12497368 3.13016244 173.13037183 -0.78320312 173.13671875 C-22.88214892 173.14259014 -22.88214892 173.14259014 -33.90014648 172.24511719 C-39.11348381 171.83287881 -44.33649754 171.72304804 -49.5625 171.5625 C-61.42847147 171.1538063 -73.1925097 170.21437796 -85 169 C-86.87494893 168.81199001 -88.74994792 168.62447851 -90.625 168.4375 C-92.08333333 168.29166667 -93.54166667 168.14583333 -95 168 C-95 167.34 -95 166.68 -95 166 C-95.99 166.33 -96.98 166.66 -98 167 C-100.1875 165.5625 -100.1875 165.5625 -102 164 C-101.67 162.68 -101.34 161.36 -101 160 C-88.21467728 156.45521335 -75.6430358 154.27187863 -62.36460876 153.76324463 C-59.58714348 153.65543965 -56.81079899 153.52546827 -54.03421021 153.39727783 C-51.97707165 153.31410003 -49.9213194 153.26863156 -47.86303711 153.22412109 C-40.44363662 152.89420474 -35.75504903 152.28541966 -30.4934082 146.81469727 C-30.0005835 146.21584717 -29.50775879 145.61699707 -29 145 C-28.25496216 144.10631714 -28.25496216 144.10631714 -27.49487305 143.19458008 C-22.51237045 136.91246413 -19.87951183 129.91560644 -19 122 C-18.649375 120.96875 -18.29875 119.9375 -17.9375 118.875 C-16.78770817 114.12252709 -16.89714698 109.75885216 -17.02734375 104.890625 C-17 102 -17 102 -16 99 C-16.66 98.67 -17.32 98.34 -18 98 C-18.37890625 95.70703125 -18.37890625 95.70703125 -18.5625 92.8125 C-18.67464844 91.32556641 -18.67464844 91.32556641 -18.7890625 89.80859375 C-18.89347656 88.41833984 -18.89347656 88.41833984 -19 87 C-19.34599038 83.56331568 -19.34599038 83.56331568 -20 81 C-20.66 80.67 -21.32 80.34 -22 80 C-22.33333333 78.33333333 -22.66666667 76.66666667 -23 75 C-23.66 74.67 -24.32 74.34 -25 74 C-25.95897782 72.28045356 -26.91699788 70.56035569 -27.8671875 68.8359375 C-29.53359827 66.1352028 -31.68116744 64.14916188 -34 62 C-34.804375 61.175 -35.60875 60.35 -36.4375 59.5 C-41.8829574 53.77621631 -41.8829574 53.77621631 -49 51 C-49 50.34 -49 49.68 -49 49 C-50.32 49 -51.64 49 -53 49 C-53 48.34 -53 47.68 -53 47 C-54.03125 46.87625 -55.0625 46.7525 -56.125 46.625 C-59.65293679 46.05597794 -62.63706996 45.16673083 -66 44 C-70.91482062 42.63029589 -75.54279031 41.72833344 -80.62890625 41.34375 C-83.85288255 40.87635311 -86.87537676 39.91606758 -90 39 C-91.14597656 38.72800781 -92.29195312 38.45601563 -93.47265625 38.17578125 C-104.47164865 35.53075696 -115.46016481 31.74617021 -124 24 C-124 23.34 -124 22.68 -124 22 C-117.98875812 21.39887581 -114.52503343 21.97768278 -109.1875 24.875 C-98.01535732 30.84098047 -86.33168015 30.26299792 -74 30 C-74.721875 29.51789063 -75.44375 29.03578125 -76.1875 28.5390625 C-77.115625 27.90742188 -78.04375 27.27578125 -79 26.625 C-79.928125 25.99851562 -80.85625 25.37203125 -81.8125 24.7265625 C-82.534375 24.15679687 -83.25625 23.58703125 -84 23 C-84 22.34 -84 21.68 -84 21 C-84.57234375 20.74476563 -85.1446875 20.48953125 -85.734375 20.2265625 C-88.24173733 18.86912841 -90.1330456 17.28025896 -92.25 15.375 C-92.95640625 14.74335938 -93.6628125 14.11171875 -94.390625 13.4609375 C-94.92171875 12.97882813 -95.4528125 12.49671875 -96 12 C-95.67 11.01 -95.34 10.02 -95 9 C-91.61403326 9.64163297 -89.26097459 10.95588768 -86.375 12.8125 C-80.55196632 16.39392337 -74.56197712 18.8317478 -68.08203125 20.95703125 C-64.97778677 22.00751703 -61.96493225 23.18355709 -58.9375 24.4375 C-57.93589844 24.84871094 -56.93429688 25.25992187 -55.90234375 25.68359375 C-53.10474488 26.95249122 -50.54340056 28.27705124 -48 30 C-47.1875 32.1875 -47.1875 32.1875 -47 34 C-46.175 34.0825 -45.35 34.165 -44.5 34.25 C-40.23246079 35.16447269 -36.80763106 36.92223178 -33 39 C-33.44674293 35.35159938 -34.01030554 31.96544613 -35.0625 28.4375 C-35.97051692 25.10810461 -36.16721405 22.42788808 -36 19 C-29.375 16 -29.375 16 -26 16 C-26 16.66 -26 17.32 -26 18 C-25.34 18 -24.68 18 -24 18 C-23.72027344 18.95519531 -23.44054687 19.91039062 -23.15234375 20.89453125 C-18.82967153 35.24404786 -18.82967153 35.24404786 -9 46 C-5.87478167 46.16699232 -5.87478167 46.16699232 -3 46 C-1.30695437 43.04888093 -0.74778428 40.9571339 -0.8125 37.5625 C-0.81894531 36.82128906 -0.82539063 36.08007812 -0.83203125 35.31640625 C-0.94517581 32.99023169 -0.94517581 32.99023169 -1.5 30.72094727 C-2.4306149 25.65663913 -2.18458915 20.50973303 -2.1875 15.375 C-2.19974609 14.2303125 -2.21199219 13.085625 -2.22460938 11.90625 C-2.22654297 10.81054688 -2.22847656 9.71484375 -2.23046875 8.5859375 C-2.23457764 7.5861084 -2.23868652 6.5862793 -2.24291992 5.55615234 C-2 3 -2 3 0 0 Z " fill="#B56534" transform="translate(288,313)"/>
<path d="M0 0 C1.25855508 0.56124754 2.50182977 1.15716488 3.734375 1.7734375 C3.734375 2.4334375 3.734375 3.0934375 3.734375 3.7734375 C1.48513796 5.0664481 -0.76497685 6.35788727 -3.015625 7.6484375 C-3.64984375 8.01324219 -4.2840625 8.37804687 -4.9375 8.75390625 C-6.70881056 9.76871959 -8.48702022 10.77146332 -10.265625 11.7734375 C-10.99265625 12.18851562 -11.7196875 12.60359375 -12.46875 13.03125 C-14.265625 13.7734375 -14.265625 13.7734375 -18.265625 13.7734375 C-18.471875 14.3715625 -18.678125 14.9696875 -18.890625 15.5859375 C-20.77666065 18.58644877 -23.09271453 19.31918687 -26.265625 20.7734375 C-26.925625 21.4334375 -27.585625 22.0934375 -28.265625 22.7734375 C-29.93229167 24.44010417 -31.59895833 26.10677083 -33.265625 27.7734375 C-29.18242616 27.8605517 -25.09946636 27.91386798 -21.015625 27.9609375 C-19.85675781 27.98607422 -18.69789063 28.01121094 -17.50390625 28.03710938 C-16.38886719 28.04677734 -15.27382813 28.05644531 -14.125 28.06640625 C-12.58537598 28.08997192 -12.58537598 28.08997192 -11.01464844 28.11401367 C-7.85333499 27.72235894 -6.67166612 26.77905578 -4.265625 24.7734375 C-1.82025818 24.12872406 0.57337919 23.58313154 3.046875 23.0859375 C14.35836384 20.53382836 23.89338385 15.24752283 32.8828125 7.9609375 C36.18989957 5.83993651 39.88932351 5.28967127 43.734375 4.7734375 C40.19476748 13.55084573 29.84941489 20.05005016 21.984375 24.7734375 C21.38343018 25.1346167 20.78248535 25.4957959 20.16333008 25.86791992 C14.53719664 29.10995532 8.38486502 32.39692094 1.734375 31.7734375 C1.404375 32.4334375 1.074375 33.0934375 0.734375 33.7734375 C0.074375 33.7734375 -0.585625 33.7734375 -1.265625 33.7734375 C-1.265625 34.4334375 -1.265625 35.0934375 -1.265625 35.7734375 C-2.06226563 35.96679688 -2.85890625 36.16015625 -3.6796875 36.359375 C-10.11522291 37.92564145 -10.11522291 37.92564145 -16.453125 39.8359375 C-21.27495777 41.44321509 -26.25604426 42.43850738 -31.265625 43.2734375 C-31.925625 43.4384375 -32.585625 43.6034375 -33.265625 43.7734375 C-33.760625 44.7634375 -33.760625 44.7634375 -34.265625 45.7734375 C-35.90153592 46.45506705 -37.53779681 47.13586839 -39.17578125 47.8125 C-49.5115781 52.56503463 -57.02501559 59.92851823 -61.203125 70.5234375 C-66.91410541 86.55290116 -65.38712479 104.72520953 -58.76953125 120.29296875 C-57.34562015 123.17274906 -55.83607782 125.97174966 -54.265625 128.7734375 C-53.56179688 130.30871094 -53.56179688 130.30871094 -52.84375 131.875 C-51.21290946 134.87025664 -49.74040264 136.38057847 -47.078125 138.4609375 C-44.91015625 140.16015625 -44.91015625 140.16015625 -43.265625 141.7734375 C-43.265625 142.7634375 -43.265625 143.7534375 -43.265625 144.7734375 C-72.965625 144.7734375 -102.665625 144.7734375 -133.265625 144.7734375 C-132.935625 143.7834375 -132.605625 142.7934375 -132.265625 141.7734375 C-131.605625 141.7734375 -130.945625 141.7734375 -130.265625 141.7734375 C-129.358125 140.9071875 -128.450625 140.0409375 -127.515625 139.1484375 C-125.890625 137.75390625 -125.890625 137.75390625 -124.265625 136.7734375 C-121.515625 137.4609375 -121.515625 137.4609375 -118.265625 138.7734375 C-110.91609272 139.73040785 -104.74698342 138.30346307 -98.265625 134.7734375 C-86.69205942 125.51458503 -84.03822505 110.43045741 -82.328125 96.5234375 C-79.28533406 74.40596256 -73.08398113 55.30812515 -55.265625 40.7734375 C-52.90625 39.94921875 -52.90625 39.94921875 -51.265625 39.7734375 C-51.575 38.7525 -51.575 38.7525 -51.890625 37.7109375 C-52.36626329 33.98510419 -51.44231649 31.30351196 -50.265625 27.7734375 C-50.925625 27.7734375 -51.585625 27.7734375 -52.265625 27.7734375 C-53.265625 24.7734375 -53.265625 24.7734375 -52.265625 21.7734375 C-51.605625 21.7734375 -50.945625 21.7734375 -50.265625 21.7734375 C-50.03875 21.0309375 -49.811875 20.2884375 -49.578125 19.5234375 C-46.8347898 13.77549709 -41.14701973 11.29167264 -35.546875 8.78515625 C-31.16260994 7.43334119 -26.94522874 7.43205427 -22.40795898 7.37084961 C-15.6615849 7.10202181 -10.90209159 4.55256784 -5.15625 1.171875 C-2.265625 -0.2265625 -2.265625 -0.2265625 0 0 Z " fill="#A9602B" transform="translate(383.265625,326.2265625)"/>
<path d="M0 0 C0 3 0 3 -1.42578125 4.75390625 C-2.04839844 5.35074219 -2.67101562 5.94757813 -3.3125 6.5625 C-3.92738281 7.16191406 -4.54226563 7.76132812 -5.17578125 8.37890625 C-7 10 -7 10 -10 12 C-10.33 12.99 -10.66 13.98 -11 15 C18.7 15 48.4 15 79 15 C79 14.01 79 13.02 79 12 C78.46375 11.79375 77.9275 11.5875 77.375 11.375 C73.9982346 9.42003056 71.69525161 6.81776305 69 4 C69.33 3.34 69.66 2.68 70 2 C70.39052048 2.49099182 70.78104095 2.98198364 71.18339539 3.487854 C74.36750142 7.11596048 76.74402667 9.40631433 81.63989258 10.02246094 C83.38980061 10.12602622 85.14200555 10.19490901 86.89453125 10.234375 C87.84075851 10.28394348 88.78698578 10.33351196 89.7618866 10.38458252 C92.77825866 10.53747968 95.79408163 10.64600834 98.8125 10.75 C102.7573011 10.91695865 106.7010209 11.10188633 110.64453125 11.296875 C111.60666534 11.34372437 112.56879944 11.39057373 113.56008911 11.43884277 C119.77084954 11.77759115 125.87212073 12.39046733 132.01171875 13.390625 C133.0774688 13.56014679 133.0774688 13.56014679 134.16474915 13.73309326 C138.82859766 14.56420127 142.73945391 16.01306239 147 18 C146.67 19.32 146.34 20.64 146 22 C145.01 22 144.02 22 143 22 C143 22.66 143 23.32 143 24 C141.35497095 24.31670653 139.70891723 24.628091 138.0625 24.9375 C137.14597656 25.11152344 136.22945312 25.28554688 135.28515625 25.46484375 C126.14452439 26.95386463 116.95678865 27.39587336 107.72143555 27.875 C105.3629715 27.99738103 103.00472082 28.12331685 100.64648438 28.25 C96.60502223 28.46575148 92.56304797 28.66984595 88.52084351 28.87115479 C85.99366944 29.00032357 83.46723469 29.14015659 80.94067383 29.28076172 C66.61193819 30.04462765 52.30394314 30.15390735 37.95678711 30.13037109 C34.04341826 30.12497368 30.13016244 30.13037183 26.21679688 30.13671875 C4.11785108 30.14259014 4.11785108 30.14259014 -6.90014648 29.24511719 C-12.11348381 28.83287881 -17.33649754 28.72304804 -22.5625 28.5625 C-34.42847147 28.1538063 -46.1925097 27.21437796 -58 26 C-59.87494893 25.81199001 -61.74994792 25.62447851 -63.625 25.4375 C-65.08333333 25.29166667 -66.54166667 25.14583333 -68 25 C-68 24.34 -68 23.68 -68 23 C-68.99 23.33 -69.98 23.66 -71 24 C-73.1875 22.5625 -73.1875 22.5625 -75 21 C-74.67 19.68 -74.34 18.36 -74 17 C-61.21467728 13.45521335 -48.6430358 11.27187863 -35.36460876 10.76324463 C-32.58714348 10.65543965 -29.81079899 10.52546827 -27.03421021 10.39727783 C-24.97707165 10.31410003 -22.9213194 10.26863156 -20.86303711 10.22412109 C-13.35598047 9.89030696 -8.71147276 9.244497 -3.42016602 3.68041992 C-2.71718384 2.84861206 -2.71718384 2.84861206 -2 2 C-1.34 1.34 -0.68 0.68 0 0 Z " fill="#9EB22E" transform="translate(261,456)"/>
<path d="M0 0 C1.25855508 0.56124754 2.50182977 1.15716488 3.734375 1.7734375 C3.734375 2.4334375 3.734375 3.0934375 3.734375 3.7734375 C1.48513796 5.0664481 -0.76497685 6.35788727 -3.015625 7.6484375 C-3.64984375 8.01324219 -4.2840625 8.37804687 -4.9375 8.75390625 C-6.70881056 9.76871959 -8.48702022 10.77146332 -10.265625 11.7734375 C-10.99265625 12.18851562 -11.7196875 12.60359375 -12.46875 13.03125 C-14.265625 13.7734375 -14.265625 13.7734375 -18.265625 13.7734375 C-18.471875 14.3715625 -18.678125 14.9696875 -18.890625 15.5859375 C-20.77666065 18.58644877 -23.09271453 19.31918687 -26.265625 20.7734375 C-26.925625 21.4334375 -27.585625 22.0934375 -28.265625 22.7734375 C-29.7196875 23.4540625 -29.7196875 23.4540625 -31.203125 24.1484375 C-34.2700328 25.77577633 -35.34689568 26.99127999 -37.265625 29.7734375 C-37.925625 29.7734375 -38.585625 29.7734375 -39.265625 29.7734375 C-39.265625 30.4334375 -39.265625 31.0934375 -39.265625 31.7734375 C-45.205625 34.2484375 -45.205625 34.2484375 -51.265625 36.7734375 C-50.770625 32.3184375 -50.770625 32.3184375 -50.265625 27.7734375 C-50.925625 27.7734375 -51.585625 27.7734375 -52.265625 27.7734375 C-53.265625 24.7734375 -53.265625 24.7734375 -52.265625 21.7734375 C-51.605625 21.7734375 -50.945625 21.7734375 -50.265625 21.7734375 C-50.03875 21.0309375 -49.811875 20.2884375 -49.578125 19.5234375 C-46.8347898 13.77549709 -41.14701973 11.29167264 -35.546875 8.78515625 C-31.16260994 7.43334119 -26.94522874 7.43205427 -22.40795898 7.37084961 C-15.6615849 7.10202181 -10.90209159 4.55256784 -5.15625 1.171875 C-2.265625 -0.2265625 -2.265625 -0.2265625 0 0 Z " fill="#8A4C14" transform="translate(383.265625,326.2265625)"/>
<path d="M0 0 C0 0.66 0 1.32 0 2 C0.66 2 1.32 2 2 2 C2.27972656 2.95519531 2.55945313 3.91039062 2.84765625 4.89453125 C5.21998788 12.65266964 7.89246131 19.14077711 12.64453125 25.828125 C14 28 14 28 14 31 C15.43725871 31.16873478 16.87481838 31.33490737 18.3125 31.5 C19.51326172 31.63921875 19.51326172 31.63921875 20.73828125 31.78125 C23.11896555 32.04813463 23.11896555 32.04813463 26 32 C25.67264472 34.94619748 25.37532687 37.35360372 23.875 39.9375 C20.74468608 41.71134455 18.42996188 40.79500128 15 40 C12.2570406 38.49924871 9.83874043 36.66791176 7.375 34.75 C6.41207031 34.03263672 6.41207031 34.03263672 5.4296875 33.30078125 C-0.94217513 28.48271299 -5.42688145 24.40766528 -7.8125 16.5625 C-8.02841797 15.91990234 -8.24433594 15.27730469 -8.46679688 14.61523438 C-9.73891301 10.63734741 -10.22529243 7.16469146 -10 3 C-3.375 0 -3.375 0 0 0 Z " fill="#90511D" transform="translate(262,329)"/>
<path d="M0 0 C-3.53960752 8.77740823 -13.88496011 15.27661266 -21.75 20 C-22.65141724 20.5417688 -22.65141724 20.5417688 -23.57104492 21.09448242 C-29.48617885 24.50305311 -35.09358485 27 -42 27 C-42.474375 27.495 -42.94875 27.99 -43.4375 28.5 C-45 30 -45 30 -48.1875 30.1875 C-49.5796875 30.0946875 -49.5796875 30.0946875 -51 30 C-51 29.34 -51 28.68 -51 28 C-50.14535156 27.66226562 -49.29070312 27.32453125 -48.41015625 26.9765625 C-47.30542969 26.53054688 -46.20070313 26.08453125 -45.0625 25.625 C-43.96035156 25.18414062 -42.85820312 24.74328125 -41.72265625 24.2890625 C-38.88769814 23.28958568 -38.88769814 23.28958568 -38 21 C-39.32 20.34 -40.64 19.68 -42 19 C-41.45214844 18.87625 -40.90429688 18.7525 -40.33984375 18.625 C-29.457279 15.79376364 -19.39054815 10.18743852 -10.640625 3.1875 C-7.30267511 0.77146008 -4.04799453 0 0 0 Z " fill="#8C4C0F" transform="translate(427,331)"/>
<path d="M0 0 C3.38596674 0.64163297 5.73902541 1.95588768 8.625 3.8125 C14.42496761 7.37973672 20.39196281 9.90105606 26.8984375 11.8828125 C30.33728829 13.12149175 33.24303238 14.74581943 36.375 16.625 C37.43460938 17.25664062 38.49421875 17.88828125 39.5859375 18.5390625 C40.38257813 19.02117187 41.17921875 19.50328125 42 20 C41.505 21.485 41.505 21.485 41 23 C38.04925064 24.14604997 35.13805158 24.13456723 32 24.125 C30.7315625 24.12886719 30.7315625 24.12886719 29.4375 24.1328125 C27.15301056 24.00833711 25.19008426 23.63877457 23 23 C23 22.34 23 21.68 23 21 C22.319375 20.773125 21.63875 20.54625 20.9375 20.3125 C17.3011291 18.68773854 13.97170737 16.67196743 11 14 C11 13.34 11 12.68 11 12 C10.42765625 11.74476563 9.8553125 11.48953125 9.265625 11.2265625 C6.75826267 9.86912841 4.8669544 8.28025896 2.75 6.375 C2.04359375 5.74335938 1.3371875 5.11171875 0.609375 4.4609375 C0.07828125 3.97882813 -0.4528125 3.49671875 -1 3 C-0.67 2.01 -0.34 1.02 0 0 Z " fill="#88480F" transform="translate(193,322)"/>
<path d="M0 0 C0.66 0 1.32 0 2 0 C3.2179676 1.89298579 4.35029558 3.8415036 5.4375 5.8125 C7.65822594 10.00704486 7.65822594 10.00704486 10.6875 13.5859375 C12.54111496 15.58298695 12.43470965 17.12890255 12.5625 19.8125 C12.84503993 23.8504665 13.60274407 27.18083379 15 31 C15 31.99 15 32.98 15 34 C14.34 34 13.68 34 13 34 C12.649375 33.21625 12.29875 32.4325 11.9375 31.625 C9.33027511 28.0926308 7.0493171 27.98943471 2.86328125 27.26171875 C2.24839844 27.17535156 1.63351562 27.08898437 1 27 C0.80083984 26.04287109 0.80083984 26.04287109 0.59765625 25.06640625 C0.42105469 24.24011719 0.24445313 23.41382813 0.0625 22.5625 C-0.11152344 21.73878906 -0.28554688 20.91507812 -0.46484375 20.06640625 C-0.80752994 18.02338796 -0.80752994 18.02338796 -2 17 C-2.12586907 14.7109392 -2.17577971 12.41748882 -2.1875 10.125 C-2.20167969 8.86945313 -2.21585937 7.61390625 -2.23046875 6.3203125 C-2 3 -2 3 0 0 Z " fill="#8A4A0F" transform="translate(288,313)"/>
<path class="tree-hl" d="M0 0 C-2.24525946 1.17666004 -4.49544142 2.3414074 -6.75 3.5 C-7.70132813 4.00080078 -7.70132813 4.00080078 -8.671875 4.51171875 C-12.12010993 6.27175533 -14.04840069 7 -18 7 C-18.33 7.99 -18.66 8.98 -19 10 C-19.99 10 -20.98 10 -22 10 C-22.22816406 10.55558594 -22.45632812 11.11117187 -22.69140625 11.68359375 C-24.36858311 14.65244712 -26.49663904 16.68615519 -28.9375 19.0625 C-29.81277344 19.91972656 -30.68804687 20.77695312 -31.58984375 21.66015625 C-32.96433444 22.99454835 -34.3470997 24.32081598 -35.75390625 25.62109375 C-37.25541715 27.09717423 -37.25541715 27.09717423 -38 30 C-38.66 30 -39.32 30 -40 30 C-40.20496094 30.92683594 -40.40992188 31.85367188 -40.62109375 32.80859375 C-40.89050781 34.00613281 -41.15992188 35.20367187 -41.4375 36.4375 C-41.70433594 37.63246094 -41.97117188 38.82742187 -42.24609375 40.05859375 C-43 43 -43 43 -44 44 C-44.23075082 45.34747084 -44.41153063 46.70377565 -44.5625 48.0625 C-44.706875 49.361875 -44.85125 50.66125 -45 52 C-50.54331851 51.63847923 -54.35977774 49.99063467 -59.1796875 47.25390625 C-66.61473656 43.94829579 -74.03384511 43.72973554 -82.0625 43.875 C-83.50399414 43.88853516 -83.50399414 43.88853516 -84.97460938 43.90234375 C-87.31667805 43.92564792 -89.65819792 43.95835942 -92 44 C-92 44.66 -92 45.32 -92 46 C-95.465 46.495 -95.465 46.495 -99 47 C-94.96858201 42.34234232 -89.00603326 41.33116006 -83.05078125 40.83886719 C-71.87385546 40.31195497 -63.18847835 41.59416451 -53.19921875 46.87890625 C-50.92074624 48.10926428 -50.92074624 48.10926428 -48 49 C-47.814375 47.94425781 -47.814375 47.94425781 -47.625 46.8671875 C-44.12048515 30.08932265 -33.98077378 16.52758805 -19.98046875 6.83203125 C-5.35798122 -2.15610329 -5.35798122 -2.15610329 0 0 Z " fill="#E5E699" transform="translate(266,30)"/>
<path class="tree-hl" d="M0 0 C0 3 0 3 -1.35546875 4.71875 C-2.26232422 5.60046875 -2.26232422 5.60046875 -3.1875 6.5 C-3.77917969 7.0878125 -4.37085938 7.675625 -4.98046875 8.28125 C-9.0657706 11.75810264 -12.07999644 13.38530915 -17.5 13.2578125 C-18.54559082 13.24266602 -19.59118164 13.22751953 -20.66845703 13.21191406 C-21.76786621 13.18323242 -22.86727539 13.15455078 -24 13.125 C-26.26819494 13.09845626 -28.53642805 13.07498366 -30.8046875 13.0546875 C-31.88459961 13.04276367 -32.96451172 13.03083984 -34.07714844 13.01855469 C-44.93689431 12.94961544 -54.64608349 14.92103451 -65 18 C-65.33 19.32 -65.66 20.64 -66 22 C-61.545 22.99 -61.545 22.99 -57 24 C-57.33 24.66 -57.66 25.32 -58 26 C-61.3 25.67 -64.6 25.34 -68 25 C-68 24.34 -68 23.68 -68 23 C-68.99 23.33 -69.98 23.66 -71 24 C-73.1875 22.5625 -73.1875 22.5625 -75 21 C-74.67 19.68 -74.34 18.36 -74 17 C-61.21467728 13.45521335 -48.6430358 11.27187863 -35.36460876 10.76324463 C-32.58714348 10.65543965 -29.81079899 10.52546827 -27.03421021 10.39727783 C-24.97707165 10.31410003 -22.9213194 10.26863156 -20.86303711 10.22412109 C-13.35598047 9.89030696 -8.71147276 9.244497 -3.42016602 3.68041992 C-2.71718384 2.84861206 -2.71718384 2.84861206 -2 2 C-1.34 1.34 -0.68 0.68 0 0 Z " fill="#DADDA4" transform="translate(261,456)"/>
<path d="M0 0 C0 0.33 0 0.66 0 1 C-4.01184877 1.2695228 -8.02390132 1.53579521 -12.03613281 1.79956055 C-14.03981691 1.93187489 -16.04334981 2.06647272 -18.046875 2.20117188 C-22.36344597 2.48738049 -26.68125628 2.74885717 -31 3 C-32.19391861 3.07045532 -32.19391861 3.07045532 -33.41195679 3.14233398 C-48.65911778 4.01512425 -63.88336901 4.155342 -79.15307617 4.13037109 C-83.08841729 4.12496439 -87.02364648 4.13037655 -90.95898438 4.13671875 C-93.50520858 4.13605856 -96.05143272 4.13477864 -98.59765625 4.1328125 C-99.75209732 4.13483673 -100.90653839 4.13686096 -102.09596252 4.13894653 C-109.77143163 4.11713479 -117.35601899 3.68972759 -125 3 C-125 2.67 -125 2.34 -125 2 C-124.22882843 1.98969254 -123.45765686 1.97938507 -122.66311646 1.96876526 C-112.8170311 1.83664149 -102.97099969 1.70085257 -93.125 1.5625 C-92.33936047 1.55147877 -91.55372093 1.54045753 -90.74427414 1.52910233 C-69.38208608 1.22856997 -48.02326971 0.88656063 -26.66650391 0.30493164 C-17.774624 0.06557183 -8.89569789 -0.05595896 0 0 Z " fill="#C9D186" transform="translate(378,482)"/>
<path class="tree-hl" d="M0 0 C1.41693016 2.83386032 0.4746559 4.18346657 -0.4375 7.1875 C-3.04259473 17.18770236 -3.24333808 27.2820241 0.34375 37.046875 C1 39 1 39 1 42 C-0.19625 42.185625 -1.3925 42.37125 -2.625 42.5625 C-16.17477351 45.58547162 -27.46908573 53.45106745 -35 65 C-36.01446612 66.99270131 -37.01965496 68.99029266 -38 71 C-38.99 71.495 -38.99 71.495 -40 72 C-38.77011788 66.49679864 -36.7921506 62.77657131 -33.0625 58.5 C-32.57523438 57.93611572 -32.08796875 57.37223145 -31.5859375 56.79125977 C-24.20845367 48.5686368 -15.42770902 44.27627344 -5 41 C-4.01 40.67 -3.02 40.34 -2 40 C-2.30035156 38.91203125 -2.60070312 37.8240625 -2.91015625 36.703125 C-6.31679039 23.79710924 -7.2003019 13.32310003 -1 1 C-0.67 0.67 -0.34 0.34 0 0 Z " fill="#EAEBBA" transform="translate(89,142)"/>
<path d="M0 0 C2.79931196 1.39965598 3.51299244 3.61426469 4.90234375 6.30859375 C6.04751017 8.31766868 6.04751017 8.31766868 9 10 C11.28648848 10.24107326 11.28648848 10.24107326 13.6875 10.125 C14.49574219 10.10695313 15.30398438 10.08890625 16.13671875 10.0703125 C16.75160156 10.04710937 17.36648438 10.02390625 18 10 C18 10.66 18 11.32 18 12 C14.53846154 15 14.53846154 15 12 15 C12 15.66 12 16.32 12 17 C10.3125 18.6875 10.3125 18.6875 8 20 C5.4375 20 5.4375 20 3 19 C-0.17781512 14.92180393 -0.32991558 11.76698889 -0.1875 6.6875 C-0.14689453 4.80611328 -0.14689453 4.80611328 -0.10546875 2.88671875 C-0.07066406 1.93410156 -0.03585937 0.98148437 0 0 Z " fill="#8D4912" transform="translate(303,348)"/>
<path d="M0 0 C0.60328125 0.51820313 1.2065625 1.03640625 1.828125 1.5703125 C2.44171875 2.08335937 3.0553125 2.59640625 3.6875 3.125 C5.078125 4.6953125 5.078125 4.6953125 5.078125 7.6953125 C-1.191875 7.6953125 -7.461875 7.6953125 -13.921875 7.6953125 C-14.921875 1.6953125 -14.921875 1.6953125 -13.859375 -0.1171875 C-9.28953499 -2.91805718 -4.40579322 -2.99092466 0 0 Z " fill="#97551B" transform="translate(334.921875,463.3046875)"/>
<path class="tree-hl" d="M0 0 C0.8427743 2.39287704 1.67437002 4.78871019 2.5 7.1875 C2.73847656 7.86103516 2.97695312 8.53457031 3.22265625 9.22851562 C4.48727592 12.93204467 5.30451221 16.07940536 5 20 C4.25234375 19.65066406 3.5046875 19.30132812 2.734375 18.94140625 C1.74953125 18.48636719 0.7646875 18.03132813 -0.25 17.5625 C-1.71179688 16.88380859 -1.71179688 16.88380859 -3.203125 16.19140625 C-5.86329211 14.94895647 -5.86329211 14.94895647 -8.296875 14.52734375 C-8.85890625 14.35332031 -9.4209375 14.17929687 -10 14 C-10.33 13.01 -10.66 12.02 -11 11 C-6.52761347 12.41807378 -2.28853694 14.11304374 2 16 C1.7834375 15.25234375 1.566875 14.5046875 1.34375 13.734375 C1.0653125 12.74953125 0.786875 11.7646875 0.5 10.75 C0.2215625 9.77546875 -0.056875 8.8009375 -0.34375 7.796875 C-1 5 -1 5 -1 1 C-1.60585937 1.2165625 -2.21171875 1.433125 -2.8359375 1.65625 C-8.35980135 3.49187245 -13.05152206 4.2880487 -18.87109375 4.0078125 C-21.19043083 3.88586193 -21.19043083 3.88586193 -24 5 C-26.1875 4.0625 -26.1875 4.0625 -28 3 C-28 2.34 -28 1.68 -28 1 C-24.83350749 0.82991412 -21.6667838 0.66456601 -18.5 0.5 C-17.1696875 0.42845703 -17.1696875 0.42845703 -15.8125 0.35546875 C-10.53287287 0.08372324 -5.28655326 -0.04940704 0 0 Z " fill="#D4D0A0" transform="translate(251,333)"/>
<path d="M0 0 C8.4474316 -0.84474316 13.71615956 1.93116873 21 6 C22.32934153 6.67459122 23.66099085 7.34480787 25 8 C25 8.33 25 8.66 25 9 C17.62591038 10.39509804 12.28192826 10.84425727 5.75 6.75 C1.18592965 3.55778894 1.18592965 3.55778894 0 0 Z " fill="#8E5010" transform="translate(164,335)"/>
<path class="tree-hl" d="M0 0 C0.66 0.33 1.32 0.66 2 1 C1.41992188 1.4125 0.83984375 1.825 0.2421875 2.25 C-10.63627064 10.29216047 -18.10785109 21.21096989 -20.375 34.75 C-20.60351649 36.49747904 -20.81971547 38.2468884 -21 40 C-21.59949463 40.02505615 -22.19898926 40.0501123 -22.81665039 40.07592773 C-25.56543324 40.19285773 -28.31395375 40.31513947 -31.0625 40.4375 C-32.00544922 40.47681641 -32.94839844 40.51613281 -33.91992188 40.55664062 C-39.01115478 40.78725396 -43.97064756 41.1699127 -49 42 C-41.29723305 36.86482203 -31.88788093 37.77242979 -23 38 C-22.9175 37.071875 -22.835 36.14375 -22.75 35.1875 C-21.97513087 29.84951267 -20.0118909 24.97822833 -18 20 C-17.67386719 19.13761719 -17.34773438 18.27523437 -17.01171875 17.38671875 C-13.69751635 9.63751095 -7.56143802 3.78071901 0 0 Z " fill="#ECEDBF" transform="translate(165,77)"/>
<path class="tree-hl" d="M0 0 C14.28788252 -0.52301733 26.7157833 3.93165199 38.78515625 11.1640625 C39.28015625 12.1540625 39.28015625 12.1540625 39.78515625 13.1640625 C37.23740345 12.69225643 35.57938401 12.03743343 33.34765625 10.6640625 C30.75488832 9.14634469 28.73585649 8.58559111 25.78515625 8.1640625 C25.78515625 7.5040625 25.78515625 6.8440625 25.78515625 6.1640625 C24.93244141 6.09058594 24.93244141 6.09058594 24.0625 6.015625 C22.90427734 5.90347656 22.90427734 5.90347656 21.72265625 5.7890625 C20.59150391 5.68464844 20.59150391 5.68464844 19.4375 5.578125 C16.78515625 5.1640625 16.78515625 5.1640625 13.75390625 4.1328125 C8.41084712 2.54255604 2.86749247 2.95388995 -2.65234375 3.0390625 C-4.32200195 3.05259766 -4.32200195 3.05259766 -6.02539062 3.06640625 C-8.75543398 3.0898401 -11.48502385 3.1226485 -14.21484375 3.1640625 C-9.61691155 0.67267192 -5.12117622 0.37934639 0 0 Z " fill="#E8E9A7" transform="translate(280.21484375,25.8359375)"/>
<path class="tree-hl" d="M0 0 C5.71103231 6.86888544 5.59641746 16.42974047 5 25 C3.6213823 33.6852915 -0.08996331 42.9421187 -6.875 48.75 C-7.90625 49.4925 -8.9375 50.235 -10 51 C-8.26169318 47.25595455 -5.96792576 44.23894498 -3.4375 41 C1.66365523 33.90274055 2.32480307 26.29641502 2.25 17.8125 C2.25773438 16.92369141 2.26546875 16.03488281 2.2734375 15.11914062 C2.27085937 14.26126953 2.26828125 13.40339844 2.265625 12.51953125 C2.26336914 11.74714111 2.26111328 10.97475098 2.25878906 10.17895508 C2.11892837 7.95096628 2.11892837 7.95096628 0.98339844 5.9675293 C0 4 0 4 0 0 Z " fill="#D6DDA5" transform="translate(557,234)"/>
<path d="M0 0 C0 0.33 0 0.66 0 1 C-2.64 1.66 -5.28 2.32 -8 3 C-8.33 4.32 -8.66 5.64 -9 7 C-4.545 7.99 -4.545 7.99 0 9 C-0.33 9.66 -0.66 10.32 -1 11 C-4.3 10.67 -7.6 10.34 -11 10 C-11 9.34 -11 8.68 -11 8 C-11.99 8.33 -12.98 8.66 -14 9 C-16.1875 7.5625 -16.1875 7.5625 -18 6 C-17.875 4.125 -17.875 4.125 -17 2 C-11.70214935 -0.78834245 -5.82197665 -0.186469 0 0 Z " fill="#C6D072" transform="translate(204,471)"/>
<path d="M0 0 C0.66 0 1.32 0 2 0 C6.11277496 16.19405141 7.17629535 29.64284321 3 46 C2.01 46 1.02 46 0 46 C0.32484375 44.92685547 0.32484375 44.92685547 0.65625 43.83203125 C2.57733887 36.95702339 3.2672107 30.84829415 3.0078125 23.71484375 C3 21 3 21 4 18 C3.34 17.67 2.68 17.34 2 17 C1.62109375 14.70703125 1.62109375 14.70703125 1.4375 11.8125 C1.14640698 7.82036713 0.74512299 3.93850721 0 0 Z " fill="#D3AD8E" transform="translate(268,394)"/>
<path class="tree-hl" d="M0 0 C0 3.20395416 -0.74335022 5.09399739 -2 8 C-2.66 8 -3.32 8 -4 8 C-4.20496094 8.92683594 -4.40992188 9.85367188 -4.62109375 10.80859375 C-4.89050781 12.00613281 -5.15992188 13.20367187 -5.4375 14.4375 C-5.70433594 15.63246094 -5.97117188 16.82742187 -6.24609375 18.05859375 C-7 21 -7 21 -8 22 C-8.23075082 23.34747084 -8.41153063 24.70377565 -8.5625 26.0625 C-8.706875 27.361875 -8.85125 28.66125 -9 30 C-15.67353409 29.71601983 -19.71077185 26.92194468 -25 23 C-22 22 -22 22 -19.73828125 22.99609375 C-18.93777344 23.47175781 -18.13726562 23.94742188 -17.3125 24.4375 C-16.50425781 24.91058594 -15.69601563 25.38367188 -14.86328125 25.87109375 C-13.94095703 26.42990234 -13.94095703 26.42990234 -13 27 C-10.64224758 24.64224758 -10.74639725 23.95462772 -10.375 20.75 C-9.1522158 13.84783794 -5.02989862 5.02989862 0 0 Z " fill="#E9EAB1" transform="translate(230,52)"/>
<path class="tree-hl" d="M0 0 C2.45823172 3.68734758 3.01242616 6.69699971 4 11 C4.56847656 10.79503906 5.13695312 10.59007813 5.72265625 10.37890625 C6.49480469 10.10949219 7.26695312 9.84007813 8.0625 9.5625 C8.81660156 9.29566406 9.57070313 9.02882813 10.34765625 8.75390625 C16.21887759 7.0850613 21.88166348 6.85009996 27.9375 7.25 C28.63681641 7.29374756 29.33613281 7.33749512 30.05664062 7.38256836 C35.22999733 7.77852541 39.34412968 8.76906214 44 11 C40.65767144 12.11410952 39.65193786 11.84494103 36.3125 11.0625 C26.00683976 9.08064226 15.43957078 8.42949766 5.8203125 13.125 C4 14 4 14 2 14 C-0.29612756 4.58997722 -0.29612756 4.58997722 0 0 Z " fill="#DEE4AD" transform="translate(400,86)"/>
<path class="tree-hl" d="M0 0 C1.0083792 3.13717973 0.84481018 4.86213362 0 8 C-0.41578815 15.13608506 -0.05952756 21.80858544 1.5546875 28.765625 C2.18046561 31.90549413 2.13872736 34.80927074 2 38 C0 37 0 37 -0.81640625 34.99609375 C-4.52477287 22.27892027 -4.16867341 12.55845639 0 0 Z " fill="#DEE3A8" transform="translate(48,214)"/>
<path d="M0 0 C0 0.66 0 1.32 0 2 C-1.46875 3.2265625 -1.46875 3.2265625 -3.5 4.625 C-7.4288117 7.46401764 -10.73051847 10.62668008 -14.1015625 14.09765625 C-16.59566266 16.5968883 -19.24444807 18.79555845 -22 21 C-20.80100302 17.9168649 -19.52299523 14.93720508 -18 12 C-17.34 12 -16.68 12 -16 12 C-16 11.34 -16 10.68 -16 10 C-13.953125 8.125 -13.953125 8.125 -11.25 6 C-10.36828125 5.29875 -9.4865625 4.5975 -8.578125 3.875 C-3.25 0 -3.25 0 0 0 Z " fill="#E2E489" transform="translate(112,121)"/>
<path class="tree-hl" d="M0 0 C3.08089673 2.77280706 4.68775452 5.06326356 6 9 C8.66992374 8.52883699 11.06414151 7.97478775 13.59375 6.98046875 C17.93195728 5.73174166 21.88549371 5.66985257 26.375 5.6875 C27.18710937 5.67138672 27.99921875 5.65527344 28.8359375 5.63867188 C34.54819422 5.63409475 38.76250732 6.71837963 44 9 C41 10 41 10 37.75 9.0625 C28.43463015 6.57038076 18.63100967 6.87460751 9.953125 11.125 C8 12 8 12 5 12 C4.16180842 10.37750059 3.3295884 8.75191503 2.5 7.125 C2.0359375 6.22007813 1.571875 5.31515625 1.09375 4.3828125 C0 2 0 2 0 0 Z " fill="#EAEBBD" transform="translate(335,54)"/>
<path class="tree-hl" d="M0 0 C6.04853897 6.04853897 5.57800179 17.0664337 6 25 C12.93 25.495 12.93 25.495 20 26 C20 26.33 20 26.66 20 27 C14.72 27 9.44 27 4 27 C3.77213542 23.54947917 3.54427083 20.09895833 3.31640625 16.6484375 C3.03336056 13.38467612 2.58961047 10.22056141 2 7 C1.34 7 0.68 7 0 7 C0 4.69 0 2.38 0 0 Z " fill="#E4E8BA" transform="translate(470,122)"/>
<path class="tree-hl" d="M0 0 C0.66 0 1.32 0 2 0 C5.40299512 11.60664406 5.85539811 21.24697741 3 33 C2.67 33 2.34 33 2 33 C2.01047363 32.39115967 2.02094727 31.78231934 2.03173828 31.1550293 C2.46276514 15.44634774 2.46276514 15.44634774 0 0 Z " fill="#D9E0A8" transform="translate(545,285)"/>
<path class="tree-hl" d="M0 0 C7.875 0.875 7.875 0.875 9 2 C10.34015221 2.15582303 11.68758903 2.25044142 13.03515625 2.31640625 C13.84404297 2.35830078 14.65292969 2.40019531 15.48632812 2.44335938 C16.33646484 2.48267578 17.18660156 2.52199219 18.0625 2.5625 C18.91650391 2.60568359 19.77050781 2.64886719 20.65039062 2.69335938 C22.76672037 2.79976702 24.88333813 2.90041731 27 3 C26.01 4.485 26.01 4.485 25 6 C24.34 6 23.68 6 23 6 C22.34 7.65 21.68 9.3 21 11 C20.34 10.67 19.68 10.34 19 10 C19.66 8.68 20.32 7.36 21 6 C20.07058594 5.89042969 19.14117187 5.78085937 18.18359375 5.66796875 C11.64677198 4.82956512 5.86581479 4.07256965 0 1 C0 0.67 0 0.34 0 0 Z " fill="#DCDFB2" transform="translate(312,337)"/>
<path class="tree-hl" d="M0 0 C0.625 1.8125 0.625 1.8125 1 4 C0.01 5.485 0.01 5.485 -1 7 C-3.59163072 14.77489215 -3.62539506 22.87698764 -4 31 C-6.77622945 26.00278698 -7.17386696 21.82566193 -6.5625 16.1875 C-6.40974609 14.72376953 -6.40974609 14.72376953 -6.25390625 13.23046875 C-6.12822266 12.12638672 -6.12822266 12.12638672 -6 11 C-5.34 11 -4.68 11 -4 11 C-3.896875 10.113125 -3.79375 9.22625 -3.6875 8.3125 C-2.98809298 4.9426298 -1.91257489 2.82728462 0 0 Z " fill="#DCE2AC" transform="translate(44,270)"/>
<path d="M0 0 C1.32 0.33 2.64 0.66 4 1 C0.04 4.96 -3.92 8.92 -8 13 C-8.33 11.68 -8.66 10.36 -9 9 C-7.26953125 6.60546875 -7.26953125 6.60546875 -4.8125 4.1875 C-4.01457031 3.37667969 -3.21664062 2.56585938 -2.39453125 1.73046875 C-1.60433594 1.15941406 -0.81414062 0.58835938 0 0 Z " fill="#E4E58B" transform="translate(240,41)"/>
<path class="tree-hl" d="M0 0 C6.875 0.875 6.875 0.875 8 2 C9.41327947 2.15620555 10.8335459 2.25056173 12.25390625 2.31640625 C13.10791016 2.35830078 13.96191406 2.40019531 14.84179688 2.44335938 C15.73962891 2.48267578 16.63746094 2.52199219 17.5625 2.5625 C18.46419922 2.60568359 19.36589844 2.64886719 20.29492188 2.69335938 C22.52978485 2.79978142 24.76476308 2.90179988 27 3 C27 3.33 27 3.66 27 4 C18.19357067 6.76319114 10.00042758 5.79364169 1.6171875 1.890625 C1.08351562 1.59671875 0.54984375 1.3028125 0 1 C0 0.67 0 0.34 0 0 Z " fill="#D3DA9F" transform="translate(157,360)"/>
<path class="tree-hl" d="M0 0 C-9.26502536 4.74024553 -19.73446647 5.41710971 -30 5 C-30.33 4.34 -30.66 3.68 -31 3 C-29.98421875 2.96261719 -28.9684375 2.92523438 -27.921875 2.88671875 C-20.08675591 2.53339833 -12.91951872 1.79786908 -5.35546875 -0.4765625 C-3 -1 -3 -1 0 0 Z " fill="#E6E7C7" transform="translate(434,361)"/>
<path class="tree-hl" d="M0 0 C0.33 0 0.66 0 1 0 C1.06058594 1.18335938 1.12117188 2.36671875 1.18359375 3.5859375 C1.61253139 11.7486984 2.0825965 19.87442613 3 28 C2.01 27.34 1.02 26.68 0 26 C-0.34057617 23.38623047 -0.34057617 23.38623047 -0.29296875 20.1171875 C-0.2784668 18.36728516 -0.2784668 18.36728516 -0.26367188 16.58203125 C-0.23853516 15.35871094 -0.21339844 14.13539063 -0.1875 12.875 C-0.17396484 11.64394531 -0.16042969 10.41289062 -0.14648438 9.14453125 C-0.11103543 6.09592157 -0.06162079 3.048175 0 0 Z " fill="#D9C5A0" transform="translate(317,408)"/>
<path class="tree-hl" d="M0 0 C1.44223928 2.88447855 0.48025696 4.4906367 -0.375 7.5625 C-1.7435084 12.74283544 -2.55552346 17.66628148 -3 23 C-3.33 23 -3.66 23 -4 23 C-5.32447806 14.62123662 -5.08166112 8.54632696 -1 1 C-0.67 0.67 -0.34 0.34 0 0 Z " fill="#E6E89F" transform="translate(89,142)"/>
<path class="tree-hl" d="M0 0 C2.45823172 3.68734758 3.01242616 6.69699971 4 11 C4.59167969 10.7834375 5.18335938 10.566875 5.79296875 10.34375 C13.64147627 7.57820738 13.64147627 7.57820738 18 8 C15.01559439 9.54078615 11.98992242 10.86973276 8.875 12.125 C8.00617188 12.47820312 7.13734375 12.83140625 6.2421875 13.1953125 C4 14 4 14 2 14 C-0.29612756 4.58997722 -0.29612756 4.58997722 0 0 Z " fill="#E9EBC1" transform="translate(400,86)"/>
<path d="M0 0 C0.99 0.33 1.98 0.66 3 1 C3 1.66 3 2.32 3 3 C-0.78667689 5.55698285 -4.4122334 5.03499684 -8.75 4.625 C-9.44738281 4.56828125 -10.14476562 4.5115625 -10.86328125 4.453125 C-12.57639312 4.31232128 -14.28834611 4.15754028 -16 4 C-16 3.67 -16 3.34 -16 3 C-14.51886719 2.80083984 -14.51886719 2.80083984 -13.0078125 2.59765625 C-11.72648437 2.42105469 -10.44515625 2.24445313 -9.125 2.0625 C-7.21074219 1.80146484 -7.21074219 1.80146484 -5.2578125 1.53515625 C-2.12440546 1.18566773 -2.12440546 1.18566773 0 0 Z " fill="#D4B28F" transform="translate(375,350)"/>
<path d="M0 0 C0.66 0.33 1.32 0.66 2 1 C3.35234414 5.32750126 3.70543149 10.51547121 3 15 C1.484375 16.7734375 1.484375 16.7734375 0 18 C0.01740234 16.78763672 0.01740234 16.78763672 0.03515625 15.55078125 C0.04417969 14.48214844 0.05320312 13.41351563 0.0625 12.3125 C0.07410156 11.25675781 0.08570313 10.20101563 0.09765625 9.11328125 C0.08671936 6.02793804 0.08671936 6.02793804 -0.56640625 3.16796875 C-0.70949219 2.45253906 -0.85257812 1.73710937 -1 1 C-0.67 0.67 -0.34 0.34 0 0 Z " fill="#D5B494" transform="translate(287,340)"/>
<path d="M0 0 C-2.23819488 2.01483592 -3.52758269 2.95418793 -6.56542969 3.2487793 C-7.50805664 3.19117432 -8.45068359 3.13356934 -9.421875 3.07421875 C-10.44667969 3.01943359 -11.47148437 2.96464844 -12.52734375 2.90820312 C-13.59082031 2.83537109 -14.65429688 2.76253906 -15.75 2.6875 C-17.36841797 2.5956543 -17.36841797 2.5956543 -19.01953125 2.50195312 C-21.68087106 2.34886721 -24.34043997 2.1810454 -27 2 C-27 1.67 -27 1.34 -27 1 C-24.00013007 0.8306525 -21.00013908 0.66445207 -18 0.5 C-17.16082031 0.45230469 -16.32164063 0.40460938 -15.45703125 0.35546875 C-10.29532696 0.07537627 -5.16925753 -0.0478635 0 0 Z " fill="#B8C566" transform="translate(141,360)"/>
<path class="tree-hl" d="M0 0 C0.66 0.33 1.32 0.66 2 1 C1.01 2.485 1.01 2.485 0 4 C2.97 4 5.94 4 9 4 C5.3750203 5.81248985 3.62740416 6.31888915 -0.25 6.625 C-1.14203125 6.69976562 -2.0340625 6.77453125 -2.953125 6.8515625 C-3.62859375 6.90054687 -4.3040625 6.94953125 -5 7 C-1.125 1.125 -1.125 1.125 0 0 Z " fill="#DFCBB0" transform="translate(350,350)"/>
<path class="tree-hl" d="M0 0 C2.22889496 -0.05428973 4.45817471 -0.09292338 6.6875 -0.125 C8.54955078 -0.15980469 8.54955078 -0.15980469 10.44921875 -0.1953125 C13.81237857 -0.01032021 15.9985587 0.54232105 19 2 C18.34 2.66 17.68 3.32 17 4 C15.0938192 3.56525701 13.18914611 3.11686724 11.30859375 2.58203125 C7.5891705 1.64430864 3.81379434 1.33547265 0 1 C0 0.67 0 0.34 0 0 Z " fill="#D6BE9C" transform="translate(205,353)"/>
<path class="tree-hl" d="M0 0 C4.53099675 0.54371961 7.83672603 1.71302455 11.8125 3.9375 C12.76769531 4.46214844 13.72289062 4.98679688 14.70703125 5.52734375 C17 7 17 7 18 9 C16.33333333 8.33333333 14.66666667 7.66666667 13 7 C11.98421875 6.5978125 10.9684375 6.195625 9.921875 5.78125 C8.87515625 5.3584375 7.8284375 4.935625 6.75 4.5 C5.69296875 4.0771875 4.6359375 3.654375 3.546875 3.21875 C1 2 1 2 0 0 Z " fill="#DDE3A8" transform="translate(491,149)"/>
<path class="tree-hl" d="M0 0 C3.4375 0.1875 3.4375 0.1875 4.4375 1.1875 C5.95219448 1.41942865 7.47504562 1.59965238 9 1.75 C9.82628906 1.83378906 10.65257812 1.91757812 11.50390625 2.00390625 C12.14199219 2.06449219 12.78007812 2.12507813 13.4375 2.1875 C9.80631514 4.52183313 7.03302297 4.27037631 2.8125 3.875 C1.09160156 3.72611328 1.09160156 3.72611328 -0.6640625 3.57421875 C-3.5625 3.1875 -3.5625 3.1875 -5.5625 2.1875 C-3.5625 0.1875 -3.5625 0.1875 0 0 Z " fill="#DAE0AE" transform="translate(442.5625,354.8125)"/>
<path d="M0 0 C0 0.66 0 1.32 0 2 C-1.5778125 2.2165625 -1.5778125 2.2165625 -3.1875 2.4375 C-5.40700113 2.76496738 -7.62239651 3.13831033 -9.8125 3.625 C-12 4 -12 4 -14 3 C-14 2.34 -14 1.68 -14 1 C-9.27685687 0.22887459 -4.78478822 -0.09764874 0 0 Z " fill="#CBD490" transform="translate(512,351)"/>
<path class="tree-hl" d="M0 0 C5.94 0 11.88 0 18 0 C14.69857556 2.20094963 13.80630045 2.20410344 10 2.0625 C6.8658849 1.95523118 5.01639328 1.99453557 2 3 C1.34 2.67 0.68 2.34 0 2 C0 1.34 0 0.68 0 0 Z " fill="#E9E6CC" transform="translate(225,335)"/>
<path class="tree-hl" d="M0 0 C0.33 0.66 0.66 1.32 1 2 C-1.83564466 8.23400481 -5.44951453 13.03536752 -11 17 C-9.63446739 14.06639166 -8.04784103 11.61363796 -6.0625 9.0625 C-3.82841786 6.14016762 -1.80685711 3.21219041 0 0 Z " fill="#DCE2B0" transform="translate(558,268)"/>
<path class="tree-hl" d="M0 0 C2.12534659 0.14069196 4.25027529 0.28770921 6.375 0.4375 C8.15003906 0.55931641 8.15003906 0.55931641 9.9609375 0.68359375 C13 1 13 1 15 2 C15 3.32 15 4.64 15 6 C14.34 5.67 13.68 5.34 13 5 C9.68468976 3.89489659 6.38778049 3.2575176 2.9609375 2.59765625 C2.31382813 2.40042969 1.66671875 2.20320313 1 2 C0.67 1.34 0.34 0.68 0 0 Z " fill="#D3DA9E" transform="translate(65,328)"/>
<path d="M0 0 C0.99 0 1.98 0 3 0 C3 0.66 3 1.32 3 2 C4.093125 2.103125 5.18625 2.20625 6.3125 2.3125 C9.85559629 2.97307727 10.93243723 3.2027092 13 6 C8.51474352 5.343621 4.33085971 4.29925791 0 3 C0 2.01 0 1.02 0 0 Z " fill="#D5D746" transform="translate(303,32)"/>
<path class="tree-hl" d="M0 0 C0.66 0.33 1.32 0.66 2 1 C-6.261959 7.70387244 -6.261959 7.70387244 -11 8 C-11 7.34 -11 6.68 -11 6 C-10.37351563 5.73445313 -9.74703125 5.46890625 -9.1015625 5.1953125 C-8.28429687 4.84210938 -7.46703125 4.48890625 -6.625 4.125 C-5.40683594 3.60292969 -5.40683594 3.60292969 -4.1640625 3.0703125 C-1.86197701 2.07553933 -1.86197701 2.07553933 0 0 Z " fill="#D0D998" transform="translate(195,355)"/>
<path d="M0 0 C0.66 0.33 1.32 0.66 2 1 C1 4 1 4 -1 5 C-2.99960012 5.039992 -5.00047242 5.04346799 -7 5 C-7 4.34 -7 3.68 -7 3 C-4.69631264 1.93347808 -2.35981813 0.93578995 0 0 Z " fill="#96511B" transform="translate(383,356)"/>
<path class="tree-hl" d="M0 0 C-1.98 0.33 -3.96 0.66 -6 1 C-6 1.66 -6 2.32 -6 3 C-8.31 3.33 -10.62 3.66 -13 4 C-9.68492165 -0.05176242 -5.01001751 -1.92692981 0 0 Z " fill="#E9EAAD" transform="translate(180,73)"/>
<path class="tree-hl" d="M0 0 C0.33 0 0.66 0 1 0 C1.16682272 4.92127034 1.24828052 8.50343896 -1 13 C-1.66 12.34 -2.32 11.68 -3 11 C-2.690625 9.9275 -2.38125 8.855 -2.0625 7.75 C-1.33187904 5.17133778 -0.62517096 2.60487898 0 0 Z " fill="#E6D8C2" transform="translate(271,428)"/>
<path class="tree-hl" d="M0 0 C-5.36439644 2.68219822 -9.01006953 3.3152595 -15 3 C-15 2.67 -15 2.34 -15 2 C-13.06524329 1.46906676 -11.12706845 0.95057683 -9.1875 0.4375 C-8.10855469 0.14746094 -7.02960938 -0.14257812 -5.91796875 -0.44140625 C-3 -1 -3 -1 0 0 Z " fill="#D3DA9F" transform="translate(434,361)"/>
<path class="tree-hl" d="M0 0 C1.98 0.99 1.98 0.99 4 2 C3.01 2.495 3.01 2.495 2 3 C2 4.98 2 6.96 2 9 C1.34 8.67 0.68 8.34 0 8 C0 5.36 0 2.72 0 0 Z " fill="#D9C4A7" transform="translate(300,330)"/>
<path class="tree-hl" d="M0 0 C3.39417765 3.12621626 5.6062718 5.56541027 7 10 C2.57320993 8.52440331 2.08567304 6.09942632 0 2 C0 1.34 0 0.68 0 0 Z " fill="#D4DC9F" transform="translate(516,165)"/>
<path class="tree-hl" d="M0 0 C2.97 0.33 5.94 0.66 9 1 C9.33 1.99 9.66 2.98 10 4 C5.78087253 3.5205537 3.20336822 2.83374881 0 0 Z " fill="#E1D1B9" transform="translate(224,356)"/>
<path d="M0 0 C0.33 0.99 0.66 1.98 1 3 C-2 4 -2 4 -6 4 C-6.99 3.34 -7.98 2.68 -9 2 C-2.25 0 -2.25 0 0 0 Z " fill="#8F5B15" transform="translate(394,348)"/>
<path class="tree-hl" d="M0 0 C0.33 0.66 0.66 1.32 1 2 C0.00390625 4.1640625 0.00390625 4.1640625 -1.4375 6.625 C-1.91058594 7.44226563 -2.38367188 8.25953125 -2.87109375 9.1015625 C-3.24363281 9.72804688 -3.61617187 10.35453125 -4 11 C-4.33 10.34 -4.66 9.68 -5 9 C-2.6 2.6 -2.6 2.6 0 0 Z " fill="#D8DFA7" transform="translate(546,318)"/>
<path d="M0 0 C2.9375 0.375 2.9375 0.375 6 1 C6.33 1.66 6.66 2.32 7 3 C4.36 3 1.72 3 -1 3 C-0.67 2.01 -0.34 1.02 0 0 Z " fill="#995018" transform="translate(182,341)"/>
<path class="tree-hl" d="M0 0 C0.66 0 1.32 0 2 0 C1.52797514 4.24822374 -0.96655518 6.19989709 -4 9 C-2.80100302 5.9168649 -1.52299523 2.93720508 0 0 Z " fill="#EEEFC4" transform="translate(94,133)"/>
<path class="tree-hl" d="" fill="#FFFFFF" transform="translate(0,0)"/>
<path class="tree-hl" d="" fill="#FFFFFF" transform="translate(0,0)"/>
<path class="tree-hl" d="" fill="#FFFFFF" transform="translate(0,0)"/>
<path class="tree-hl" d="" fill="#FFFFFF" transform="translate(0,0)"/>
<path class="tree-hl" d="" fill="#FFFFFF" transform="translate(0,0)"/>
</svg>
